<svg width="391" height="294" viewBox="0 0 391 294" fill="none" xmlns="http://www.w3.org/2000/svg">
<path d="M100.119 -33.5751L41.809 -4.09173L-11.4225 -109.159L37.6304 -133.966L11.8219 -55.2495L-26.9837 -35.6251L19.6532 56.4262L79.147 26.3348L100.119 -33.5751Z" stroke="#7191E6" stroke-width="0.140442" stroke-miterlimit="10"/>
<path d="M101.909 -32.8457L43.5548 -3.826L-8.83763 -108.994L40.2579 -133.405L13.9815 -55.0633L-24.857 -35.7511L21.0442 56.385L80.596 26.7738L101.909 -32.8457Z" stroke="#7191E6" stroke-width="0.140442" stroke-miterlimit="10"/>
<path d="M103.71 -32.1209L45.2992 -3.5685L-6.25231 -108.823L42.8878 -132.845L16.149 -54.8762L-22.7244 -35.8705L22.4358 56.3484L82.0417 27.2101L103.71 -32.1209Z" stroke="#7191E6" stroke-width="0.140442" stroke-miterlimit="10"/>
<path d="M105.507 -31.3899L47.0455 -3.30294L-3.66697 -108.658L45.5176 -132.29L18.3129 -54.6828L-20.5992 -35.9912L23.8273 56.3071L83.4857 27.6471L105.507 -31.3899Z" stroke="#7191E6" stroke-width="0.140442" stroke-miterlimit="10"/>
<path d="M107.303 -30.659L48.7862 -3.03939L-1.08179 -108.492L48.1456 -131.729L20.4784 -54.4952L-18.4685 -36.1102L25.2225 56.2728L84.935 28.0858L107.303 -30.659Z" stroke="#7191E6" stroke-width="0.140442" stroke-miterlimit="10"/>
<path d="M109.104 -29.9342L50.5287 -2.77631L1.50351 -108.322L50.7754 -131.169L22.6403 -54.3099L-16.3396 -36.237L26.6158 56.2308L86.3808 28.5221L109.104 -29.9342Z" stroke="#7191E6" stroke-width="0.140442" stroke-miterlimit="10"/>
<path d="M110.9 -29.2033L52.2767 -2.51648L4.08873 -108.157L53.4089 -130.607L24.8041 -54.1167L-14.2144 -36.3578L28.0054 56.1948L87.8246 28.959L110.9 -29.2033Z" stroke="#7191E6" stroke-width="0.140442" stroke-miterlimit="10"/>
<path d="M112.699 -28.4725L54.0193 -2.25293L6.67403 -107.986L56.0388 -130.046L26.9716 -53.9291L-12.0818 -36.4768L29.397 56.1587L89.2703 29.3958L112.699 -28.4725Z" stroke="#7191E6" stroke-width="0.140442" stroke-miterlimit="10"/>
<path d="M114.492 -27.7491L55.7652 -1.98768L9.2589 -107.821L58.6664 -129.485L29.1313 -53.7434L-9.95702 -36.5977L30.7881 56.117L90.7194 29.8343L114.492 -27.7491Z" stroke="#7191E6" stroke-width="0.140442" stroke-miterlimit="10"/>
<path d="M116.29 -27.0181L57.5097 -1.72949L11.8462 -107.655L61.2981 -128.93L31.2971 -53.55L-7.82244 -36.7221L32.1797 56.0812L92.1635 30.2769L116.29 -27.0181Z" stroke="#7191E6" stroke-width="0.140442" stroke-miterlimit="10"/>
<path d="M118.087 -26.2872L59.2559 -1.46412L14.4296 -107.484L63.926 -128.37L33.4626 -53.3624L-5.69733 -36.8429L33.5767 56.0414L93.6073 30.7137L118.087 -26.2872Z" stroke="#7191E6" stroke-width="0.140442" stroke-miterlimit="10"/>
<path d="M119.886 -25.5624L60.9965 -1.20106L17.0147 -107.319L66.554 -127.809L35.6226 -53.1771L-3.56664 -36.9624L34.9663 56.0049L95.051 31.15L119.886 -25.5624Z" stroke="#7191E6" stroke-width="0.140442" stroke-miterlimit="10"/>
<path d="M121.684 -24.8315L62.7409 -0.943026L19.6001 -107.149L69.1838 -127.249L37.7883 -52.9839L-1.43955 -37.0832L36.3596 55.9634L96.5023 31.5887L121.684 -24.8315Z" stroke="#7191E6" stroke-width="0.140442" stroke-miterlimit="10"/>
<path d="M123.481 -24.1007L64.4871 -0.677656L22.1853 -106.983L71.8117 -126.688L39.9538 -52.7962L0.69293 -37.2077L37.7492 55.9273L97.9462 32.0255L123.481 -24.1007Z" stroke="#7191E6" stroke-width="0.140442" stroke-miterlimit="10"/>
<path d="M125.279 -23.3757L66.2278 -0.414413L24.7706 -106.818L74.4472 -126.132L42.1139 -52.6107L2.81818 -37.3288L39.1389 55.891L99.3901 32.462L125.279 -23.3757Z" stroke="#7191E6" stroke-width="0.140442" stroke-miterlimit="10"/>
<path d="M127.072 -22.6463L67.9775 -0.154224L27.3556 -106.647L77.0767 -125.571L44.2793 -52.4172L4.94498 -37.4493L40.532 55.8497L100.841 32.901L127.072 -22.6463Z" stroke="#7191E6" stroke-width="0.140442" stroke-miterlimit="10"/>
<path d="M128.992 -21.8759L69.8411 0.148885L30.0638 -106.442L79.8276 -124.97L46.5679 -52.19L7.19867 -37.5287L42.0502 55.8551L102.408 33.3774L128.992 -21.8759Z" stroke="#7191E6" stroke-width="0.140442" stroke-miterlimit="10"/>
<path d="M131.042 -21.0686L71.8337 0.494473L32.8992 -106.189L82.7075 -124.328L48.9798 -51.9222L9.57755 -37.573L43.688 55.8937L104.104 33.8963L131.042 -21.0686Z" stroke="#7191E6" stroke-width="0.140442" stroke-miterlimit="10"/>
<path d="M133.089 -20.2557L73.8317 0.836311L35.7343 -105.942L85.5854 -123.685L51.3935 -51.6469L11.9527 -37.6118L45.3276 55.9397L105.797 34.4151L133.089 -20.2557Z" stroke="#7191E6" stroke-width="0.140442" stroke-miterlimit="10"/>
<path d="M135.13 -19.4446L75.8221 1.18196L38.5675 -105.689L88.465 -123.048L53.8033 -51.3791L14.3332 -37.6487L46.9688 55.9802L107.491 34.934L135.13 -19.4446Z" stroke="#7191E6" stroke-width="0.140442" stroke-miterlimit="10"/>
<path d="M137.18 -18.6377L77.8147 1.52707L41.3991 -105.444L91.3448 -122.406L56.2208 -51.1099L16.7103 -37.6879L48.6104 56.0258L109.187 35.4524L137.18 -18.6377Z" stroke="#7191E6" stroke-width="0.140442" stroke-miterlimit="10"/>
<path d="M139.227 -17.8248L79.8072 1.86709L44.2343 -105.196L94.2227 -121.763L58.629 -50.8365L19.0872 -37.7323L50.2499 56.0717L110.881 35.9712L139.227 -17.8248Z" stroke="#7191E6" stroke-width="0.140442" stroke-miterlimit="10"/>
<path d="M141.27 -17.0139L81.7995 2.21256L47.0693 -104.944L97.1023 -121.121L61.0462 -50.5669L21.464 -37.7712L51.893 56.1121L112.576 36.49L141.27 -17.0139Z" stroke="#7191E6" stroke-width="0.140442" stroke-miterlimit="10"/>
<path d="M143.318 -16.2065L83.7956 2.55997L49.9045 -104.696L99.9746 -120.48L63.4562 -50.2991L23.8391 -37.81L53.5326 56.1581L114.27 37.0088L143.318 -16.2065Z" stroke="#7191E6" stroke-width="0.140442" stroke-miterlimit="10"/>
<path d="M145.367 -15.3941L85.79 2.89951L52.7398 -104.444L102.854 -119.838L65.8718 -50.0244L26.2217 -37.8474L55.1759 56.1981L115.966 37.5272L145.367 -15.3941Z" stroke="#7191E6" stroke-width="0.140442" stroke-miterlimit="10"/>
<path d="M147.41 -14.583L87.7824 3.24515L55.5712 -104.198L105.736 -119.201L68.2836 -49.7565L28.5986 -37.8861L56.8173 56.2441L117.661 38.0461L147.41 -14.583Z" stroke="#7191E6" stroke-width="0.140442" stroke-miterlimit="10"/>
<path d="M149.458 -13.7757L89.773 3.59075L58.4064 -103.951L108.614 -118.558L70.6991 -49.4868L30.9755 -37.9304L58.4587 56.2845L119.361 38.5668L149.458 -13.7757Z" stroke="#7191E6" stroke-width="0.140442" stroke-miterlimit="10"/>
<path d="M151.501 -12.9648L91.7653 3.93618L61.2414 -103.698L111.493 -117.915L73.1089 -49.2136L33.3523 -37.9694L60.0999 56.3304L121.056 39.0855L151.501 -12.9648Z" stroke="#7191E6" stroke-width="0.140442" stroke-miterlimit="10"/>
<path d="M153.548 -12.1519L93.7633 4.27805L64.0766 -103.451L114.371 -117.273L75.5245 -48.9439L35.733 -38.0063L61.7413 56.3709L122.75 39.6044L153.548 -12.1519Z" stroke="#7191E6" stroke-width="0.140442" stroke-miterlimit="10"/>
<path d="M155.596 -11.345L95.7539 4.62316L66.9044 -103.2L117.249 -116.631L77.9345 -48.6765L38.1081 -38.0456L63.3809 56.4164L124.444 40.1227L155.596 -11.345Z" stroke="#7191E6" stroke-width="0.140442" stroke-miterlimit="10"/>
<path d="M157.639 -10.5339L97.7463 4.96879L69.7414 -102.953L120.131 -115.993L80.3444 -48.4031L40.4868 -38.0899L65.0223 56.4624L126.137 40.6472L157.639 -10.5339Z" stroke="#7191E6" stroke-width="0.140442" stroke-miterlimit="10"/>
<path d="M159.686 -9.72103L99.7388 5.30882L72.5766 -102.705L123.009 -115.351L82.76 -48.1334L42.862 -38.1286L66.6637 56.5029L127.831 41.166L159.686 -9.72103Z" stroke="#7191E6" stroke-width="0.140442" stroke-miterlimit="10"/>
<path d="M161.736 -8.91417L101.731 5.65394L75.4119 -102.453L125.889 -114.709L85.1719 -47.8661L45.239 -38.1679L68.3052 56.5484L129.527 41.6844L161.736 -8.91417Z" stroke="#7191E6" stroke-width="0.140442" stroke-miterlimit="10"/>
<path d="M163.777 -8.10323L103.727 6.00121L78.2468 -102.206L128.766 -114.066L87.5853 -47.591L47.6194 -38.205L69.9463 56.5887L131.22 42.2031L163.777 -8.10323Z" stroke="#7191E6" stroke-width="0.140442" stroke-miterlimit="10"/>
<path d="M165.825 -7.29036L105.722 6.34122L81.0765 -101.955L131.646 -113.423L89.9973 -47.3231L49.9983 -38.2493L71.5823 56.6329L132.916 42.722L165.825 -7.29036Z" stroke="#7191E6" stroke-width="0.140442" stroke-miterlimit="10"/>
<path d="M167.874 -6.48332L107.712 6.68652L83.9118 -101.708L134.52 -112.789L92.4129 -47.0538L52.3735 -38.2884L73.2238 56.6731L134.61 43.2406L167.874 -6.48332Z" stroke="#7191E6" stroke-width="0.140442" stroke-miterlimit="10"/>
<path d="M169.917 -5.6724L109.705 7.03196L86.7487 -101.46L137.4 -112.146L94.8227 -46.7805L54.7503 -38.3273L74.8651 56.7189L136.306 43.7593L169.917 -5.6724Z" stroke="#7191E6" stroke-width="0.140442" stroke-miterlimit="10"/>
<path d="M171.963 -4.85951L111.703 7.37384L89.5821 -101.207L140.278 -111.503L97.2383 -46.5109L57.131 -38.3642L76.5047 56.7649L137.999 44.2781L171.963 -4.85951Z" stroke="#7191E6" stroke-width="0.140442" stroke-miterlimit="10"/>
<path d="M174.014 -4.05218L113.695 7.71941L92.4192 -100.96L143.158 -110.861L99.6502 -46.243L59.5099 -38.4086L78.148 56.8054L139.695 44.797L174.014 -4.05218Z" stroke="#7191E6" stroke-width="0.140442" stroke-miterlimit="10"/>
<path d="M176.055 -3.24124L115.686 8.06487L95.2467 -100.709L146.035 -110.218L102.064 -45.9679L61.8847 -38.4475L79.7873 56.8512L141.389 45.3157L176.055 -3.24124Z" stroke="#7191E6" stroke-width="0.140442" stroke-miterlimit="10"/>
<path d="M178.103 -2.42836L117.68 8.4049L98.0838 -100.462L148.915 -109.576L104.476 -45.7001L64.2618 -38.4863L81.4307 56.8917L143.084 45.8345L178.103 -2.42836Z" stroke="#7191E6" stroke-width="0.140442" stroke-miterlimit="10"/>
<path d="M180.146 -1.62328L119.67 8.75005L100.919 -100.215L151.795 -108.939L106.889 -45.4253L66.6367 -38.5255L83.0701 56.9372L144.778 46.353L180.146 -1.62328Z" stroke="#7191E6" stroke-width="0.140442" stroke-miterlimit="10"/>
<path d="M182.195 -0.810389L121.668 9.09747L103.754 -99.962L154.674 -108.296L109.301 -45.1575L69.0211 -38.568L84.7134 56.9777L146.474 46.8718L182.195 -0.810389Z" stroke="#7191E6" stroke-width="0.140442" stroke-miterlimit="10"/>
<path d="M184.241 0.00250868L123.661 9.43752L106.589 -99.7146L157.552 -107.654L111.717 -44.8878L71.3963 -38.6067L86.353 57.0237L148.167 47.3907L184.241 0.00250868Z" stroke="#7191E6" stroke-width="0.140442" stroke-miterlimit="10"/>
<path d="M186.286 0.807877L125.653 9.78295L109.419 -99.4636L160.432 -107.011L114.126 -44.6145L73.7731 -38.6456L87.9942 57.0696L149.868 47.9112L186.286 0.807877Z" stroke="#7191E6" stroke-width="0.140442" stroke-miterlimit="10"/>
<path d="M188.332 1.62028L127.644 10.1281L112.254 -99.2168L163.31 -106.369L116.542 -44.3454L76.1482 -38.6849L89.6357 57.1095L151.562 48.4296L188.332 1.62028Z" stroke="#7191E6" stroke-width="0.140442" stroke-miterlimit="10"/>
<path d="M190.381 2.43335L129.638 10.4683L115.091 -98.9692L166.192 -105.732L118.954 -44.0773L78.5327 -38.7272L91.2773 57.1557L153.258 48.9486L190.381 2.43335Z" stroke="#7191E6" stroke-width="0.140442" stroke-miterlimit="10"/>
<path d="M192.422 3.24428L131.634 10.8156L117.924 -98.7164L169.064 -105.091L121.362 -43.8041L80.9075 -38.7661L92.9184 57.1961L154.952 49.4674L192.422 3.24428Z" stroke="#7191E6" stroke-width="0.140442" stroke-miterlimit="10"/>
<path d="M194.472 4.05163L133.627 11.1612L120.756 -98.4709L171.944 -104.448L123.779 -43.5344L83.2846 -38.8049L94.56 57.2421L156.647 49.9862L194.472 4.05163Z" stroke="#7191E6" stroke-width="0.140442" stroke-miterlimit="10"/>
<path d="M196.519 4.86403L135.617 11.5063L123.589 -98.2185L174.821 -103.806L126.189 -43.267L85.6597 -38.8442L96.2014 57.282L158.341 50.5046L196.519 4.86403Z" stroke="#7191E6" stroke-width="0.140442" stroke-miterlimit="10"/>
<path d="M198.562 5.67496L137.611 11.8461L126.426 -97.9713L177.701 -103.164L128.605 -42.992L88.0383 -38.8886L97.837 57.3261L160.037 51.0233L198.562 5.67496Z" stroke="#7191E6" stroke-width="0.140442" stroke-miterlimit="10"/>
<path d="M200.61 6.48246L139.602 12.1919L129.26 -97.7182L180.581 -102.526L131.015 -42.7239L90.4191 -38.9254L99.4786 57.3667L161.729 51.5479L200.61 6.48246Z" stroke="#7191E6" stroke-width="0.140442" stroke-miterlimit="10"/>
<path d="M202.653 7.29342L141.6 12.5392L132.096 -97.4709L183.46 -101.884L133.432 -42.4544L92.7959 -38.9643L101.12 57.4126L163.424 52.0666L202.653 7.29342Z" stroke="#7191E6" stroke-width="0.140442" stroke-miterlimit="10"/>
<path d="M204.7 8.10581L143.593 12.8787L134.926 -97.2259L186.338 -101.242L135.84 -42.1815L95.171 -39.0036L102.759 57.4581L165.118 52.585L204.7 8.10581Z" stroke="#7191E6" stroke-width="0.140442" stroke-miterlimit="10"/>
<path d="M206.75 8.91314L145.585 13.2243L137.761 -96.973L189.218 -100.599L138.258 -41.9118L97.5481 -39.0423L104.403 57.4985L166.814 53.1039L206.75 8.91314Z" stroke="#7191E6" stroke-width="0.140442" stroke-miterlimit="10"/>
<path d="M208.791 9.72407L147.575 13.5698L140.596 -96.7257L192.096 -99.9565L140.667 -41.6441L99.9247 -39.0868L106.042 57.5444L168.507 53.6226L208.791 9.72407Z" stroke="#7191E6" stroke-width="0.140442" stroke-miterlimit="10"/>
<path d="M210.84 10.5366L149.57 13.9095L143.432 -96.4731L194.978 -99.3197L143.083 -41.3692L102.308 -39.1241L107.686 57.5845L170.203 54.1411L210.84 10.5366Z" stroke="#7191E6" stroke-width="0.140442" stroke-miterlimit="10"/>
<path d="M212.888 11.344L151.566 14.2569L146.267 -96.2258L197.856 -98.6771L145.493 -41.1014L104.683 -39.1628L109.325 57.6306L171.897 54.66L212.888 11.344Z" stroke="#7191E6" stroke-width="0.140442" stroke-miterlimit="10"/>
<path d="M214.931 12.1549L153.558 14.6024L149.098 -95.9804L200.735 -98.0346L147.91 -40.8318L107.059 -39.2017L110.968 57.6709L173.592 55.1787L214.931 12.1549Z" stroke="#7191E6" stroke-width="0.140442" stroke-miterlimit="10"/>
<path d="M216.978 12.9678L155.551 14.9424L151.932 -95.7275L203.607 -97.3937L150.318 -40.5584L109.436 -39.2461L112.608 57.7169L175.286 55.6976L216.978 12.9678Z" stroke="#7191E6" stroke-width="0.140442" stroke-miterlimit="10"/>
<path d="M219.026 13.7752L157.541 15.288L154.767 -95.4801L206.485 -96.7511L152.734 -40.2888L111.817 -39.283L114.247 57.7629L176.98 56.2164L219.026 13.7752Z" stroke="#7191E6" stroke-width="0.140442" stroke-miterlimit="10"/>
<path d="M221.069 14.5861L159.534 15.6335L157.602 -95.2273L209.365 -96.1086L155.146 -40.0211L114.194 -39.3219L115.89 57.8032L178.681 56.737L221.069 14.5861Z" stroke="#7191E6" stroke-width="0.140442" stroke-miterlimit="10"/>
<path d="M223.116 15.3987L161.532 15.975L160.437 -94.9802L212.245 -95.4718L157.559 -39.7462L116.569 -39.361L117.53 57.8489L180.375 57.2555L223.116 15.3987Z" stroke="#7191E6" stroke-width="0.140442" stroke-miterlimit="10"/>
<path d="M225.166 16.206L163.524 16.3206L163.269 -94.7347L215.125 -94.8291L159.971 -39.4783L118.948 -39.4053L119.173 57.8894L182.071 57.7744L225.166 16.206Z" stroke="#7191E6" stroke-width="0.140442" stroke-miterlimit="10"/>
<path d="M227.209 17.0169L165.517 16.666L166.104 -94.4819L218.004 -94.1866L162.383 -39.2106L121.325 -39.4442L120.815 57.9352L183.766 58.2931L227.209 17.0169Z" stroke="#7191E6" stroke-width="0.140442" stroke-miterlimit="10"/>
<path d="M229.255 17.8293L167.509 17.0056L168.939 -94.2351L220.882 -93.5445L164.797 -38.9359L123.705 -39.4817L122.456 57.9752L185.46 58.8115L229.255 17.8293Z" stroke="#7191E6" stroke-width="0.140442" stroke-miterlimit="10"/>
<path d="M231.298 18.6347L169.499 17.3511L171.772 -93.9823L223.76 -92.9019L167.206 -38.6682L126.08 -39.5206L124.09 58.0192L187.153 59.3302L231.298 18.6347Z" stroke="#7191E6" stroke-width="0.140442" stroke-miterlimit="10"/>
<path d="M233.347 19.4478L171.498 17.6987L174.604 -93.7366L226.641 -92.2647L169.624 -38.3983L128.459 -39.5647L125.731 58.0654L188.849 59.8492L233.347 19.4478Z" stroke="#7191E6" stroke-width="0.140442" stroke-miterlimit="10"/>
<path d="M235.393 20.2607L173.49 18.0387L177.439 -93.4892L229.519 -91.622L172.032 -38.1249L130.834 -39.6035L127.373 58.1059L190.543 60.3681L235.393 20.2607Z" stroke="#7191E6" stroke-width="0.140442" stroke-miterlimit="10"/>
<path d="M237.438 21.066L175.482 18.3841L180.274 -93.2364L232.399 -90.9795L174.449 -37.8554L133.217 -39.6406L129.014 58.1517L192.238 60.8868L237.438 21.066Z" stroke="#7191E6" stroke-width="0.140442" stroke-miterlimit="10"/>
<path d="M239.485 21.8785L177.473 18.7293L183.109 -92.9895L235.277 -90.3373L176.859 -37.588L135.592 -39.6798L130.656 58.1917L193.932 61.4052L239.485 21.8785Z" stroke="#7191E6" stroke-width="0.140442" stroke-miterlimit="10"/>
<path d="M241.533 22.6913L179.473 19.0711L185.944 -92.7366L238.157 -89.6947L179.275 -37.3128L137.971 -39.7242L132.297 58.2377L195.628 61.924L241.533 22.6913Z" stroke="#7191E6" stroke-width="0.140442" stroke-miterlimit="10"/>
<path d="M243.576 23.4969L181.463 19.4167L188.774 -92.491L241.031 -89.0594L181.685 -37.0449L140.346 -39.7629L133.938 58.2782L197.322 62.443L243.576 23.4969Z" stroke="#7191E6" stroke-width="0.140442" stroke-miterlimit="10"/>
<path d="M245.625 24.3093L183.456 19.7618L191.611 -92.2442L243.911 -88.4172L184.102 -36.7757L142.723 -39.8022L135.58 58.3237L199.016 62.9669L245.625 24.3093Z" stroke="#7191E6" stroke-width="0.140442" stroke-miterlimit="10"/>
<path d="M247.671 25.1222L185.447 20.1074L194.444 -91.9913L246.788 -87.7746L186.511 -36.5024L145.103 -39.8391L137.219 58.3697L200.709 63.4857L247.671 25.1222Z" stroke="#7191E6" stroke-width="0.140442" stroke-miterlimit="10"/>
<path d="M249.716 25.9276L187.441 20.4473L197.281 -91.744L249.668 -87.132L188.928 -36.2328L147.482 -39.8836L138.862 58.41L202.405 64.0044L249.716 25.9276Z" stroke="#7191E6" stroke-width="0.140442" stroke-miterlimit="10"/>
<path d="M251.762 26.7405L189.437 20.7947L200.115 -91.4911L252.546 -86.4894L191.338 -35.965L149.857 -39.9223L140.502 58.456L204.099 64.5233L251.762 26.7405Z" stroke="#7191E6" stroke-width="0.140442" stroke-miterlimit="10"/>
<path d="M253.811 27.5534L191.429 21.1403L202.946 -91.2456L255.426 -85.8467L193.753 -35.6898L152.234 -39.9611L142.145 58.4965L205.794 65.0422L253.811 27.5534Z" stroke="#7191E6" stroke-width="0.140442" stroke-miterlimit="10"/>
<path d="M255.854 28.3584L193.422 21.4799L205.781 -90.9987L258.305 -85.2101L196.163 -35.4224L154.615 -39.9985L143.785 58.5421L207.488 65.5606L255.854 28.3584Z" stroke="#7191E6" stroke-width="0.140442" stroke-miterlimit="10"/>
<path d="M257.902 29.1713L195.414 21.8255L208.616 -90.7457L261.185 -84.5674L198.581 -35.1527L156.994 -40.0428L145.428 58.5825L209.189 66.0813L257.902 29.1713Z" stroke="#7191E6" stroke-width="0.140442" stroke-miterlimit="10"/>
<path d="M259.943 29.9823L197.405 22.171L211.451 -90.4985L264.063 -83.9249L200.989 -34.8794L159.368 -40.0817L147.067 58.6284L210.883 66.6L259.943 29.9823Z" stroke="#7191E6" stroke-width="0.140442" stroke-miterlimit="10"/>
<path d="M261.994 30.7896L199.405 22.5128L214.287 -90.2456L266.943 -83.2823L203.406 -34.6098L161.745 -40.1205L148.711 58.6689L212.579 67.1189L261.994 30.7896Z" stroke="#7191E6" stroke-width="0.140442" stroke-miterlimit="10"/>
<path d="M264.04 31.602L201.395 22.8579L217.116 -90.0006L269.821 -82.6401L205.816 -34.3424L164.121 -40.1598L150.35 58.7143L214.272 67.6372L264.04 31.602Z" stroke="#7191E6" stroke-width="0.140442" stroke-miterlimit="10"/>
<path d="M266.083 32.4131L203.388 23.2036L219.953 -89.7531L272.702 -82.003L208.226 -34.0689L166.503 -40.1967L151.986 58.7586L215.968 68.1561L266.083 32.4131Z" stroke="#7191E6" stroke-width="0.140442" stroke-miterlimit="10"/>
<path d="M268.132 33.2204L205.38 23.5436L222.787 -89.5002L275.574 -81.3621L210.642 -33.7993L168.88 -40.241L153.628 58.7991L217.662 68.675L268.132 33.2204Z" stroke="#7191E6" stroke-width="0.140442" stroke-miterlimit="10"/>
<path d="M270.18 34.0328L207.373 23.8887L225.624 -89.2534L278.454 -80.72L213.053 -33.5319L171.257 -40.2803L155.269 58.8446L219.357 69.1933L270.18 34.0328Z" stroke="#7191E6" stroke-width="0.140442" stroke-miterlimit="10"/>
<path d="M272.221 34.8438L209.369 24.236L228.451 -89.0024L281.332 -80.0775L215.467 -33.2569L173.632 -40.3192L156.91 58.8849L221.051 69.7121L272.221 34.8438Z" stroke="#7191E6" stroke-width="0.140442" stroke-miterlimit="10"/>
<path d="M274.271 35.6511L211.363 24.576L231.288 -88.755L284.212 -79.4348L217.879 -32.989L176.009 -40.3579L158.552 58.9309L222.747 70.2309L274.271 35.6511Z" stroke="#7191E6" stroke-width="0.140442" stroke-miterlimit="10"/>
<path d="M276.318 36.4642L213.354 24.9218L234.122 -88.5019L287.092 -78.7975L220.294 -32.7192L178.391 -40.4003L160.193 58.9715L224.441 70.75L276.318 36.4642Z" stroke="#7191E6" stroke-width="0.140442" stroke-miterlimit="10"/>
<path d="M278.361 37.2751L215.346 25.2672L236.959 -88.2547L289.971 -78.155L222.704 -32.4459L180.768 -40.4392L161.835 59.0174L226.136 71.2687L278.361 37.2751Z" stroke="#7191E6" stroke-width="0.140442" stroke-miterlimit="10"/>
<path d="M280.409 38.082L217.338 25.6068L239.794 -88.0078L292.849 -77.5129L225.12 -32.1767L183.143 -40.4784L163.474 59.0629L227.83 71.7871L280.409 38.082Z" stroke="#7191E6" stroke-width="0.140442" stroke-miterlimit="10"/>
<path d="M282.458 38.8948L219.337 25.9542L242.624 -87.7567L295.729 -76.8702L227.532 -31.9089L185.52 -40.5172L165.118 59.1033L229.526 72.3059L282.458 38.8948Z" stroke="#7191E6" stroke-width="0.140442" stroke-miterlimit="10"/>
<path d="M284.499 39.7058L221.327 26.2997L245.459 -87.5095L298.606 -76.2277L229.945 -31.6338L187.903 -40.5598L166.757 59.1493L231.219 72.8247L284.499 39.7058Z" stroke="#7191E6" stroke-width="0.140442" stroke-miterlimit="10"/>
<path d="M286.549 40.5131L223.321 26.6397L248.294 -87.2566L301.486 -75.5851L232.357 -31.366L190.28 -40.5986L168.4 59.1897L232.915 73.3435L286.549 40.5131Z" stroke="#7191E6" stroke-width="0.140442" stroke-miterlimit="10"/>
<path d="M288.59 41.3237L225.312 26.9848L251.129 -87.0097L304.366 -74.9484L234.772 -31.0967L192.655 -40.6378L170.04 59.2352L234.607 73.8675L288.59 41.3237Z" stroke="#7191E6" stroke-width="0.140442" stroke-miterlimit="10"/>
<path d="M290.639 42.1366L227.304 27.3304L253.966 -86.7623L307.246 -74.3057L237.183 -30.8233L195.032 -40.6766L171.683 59.2757L236.302 74.3863L290.639 42.1366Z" stroke="#7191E6" stroke-width="0.140442" stroke-miterlimit="10"/>
<path d="M292.687 42.944L229.3 27.6778L256.794 -86.5112L310.118 -73.6649L239.598 -30.5537L197.409 -40.7209L173.322 59.3217L238.002 74.907L292.687 42.944Z" stroke="#7191E6" stroke-width="0.140442" stroke-miterlimit="10"/>
<path d="M294.73 43.7549L231.295 28.0177L259.631 -86.264L312.998 -73.0224L242.01 -30.286L199.791 -40.758L174.964 59.3676L239.697 75.4257L294.73 43.7549Z" stroke="#7191E6" stroke-width="0.140442" stroke-miterlimit="10"/>
<path d="M295.617 45.9277L232.176 30.1888L260.517 -84.0911L313.884 -70.8496L242.896 -28.1131L200.672 -38.587L175.847 61.5331L240.58 77.5912L295.617 45.9277Z" stroke="#7191E6" stroke-width="0.140442" stroke-miterlimit="10"/>
<path d="M296.506 48.1003L233.064 32.3613L261.401 -81.9204L314.775 -68.6826L243.78 -25.9424L201.561 -36.4144L176.736 63.7056L241.469 79.7637L296.506 48.1003Z" stroke="#7191E6" stroke-width="0.140442" stroke-miterlimit="10"/>
<path d="M297.386 50.2717L233.951 34.5345L262.287 -79.7472L315.656 -66.5112L244.666 -23.7692L202.442 -34.2431L177.616 65.877L242.35 81.9351L297.386 50.2717Z" stroke="#7191E6" stroke-width="0.140442" stroke-miterlimit="10"/>
<path d="M298.277 52.439L234.836 36.7L263.178 -77.5799L316.544 -64.3383L245.549 -21.5981L203.332 -32.0758L178.505 68.0498L243.239 84.108L298.277 52.439Z" stroke="#7191E6" stroke-width="0.140442" stroke-miterlimit="10"/>
<path d="M299.158 54.6099L235.722 38.8727L264.058 -75.409L317.425 -62.1674L246.437 -19.431L204.219 -29.903L179.391 70.2225L244.125 86.2807L299.158 54.6099Z" stroke="#7191E6" stroke-width="0.140442" stroke-miterlimit="10"/>
<path d="M300.046 56.7827L236.611 41.0456L264.947 -73.2362L318.314 -59.9946L247.326 -17.2581L205.102 -27.732L180.276 72.388L245.008 88.4517L300.046 56.7827Z" stroke="#7191E6" stroke-width="0.140442" stroke-miterlimit="10"/>
<path d="M300.933 58.9558L237.492 43.2168L265.828 -71.065L319.203 -57.8271L248.207 -15.0869L205.989 -25.559L181.163 74.5611L245.897 90.6192L300.933 58.9558Z" stroke="#7191E6" stroke-width="0.140442" stroke-miterlimit="10"/>
<path d="M301.816 61.1267L238.381 45.3895L266.717 -68.8922L320.086 -55.6562L249.096 -12.9142L206.872 -23.3881L182.046 76.732L246.78 92.7901L301.816 61.1267Z" stroke="#7191E6" stroke-width="0.140442" stroke-miterlimit="10"/>
<path d="M302.705 63.294L239.264 47.555L267.605 -66.7249L320.972 -53.4833L249.977 -10.7432L207.76 -21.2208L182.933 78.9048L247.666 94.9629L302.705 63.294Z" stroke="#7191E6" stroke-width="0.140442" stroke-miterlimit="10"/>
<path d="M303.587 65.4649L240.152 49.7277L268.488 -64.554L321.855 -51.3124L250.867 -8.57599L208.648 -19.048L183.821 81.0775L248.555 97.1357L303.587 65.4649Z" stroke="#7191E6" stroke-width="0.140442" stroke-miterlimit="10"/>
<path d="M304.476 67.6377L241.041 51.9005L269.377 -62.3812L322.744 -49.1396L251.756 -6.40313L209.532 -16.877L184.706 83.243L249.438 99.3067L304.476 67.6377Z" stroke="#7191E6" stroke-width="0.140442" stroke-miterlimit="10"/>
<path d="M305.363 69.8107L241.922 54.0718L270.258 -60.21L323.632 -46.9721L252.637 -4.23193L210.418 -14.704L185.593 85.416L250.326 101.474L305.363 69.8107Z" stroke="#7191E6" stroke-width="0.140442" stroke-miterlimit="10"/>
<path d="M306.246 71.9816L242.81 56.2445L271.146 -58.0373L324.515 -44.8012L253.526 -2.05921L211.307 -12.5313L186.476 87.5869L251.209 103.645L306.246 71.9816Z" stroke="#7191E6" stroke-width="0.140442" stroke-miterlimit="10"/>
<path d="M307.134 74.1489L243.691 58.4155L272.033 -55.8644L325.402 -42.6284L254.407 0.111821L212.19 -10.3658L187.362 89.7598L252.096 105.818L307.134 74.1489Z" stroke="#7191E6" stroke-width="0.140442" stroke-miterlimit="10"/>
<path d="M308.017 76.3198L244.582 60.5827L272.918 -53.6991L326.285 -40.4575L255.295 2.28454L213.078 -8.19307L188.251 91.9325L252.984 107.991L308.017 76.3198Z" stroke="#7191E6" stroke-width="0.140442" stroke-miterlimit="10"/>
<path d="M308.904 78.4927L245.468 62.7555L273.805 -51.5262L327.171 -38.2846L256.184 4.45184L213.959 -6.02205L189.134 94.098L253.865 110.162L308.904 78.4927Z" stroke="#7191E6" stroke-width="0.140442" stroke-miterlimit="10"/>
<path d="M309.793 80.6655L246.351 64.9266L274.688 -49.3552L328.06 -36.1118L257.067 6.62287L214.848 -3.8492L190.023 96.2708L254.756 112.329L309.793 80.6655Z" stroke="#7191E6" stroke-width="0.140442" stroke-miterlimit="10"/>
<path d="M310.674 82.8366L247.238 67.0995L275.574 -47.1823L328.943 -33.9462L257.953 8.79576L215.734 -1.67629L190.904 98.4419L255.637 114.5L310.674 82.8366Z" stroke="#7191E6" stroke-width="0.140442" stroke-miterlimit="10"/>
<path d="M311.562 85.0095L248.121 69.2705L276.463 -45.0094L329.832 -31.7734L258.842 10.9686L216.618 0.49474L191.792 100.615L256.526 116.673L311.562 85.0095Z" stroke="#7191E6" stroke-width="0.140442" stroke-miterlimit="10"/>
<path d="M312.447 87.1753L249.011 71.4381L277.348 -42.8436L330.714 -29.602L259.725 13.14L217.508 2.6624L192.681 102.788L257.414 118.846L312.447 87.1753Z" stroke="#7191E6" stroke-width="0.140442" stroke-miterlimit="10"/>
<path d="M313.334 89.3482L249.898 73.611L278.234 -40.6707L331.601 -27.4291L260.613 15.3073L218.389 4.83343L193.562 104.959L258.295 121.017L313.334 89.3482Z" stroke="#7191E6" stroke-width="0.140442" stroke-miterlimit="10"/>
<path d="M314.222 91.521L250.781 75.782L279.117 -38.4997L332.49 -25.2563L261.496 17.4783L219.278 7.00628L194.452 107.126L259.186 123.184L314.222 91.521Z" stroke="#7191E6" stroke-width="0.140442" stroke-miterlimit="10"/>
<path d="M315.103 93.6921L251.668 77.9549L280.004 -36.3268L333.373 -23.0908L262.383 19.6512L220.164 9.17918L195.333 109.297L260.067 125.356L315.103 93.6921Z" stroke="#7191E6" stroke-width="0.140442" stroke-miterlimit="10"/>
<path d="M315.992 95.8649L252.551 80.126L280.893 -34.154L334.261 -20.9179L263.272 21.8241L221.047 11.3502L196.222 111.47L260.955 127.528L315.992 95.8649Z" stroke="#7191E6" stroke-width="0.140442" stroke-miterlimit="10"/>
<path d="M316.875 98.0303L253.439 82.2931L281.775 -31.9886L335.142 -18.747L264.152 23.995L221.936 13.5174L197.108 113.643L261.842 129.701L316.875 98.0303Z" stroke="#7191E6" stroke-width="0.140442" stroke-miterlimit="10"/>
<path d="M317.763 100.203L254.328 84.466L282.664 -29.8158L336.031 -16.5742L265.043 26.1623L222.819 15.6884L197.991 115.814L262.725 131.872L317.763 100.203Z" stroke="#7191E6" stroke-width="0.140442" stroke-miterlimit="10"/>
<path d="M318.65 102.376L255.209 86.637L283.545 -27.6447L336.918 -14.4013L265.924 28.3333L223.705 17.8613L198.88 117.981L263.612 134.045L318.65 102.376Z" stroke="#7191E6" stroke-width="0.140442" stroke-miterlimit="10"/>
<path d="M319.533 104.547L256.097 88.8099L284.434 -25.4718L337.802 -12.2358L266.813 30.5062L224.594 20.0342L199.763 120.152L264.496 136.211L319.533 104.547Z" stroke="#7191E6" stroke-width="0.140442" stroke-miterlimit="10"/>
<path d="M320.42 106.72L256.979 90.981L285.32 -23.299L338.689 -10.0629L267.699 32.6791L225.475 22.2052L200.65 122.325L265.383 138.383L320.42 106.72Z" stroke="#7191E6" stroke-width="0.140442" stroke-miterlimit="10"/>
<path d="M321.304 108.885L257.867 93.1537L286.205 -21.1336L339.572 -7.89204L268.582 34.85L226.365 24.3724L201.538 124.498L266.271 140.556L321.304 108.885Z" stroke="#7191E6" stroke-width="0.140442" stroke-miterlimit="10"/>
<path d="M322.193 111.058L258.757 95.321L287.094 -18.9608L340.461 -5.71918L269.473 37.0173L227.248 26.5434L202.421 126.669L267.155 142.727L322.193 111.058Z" stroke="#7191E6" stroke-width="0.140442" stroke-miterlimit="10"/>
<path d="M323.08 113.231L259.639 97.492L287.975 -16.7897L341.347 -3.54633L270.354 39.1883L228.135 28.7162L203.31 128.836L268.041 144.9L323.08 113.231Z" stroke="#7191E6" stroke-width="0.140442" stroke-miterlimit="10"/>
<path d="M323.963 115.402L260.527 99.6649L288.863 -14.6169L342.232 -1.3808L271.242 41.3612L229.024 30.8891L204.193 131.007L268.926 147.066L323.963 115.402Z" stroke="#7191E6" stroke-width="0.140442" stroke-miterlimit="10"/>
<path d="M324.849 117.575L261.408 101.836L289.75 -12.444L343.119 0.792047L272.129 43.5341L229.905 33.0602L205.079 133.18L269.813 149.238L324.849 117.575Z" stroke="#7191E6" stroke-width="0.140442" stroke-miterlimit="10"/>
<path d="M325.734 119.74L262.297 104.009L290.633 -10.2731L344.002 2.96294L273.012 45.7049L230.795 35.2273L205.968 135.353L270.701 151.411L325.734 119.74Z" stroke="#7191E6" stroke-width="0.140442" stroke-miterlimit="10"/>
<path d="M326.621 121.913L263.185 106.176L291.521 -8.1058L344.888 5.1358L273.899 47.8778L231.676 37.3984L206.849 137.524L271.582 153.582L326.621 121.913Z" stroke="#7191E6" stroke-width="0.140442" stroke-miterlimit="10"/>
<path d="M327.509 124.086L264.068 108.347L292.404 -5.93477L345.777 7.30865L274.784 50.0433L232.565 39.5712L207.739 139.691L272.471 155.755L327.509 124.086Z" stroke="#7191E6" stroke-width="0.140442" stroke-miterlimit="10"/>
<path d="M328.39 126.257L264.955 110.52L293.291 -3.76156L346.658 9.48004L275.67 52.2165L233.451 41.7444L208.62 141.863L273.354 157.921L328.39 126.257Z" stroke="#7191E6" stroke-width="0.140442" stroke-miterlimit="10"/>
<path d="M329.279 128.43L265.838 112.691L294.18 -1.58902L347.548 11.647L276.559 54.389L234.334 43.9151L209.509 144.035L274.242 160.093L329.279 128.43Z" stroke="#7191E6" stroke-width="0.140442" stroke-miterlimit="10"/>
<path d="M330.166 130.603L266.725 114.864L295.061 0.582009L348.43 13.8181L277.44 56.5601L235.221 46.088L210.396 146.208L275.129 162.266L330.166 130.603Z" stroke="#7191E6" stroke-width="0.140442" stroke-miterlimit="10"/>
<path d="M331.05 132.769L267.615 117.031L295.951 2.74967L349.318 15.9913L278.328 58.7333L236.106 48.2538L211.279 148.379L276.012 164.438L331.05 132.769Z" stroke="#7191E6" stroke-width="0.140442" stroke-miterlimit="10"/>
<path d="M331.939 134.941L268.498 119.202L296.834 4.9207L350.207 18.1641L279.213 60.8987L236.994 50.4267L212.167 150.552L276.901 166.61L331.939 134.941Z" stroke="#7191E6" stroke-width="0.140442" stroke-miterlimit="10"/>
<path d="M332.82 137.112L269.384 121.375L297.721 7.09342L351.087 20.335L280.1 63.0715L237.881 52.5994L213.05 152.718L277.782 168.781L332.82 137.112Z" stroke="#7191E6" stroke-width="0.140442" stroke-miterlimit="10"/>
<path d="M333.709 139.285L270.268 123.546L298.609 9.26597L351.978 22.502L280.988 65.244L238.764 54.7701L213.939 154.89L278.672 170.948L333.709 139.285Z" stroke="#7191E6" stroke-width="0.140442" stroke-miterlimit="10"/>
<path d="M334.595 141.458L271.154 125.719L299.491 11.437L352.865 24.6749L281.87 67.415L239.651 56.943L214.825 157.063L279.559 173.121L334.595 141.458Z" stroke="#7191E6" stroke-width="0.140442" stroke-miterlimit="10"/>
<path d="M335.48 143.624L272.045 127.886L300.381 13.6047L353.748 26.8462L282.758 69.5883L240.535 59.1088L215.708 159.234L280.442 175.293L335.48 143.624Z" stroke="#7191E6" stroke-width="0.140442" stroke-miterlimit="10"/>
<path d="M336.367 145.796L272.926 130.057L301.262 15.7757L354.634 29.0191L283.641 71.7537L241.422 61.2817L216.595 161.407L281.328 177.465L336.367 145.796Z" stroke="#7191E6" stroke-width="0.140442" stroke-miterlimit="10"/>
<path d="M337.25 147.967L273.814 132.23L302.15 17.9484L355.517 31.19L284.529 73.9264L242.311 63.4544L217.485 163.574L282.211 179.636L337.25 147.967Z" stroke="#7191E6" stroke-width="0.140442" stroke-miterlimit="10"/>
<path d="M338.136 150.14L274.695 134.401L303.037 20.1214L356.406 33.3575L285.416 76.0995L243.192 65.6256L218.366 165.746L283.1 181.804L338.136 150.14Z" stroke="#7191E6" stroke-width="0.140442" stroke-miterlimit="10"/>
<path d="M339.025 152.313L275.584 136.574L303.92 22.2925L357.294 35.5303L286.299 78.2705L244.081 67.7985L219.255 167.918L283.989 183.977L339.025 152.313Z" stroke="#7191E6" stroke-width="0.140442" stroke-miterlimit="10"/>
<path d="M339.91 154.479L276.472 138.747L304.81 24.4596L358.177 37.7012L287.188 80.4432L244.965 69.9638L220.138 170.089L284.871 186.148L339.91 154.479Z" stroke="#7191E6" stroke-width="0.140442" stroke-miterlimit="10"/>
<path d="M340.796 156.651L277.355 140.912L305.692 26.6307L359.064 39.8741L288.071 82.6087L245.852 72.1366L221.025 172.262L285.758 188.32L340.796 156.651Z" stroke="#7191E6" stroke-width="0.140442" stroke-miterlimit="10"/>
<path d="M341.679 158.822L278.244 143.085L306.58 28.8034L359.947 42.045L288.959 84.7814L246.74 74.3094L221.915 174.429L286.646 190.493L341.679 158.822Z" stroke="#7191E6" stroke-width="0.140442" stroke-miterlimit="10"/>
<path d="M342.566 160.995L279.125 145.256L307.467 30.9764L360.836 44.2125L289.846 86.9545L247.622 76.4806L222.796 176.601L287.53 192.659L342.566 160.995Z" stroke="#7191E6" stroke-width="0.140442" stroke-miterlimit="10"/>
<path d="M343.455 163.168L280.014 147.429L308.35 33.1474L361.724 46.3853L290.729 89.1255L248.51 78.6534L223.685 178.773L288.418 194.832L343.455 163.168Z" stroke="#7191E6" stroke-width="0.140442" stroke-miterlimit="10"/>
<path d="M344.336 165.339L280.9 149.602L309.236 35.3202L362.605 48.5562L291.615 91.2982L249.393 80.8188L224.566 180.944L289.299 197.003L344.336 165.339Z" stroke="#7191E6" stroke-width="0.140442" stroke-miterlimit="10"/>
<path d="M345.226 167.506L281.785 151.767L310.127 37.4875L363.494 50.7291L292.498 93.4692L250.282 82.9916L225.454 183.117L290.188 199.175L345.226 167.506Z" stroke="#7191E6" stroke-width="0.140442" stroke-miterlimit="10"/>
<path d="M346.107 169.678L282.671 153.941L311.008 39.6588L364.375 52.9004L293.387 95.6369L251.168 85.1648L226.341 185.29L291.074 201.349L346.107 169.678Z" stroke="#7191E6" stroke-width="0.140442" stroke-miterlimit="10"/>
<path d="M346.996 171.85L283.555 156.111L311.896 41.8312L365.263 55.0728L294.275 97.8093L252.051 87.3354L227.226 187.455L291.959 203.514L346.996 171.85Z" stroke="#7191E6" stroke-width="0.140442" stroke-miterlimit="10"/>
<path d="M347.885 174.023L284.443 158.284L312.78 44.0024L366.154 57.2403L295.159 99.9805L252.94 89.5084L228.114 189.628L292.848 205.687L347.885 174.023Z" stroke="#7191E6" stroke-width="0.140442" stroke-miterlimit="10"/>
<path d="M348.765 176.194L285.33 160.457L313.666 46.1751L367.035 59.4112L296.045 102.153L253.821 91.6793L228.995 191.799L293.729 207.857L348.765 176.194Z" stroke="#7191E6" stroke-width="0.140442" stroke-miterlimit="10"/>
<path d="M349.656 178.361L286.215 162.622L314.556 48.3424L367.923 61.584L296.928 104.324L254.711 93.8466L229.884 193.972L294.617 210.03L349.656 178.361Z" stroke="#7191E6" stroke-width="0.140442" stroke-miterlimit="10"/>
<path d="M350.537 180.533L287.101 164.796L315.437 50.5138L368.804 63.7554L297.816 106.492L255.598 96.0198L230.77 196.145L295.504 212.204L350.537 180.533Z" stroke="#7191E6" stroke-width="0.140442" stroke-miterlimit="10"/>
<path d="M351.425 182.706L287.984 166.967L316.326 52.6867L369.693 65.9283L298.705 108.665L256.481 98.1909L231.655 198.311L296.387 214.375L351.425 182.706Z" stroke="#7191E6" stroke-width="0.140442" stroke-miterlimit="10"/>
<path d="M352.312 184.878L288.871 169.139L317.207 54.8574L370.582 68.0953L299.586 110.835L257.368 100.363L232.542 200.483L297.276 216.542L352.312 184.878Z" stroke="#7191E6" stroke-width="0.140442" stroke-miterlimit="10"/>
<path d="M353.195 187.05L289.759 171.312L318.096 57.0306L371.464 70.2667L300.475 113.009L258.25 102.535L233.425 202.655L298.158 218.713L353.195 187.05Z" stroke="#7191E6" stroke-width="0.140442" stroke-miterlimit="10"/>
<path d="M354.084 189.217L290.642 173.478L318.984 59.1979L372.351 72.4395L301.356 115.18L259.139 104.702L234.312 204.828L299.045 220.886L354.084 189.217Z" stroke="#7191E6" stroke-width="0.140442" stroke-miterlimit="10"/>
<path d="M354.966 191.388L291.531 175.651L319.867 61.3688L373.234 74.6104L302.246 117.347L260.027 106.875L235.2 207L299.934 223.059L354.966 191.388Z" stroke="#7191E6" stroke-width="0.140442" stroke-miterlimit="10"/>
<path d="M355.853 193.561L292.412 177.822L320.754 63.5417L374.121 76.7833L303.133 119.52L260.908 109.046L236.083 209.166L300.815 225.23L355.853 193.561Z" stroke="#7191E6" stroke-width="0.140442" stroke-miterlimit="10"/>
<path d="M356.742 195.734L293.301 179.995L321.637 65.7129L375.011 78.9507L304.016 121.691L261.797 111.219L236.972 211.339L301.705 227.397L356.742 195.734Z" stroke="#7191E6" stroke-width="0.140442" stroke-miterlimit="10"/>
<path d="M357.625 197.904L294.189 182.167L322.525 67.8856L375.894 81.1216L304.904 123.864L262.68 113.39L237.855 213.51L302.588 229.568L357.625 197.904Z" stroke="#7191E6" stroke-width="0.140442" stroke-miterlimit="10"/>
<path d="M358.513 200.072L295.07 184.338L323.414 70.0529L376.781 83.2945L305.786 126.035L263.569 115.557L238.741 215.683L303.475 231.741L358.513 200.072Z" stroke="#7191E6" stroke-width="0.140442" stroke-miterlimit="10"/>
<path d="M359.396 202.243L295.961 186.506L324.297 72.2238L377.664 85.4654L306.676 128.202L264.457 117.73L239.63 217.855L304.363 233.913L359.396 202.243Z" stroke="#7191E6" stroke-width="0.140442" stroke-miterlimit="10"/>
<path d="M360.283 204.416L296.842 188.677L325.183 74.3966L378.55 87.6382L307.563 130.375L265.338 119.901L240.513 220.021L305.244 236.085L360.283 204.416Z" stroke="#7191E6" stroke-width="0.140442" stroke-miterlimit="10"/>
<path d="M361.171 206.588L297.73 190.849L326.067 76.5677L379.439 89.8111L308.446 132.546L266.227 122.074L241.401 222.194L306.135 238.252L361.171 206.588Z" stroke="#7191E6" stroke-width="0.140442" stroke-miterlimit="10"/>
<path d="M362.052 208.759L298.617 193.022L326.953 78.7406L380.322 91.9766L309.332 134.719L267.108 124.245L242.282 224.365L307.016 240.423L362.052 208.759Z" stroke="#7191E6" stroke-width="0.140442" stroke-miterlimit="10"/>
<path d="M362.941 210.932L299.5 195.193L327.842 80.9134L381.211 94.1495L310.215 136.89L267.997 126.418L243.171 226.538L307.905 242.596L362.941 210.932Z" stroke="#7191E6" stroke-width="0.140442" stroke-miterlimit="10"/>
<path d="M363.824 213.098L300.388 197.361L328.724 83.0788L382.091 96.3204L311.102 139.062L268.885 128.585L244.057 228.71L308.791 244.769L363.824 213.098Z" stroke="#7191E6" stroke-width="0.140442" stroke-miterlimit="10"/>
<path d="M364.712 215.271L301.277 199.533L329.613 85.2516L382.98 98.4932L311.992 141.23L269.768 130.756L244.941 230.881L309.674 246.94L364.712 215.271Z" stroke="#7191E6" stroke-width="0.140442" stroke-miterlimit="10"/>
<path d="M365.601 217.443L302.16 201.704L330.496 87.4226L383.869 100.666L312.875 143.401L270.657 132.929L245.831 233.049L310.565 249.107L365.601 217.443Z" stroke="#7191E6" stroke-width="0.140442" stroke-miterlimit="10"/>
<path d="M366.482 219.614L303.047 203.877L331.383 89.5956L384.752 102.832L313.762 145.574L271.538 135.1L246.712 235.22L311.446 251.278L366.482 219.614Z" stroke="#7191E6" stroke-width="0.140442" stroke-miterlimit="10"/>
<path d="M367.371 221.787L303.93 206.048L332.271 91.7684L385.64 105.004L314.645 147.745L272.426 137.273L247.601 237.393L312.334 253.451L367.371 221.787Z" stroke="#7191E6" stroke-width="0.140442" stroke-miterlimit="10"/>
<path d="M368.254 223.953L304.818 208.216L333.154 93.9342L386.521 107.176L315.531 149.918L273.314 139.44L248.487 239.566L313.221 255.624L368.254 223.953Z" stroke="#7191E6" stroke-width="0.140442" stroke-miterlimit="10"/>
<path d="M369.142 226.126L305.707 210.389L334.043 96.1071L387.41 109.349L316.422 152.085L274.198 141.611L249.37 241.737L314.104 257.795L369.142 226.126Z" stroke="#7191E6" stroke-width="0.140442" stroke-miterlimit="10"/>
<path d="M370.029 228.299L306.588 212.56L334.924 98.2781L388.296 111.522L317.303 154.256L275.084 143.784L250.259 243.904L314.99 259.968L370.029 228.299Z" stroke="#7191E6" stroke-width="0.140442" stroke-miterlimit="10"/>
<path d="M370.912 230.469L307.476 214.732L335.812 100.451L389.181 113.687L318.192 156.429L275.973 145.957L251.142 246.075L315.875 262.133L370.912 230.469Z" stroke="#7191E6" stroke-width="0.140442" stroke-miterlimit="10"/>
<path d="M371.799 232.643L308.357 216.904L336.699 102.624L390.068 115.86L319.073 158.6L276.854 148.128L252.029 248.248L316.762 264.306L371.799 232.643Z" stroke="#7191E6" stroke-width="0.140442" stroke-miterlimit="10"/>
<path d="M372.683 234.808L309.248 219.071L337.584 104.789L390.951 118.031L319.961 160.773L277.744 150.295L252.917 250.421L317.65 266.479L372.683 234.808Z" stroke="#7191E6" stroke-width="0.140442" stroke-miterlimit="10"/>
<path d="M373.572 236.981L310.136 221.244L338.473 106.962L391.839 120.204L320.852 162.94L278.627 152.466L253.8 252.592L318.533 268.65L373.572 236.981Z" stroke="#7191E6" stroke-width="0.140442" stroke-miterlimit="10"/>
<path d="M374.459 239.154L311.017 223.415L339.354 109.133L392.726 122.377L321.733 165.111L279.514 154.639L254.689 254.759L319.42 270.823L374.459 239.154Z" stroke="#7191E6" stroke-width="0.140442" stroke-miterlimit="10"/>
<path d="M375.342 241.325L311.906 225.588L340.242 111.306L393.611 124.542L322.621 167.284L280.402 156.812L255.571 256.93L320.305 272.988L375.342 241.325Z" stroke="#7191E6" stroke-width="0.140442" stroke-miterlimit="10"/>
<path d="M376.228 243.498L312.787 227.759L341.129 113.479L394.498 126.715L323.502 169.455L281.284 158.983L256.458 259.103L321.192 275.161L376.228 243.498Z" stroke="#7191E6" stroke-width="0.140442" stroke-miterlimit="10"/>
</svg>
