<svg width="229" height="325" viewBox="0 0 229 325" fill="none" xmlns="http://www.w3.org/2000/svg">
<path d="M73.6394 227.632L56.7554 164.511L170.514 133.985L184.721 187.086L112.98 145.666L101.741 103.658L2.07536 130.403L19.3113 194.807L73.6394 227.632Z" stroke="#7191E6" stroke-width="0.140442" stroke-miterlimit="10"/>
<path d="M72.5577 229.236L56.1368 166.166L169.821 136.482L183.632 189.543L112.354 147.742L101.427 105.766L1.82999 131.774L18.584 196.136L72.5577 229.236Z" stroke="#7191E6" stroke-width="0.140442" stroke-miterlimit="10"/>
<path d="M71.4787 230.848L55.5266 167.82L169.123 138.976L182.544 192.001L111.726 149.824L101.106 107.877L1.58004 133.142L17.8602 197.461L71.4787 230.848Z" stroke="#7191E6" stroke-width="0.140442" stroke-miterlimit="10"/>
<path d="M70.3944 232.458L54.9083 169.475L168.43 141.473L181.461 194.462L111.093 151.903L100.788 109.983L1.33493 134.513L17.1361 198.785L70.3944 232.458Z" stroke="#7191E6" stroke-width="0.140442" stroke-miterlimit="10"/>
<path d="M69.3098 234.066L54.2925 171.125L167.737 143.969L180.372 196.919L110.464 153.984L100.467 112.092L1.08155 135.886L16.4088 200.113L69.3098 234.066Z" stroke="#7191E6" stroke-width="0.140442" stroke-miterlimit="10"/>
<path d="M68.2313 235.678L53.6778 172.775L167.04 146.464L179.285 199.376L109.839 156.061L100.154 114.201L0.837098 137.257L15.6854 201.438L68.2313 235.678Z" stroke="#7191E6" stroke-width="0.140442" stroke-miterlimit="10"/>
<path d="M67.1467 237.288L53.0642 174.434L166.347 148.961L178.193 201.839L109.205 158.14L99.8356 116.307L0.586646 138.626L14.961 202.762L67.1467 237.288Z" stroke="#7191E6" stroke-width="0.140442" stroke-miterlimit="10"/>
<path d="M66.0626 238.897L52.4489 176.084L165.65 151.455L177.105 204.297L108.577 160.222L99.5147 118.417L0.336668 139.994L14.2371 204.086L66.0626 238.897Z" stroke="#7191E6" stroke-width="0.140442" stroke-miterlimit="10"/>
<path d="M64.9865 240.504L51.8307 177.739L164.957 153.952L176.017 206.755L107.952 162.298L99.1967 120.523L0.0917468 141.365L13.5103 205.416L64.9865 240.504Z" stroke="#7191E6" stroke-width="0.140442" stroke-miterlimit="10"/>
<path d="M63.9017 242.113L51.2199 179.393L164.264 156.449L174.933 209.215L107.318 164.377L98.8801 122.636L-0.158889 142.733L12.7807 206.737L63.9017 242.113Z" stroke="#7191E6" stroke-width="0.140442" stroke-miterlimit="10"/>
<path d="M62.8176 243.721L50.6017 181.047L163.567 158.942L173.845 211.672L106.69 166.458L98.5621 124.741L-0.406725 144.109L12.0568 208.06L62.8176 243.721Z" stroke="#7191E6" stroke-width="0.140442" stroke-miterlimit="10"/>
<path d="M61.7386 245.334L49.9865 182.698L162.874 161.44L172.757 214.13L106.065 168.535L98.2412 126.852L-0.65672 145.477L11.3329 209.385L61.7386 245.334Z" stroke="#7191E6" stroke-width="0.140442" stroke-miterlimit="10"/>
<path d="M60.6545 246.943L49.3762 184.351L162.176 163.934L171.669 216.588L105.431 170.614L97.9232 128.957L-0.901666 146.848L10.6061 210.714L60.6545 246.943Z" stroke="#7191E6" stroke-width="0.140442" stroke-miterlimit="10"/>
<path d="M59.5699 248.552L48.7576 186.006L161.483 166.431L170.58 219.046L104.803 172.696L97.6068 131.071L-1.15212 148.217L9.8817 212.038L59.5699 248.552Z" stroke="#7191E6" stroke-width="0.140442" stroke-miterlimit="10"/>
<path d="M58.4911 250.164L48.1426 187.656L160.791 168.927L169.494 221.511L104.178 174.772L97.2891 133.176L-1.40177 149.584L9.15814 213.362L58.4911 250.164Z" stroke="#7191E6" stroke-width="0.140442" stroke-miterlimit="10"/>
<path d="M57.4095 251.769L47.529 189.315L160.093 171.422L168.406 223.969L103.544 176.852L96.9706 135.282L-1.64717 150.956L8.43083 214.692L57.4095 251.769Z" stroke="#7191E6" stroke-width="0.140442" stroke-miterlimit="10"/>
<path d="M56.2614 253.489L46.8498 191.077L159.337 174.03L167.254 226.538L102.852 179.045L96.5857 137.504L-1.96405 152.441L7.64298 216.128L56.2614 253.489Z" stroke="#7191E6" stroke-width="0.140442" stroke-miterlimit="10"/>
<path d="M55.0505 255.329L46.1027 192.955L158.507 176.753L166.034 229.224L102.095 181.349L96.1409 139.84L-2.33788 154.035L6.78725 217.68L55.0505 255.329Z" stroke="#7191E6" stroke-width="0.140442" stroke-miterlimit="10"/>
<path d="M53.8346 257.165L45.3578 194.84L157.683 179.477L164.814 231.909L101.33 183.655L95.6911 142.173L-2.71967 155.63L5.93155 219.231L53.8346 257.165Z" stroke="#7191E6" stroke-width="0.140442" stroke-miterlimit="10"/>
<path d="M52.6214 258.997L44.6105 196.718L156.853 182.198L163.599 234.597L100.573 185.96L95.2381 144.511L-3.0966 157.229L5.07564 220.783L52.6214 258.997Z" stroke="#7191E6" stroke-width="0.140442" stroke-miterlimit="10"/>
<path d="M51.411 260.837L43.8639 198.597L156.032 184.918L162.379 237.283L99.8129 188.269L94.7887 146.845L-3.47797 158.825L4.22038 222.335L51.411 260.837Z" stroke="#7191E6" stroke-width="0.140442" stroke-miterlimit="10"/>
<path d="M50.1951 262.675L43.1219 200.478L155.208 187.643L161.159 239.968L99.0508 190.571L94.344 149.181L-3.85975 160.422L3.36469 223.887L50.1951 262.675Z" stroke="#7191E6" stroke-width="0.140442" stroke-miterlimit="10"/>
<path d="M48.9821 264.507L42.3748 202.357L154.379 190.366L159.939 242.655L98.2908 192.881L93.8941 151.515L-4.2365 162.021L2.50897 225.44L48.9821 264.507Z" stroke="#7191E6" stroke-width="0.140442" stroke-miterlimit="10"/>
<path d="M47.7712 266.346L41.6248 204.239L153.554 193.09L158.722 245.334L97.5337 195.185L93.4442 153.848L-4.61834 163.616L1.65323 226.991L47.7712 266.346Z" stroke="#7191E6" stroke-width="0.140442" stroke-miterlimit="10"/>
<path d="M46.5558 268.184L40.8833 206.12L152.725 195.812L157.502 248.02L96.7691 197.492L92.992 156.186L-4.9946 165.216L0.798005 228.544L46.5558 268.184Z" stroke="#7191E6" stroke-width="0.140442" stroke-miterlimit="10"/>
<path d="M45.3426 270.016L40.136 207.999L151.904 198.533L156.287 250.709L96.0118 199.797L92.5419 158.521L-5.37658 166.813L-0.0579005 230.097L45.3426 270.016Z" stroke="#7191E6" stroke-width="0.140442" stroke-miterlimit="10"/>
<path d="M44.1317 271.855L39.3889 209.876L151.079 201.257L155.067 253.394L95.2518 202.106L92.0971 160.856L-5.75331 168.411L-0.916544 231.653L44.1317 271.855Z" stroke="#7191E6" stroke-width="0.140442" stroke-miterlimit="10"/>
<path d="M42.9187 273.688L38.6419 211.755L150.25 203.98L153.847 256.08L94.4897 204.408L91.6473 163.19L-6.13512 170.008L-1.77225 233.206L42.9187 273.688Z" stroke="#7191E6" stroke-width="0.140442" stroke-miterlimit="10"/>
<path d="M41.7033 275.524L37.8974 213.64L149.426 206.704L152.628 258.765L93.7301 206.717L91.195 165.528L-6.51139 171.606L-2.62749 234.757L41.7033 275.524Z" stroke="#7191E6" stroke-width="0.140442" stroke-miterlimit="10"/>
<path d="M40.4929 277.364L37.1508 215.519L148.6 209.421L151.408 261.45L92.9735 209.022L90.7456 167.861L-6.89272 173.202L-3.48274 236.309L40.4929 277.364Z" stroke="#7191E6" stroke-width="0.140442" stroke-miterlimit="10"/>
<path d="M39.2797 279.196L36.4035 217.397L147.776 212.145L150.193 264.139L92.2112 211.323L90.3007 170.197L-7.27471 174.798L-4.34368 237.858L39.2797 279.196Z" stroke="#7191E6" stroke-width="0.140442" stroke-miterlimit="10"/>
<path d="M38.0638 281.033L35.6615 219.278L146.951 214.87L148.973 266.824L91.4512 213.633L89.8508 172.531L-7.65146 176.397L-5.1994 239.41L38.0638 281.033Z" stroke="#7191E6" stroke-width="0.140442" stroke-miterlimit="10"/>
<path d="M36.8534 282.874L34.9149 221.156L146.122 217.593L147.754 269.51L90.6946 215.938L89.4015 174.864L-8.03279 177.993L-6.05466 240.962L36.8534 282.874Z" stroke="#7191E6" stroke-width="0.140442" stroke-miterlimit="10"/>
<path d="M35.6403 284.705L34.1649 223.039L145.298 220.317L146.534 272.196L89.9295 218.244L88.9487 177.203L-8.40953 179.592L-6.91037 242.514L35.6403 284.705Z" stroke="#7191E6" stroke-width="0.140442" stroke-miterlimit="10"/>
<path d="M34.4244 286.543L33.4229 224.921L144.472 223.034L145.314 274.881L89.1724 220.549L88.5039 179.539L-8.78842 181.183L-7.76609 244.067L34.4244 286.543Z" stroke="#7191E6" stroke-width="0.140442" stroke-miterlimit="10"/>
<path d="M33.2138 288.383L32.6761 226.799L143.648 225.759L144.102 277.565L88.4127 222.859L88.0543 181.873L-9.16488 182.782L-8.62151 245.619L33.2138 288.383Z" stroke="#7191E6" stroke-width="0.140442" stroke-miterlimit="10"/>
<path d="M32.0009 290.215L31.9291 228.677L142.823 228.484L142.882 280.25L87.6506 225.16L87.6045 184.206L-9.54664 184.378L-9.47721 247.171L32.0009 290.215Z" stroke="#7191E6" stroke-width="0.140442" stroke-miterlimit="10"/>
<path d="M30.7849 292.052L31.1841 230.563L141.994 231.206L141.662 282.936L86.8905 227.47L87.1517 186.544L-9.9285 185.975L-10.333 248.723L30.7849 292.052Z" stroke="#7191E6" stroke-width="0.140442" stroke-miterlimit="10"/>
<path d="M29.574 293.892L30.437 232.441L141.17 233.931L140.442 285.621L86.1334 229.774L86.7069 188.881L-10.3052 187.574L-11.1887 250.275L29.574 293.892Z" stroke="#7191E6" stroke-width="0.140442" stroke-miterlimit="10"/>
<path d="M28.361 295.724L29.6899 234.319L140.343 236.648L139.222 288.307L85.3684 232.081L86.2571 191.214L-10.687 189.17L-12.0444 251.827L28.361 295.724Z" stroke="#7191E6" stroke-width="0.140442" stroke-miterlimit="10"/>
<path d="M27.1451 297.561L28.9479 236.2L139.519 239.373L138.002 290.992L84.6113 234.385L85.8073 193.547L-11.0638 190.769L-12.9001 253.379L27.1451 297.561Z" stroke="#7191E6" stroke-width="0.140442" stroke-miterlimit="10"/>
<path d="M25.9379 299.396L28.2016 238.079L138.695 242.098L136.788 293.681L83.847 236.692L85.3582 195.881L-11.4448 192.365L-13.755 254.931L25.9379 299.396Z" stroke="#7191E6" stroke-width="0.140442" stroke-miterlimit="10"/>
<path d="M24.722 301.233L27.4516 239.962L137.866 244.82L135.568 296.366L83.0899 238.997L84.9105 198.222L-11.8216 193.964L-14.6108 256.483L24.722 301.233Z" stroke="#7191E6" stroke-width="0.140442" stroke-miterlimit="10"/>
<path d="M23.5061 303.07L26.7096 241.843L137.041 247.545L134.348 299.052L82.3299 241.306L84.4606 200.555L-12.2034 195.56L-15.4665 258.035L23.5061 303.07Z" stroke="#7191E6" stroke-width="0.140442" stroke-miterlimit="10"/>
<path d="M22.2981 304.904L25.9625 243.721L136.215 250.261L133.128 301.737L81.5677 243.608L84.0108 202.889L-12.5852 197.156L-16.3251 259.592L22.2981 304.904Z" stroke="#7191E6" stroke-width="0.140442" stroke-miterlimit="10"/>
<path d="M21.0827 306.742L25.2159 245.599L135.391 252.986L131.909 304.423L80.8082 245.918L83.5614 205.222L-12.9614 198.755L-17.1803 261.145L21.0827 306.742Z" stroke="#7191E6" stroke-width="0.140442" stroke-miterlimit="10"/>
<path d="M19.8666 308.579L24.4737 247.48L134.567 255.712L130.694 307.112L80.0509 248.222L83.1135 207.564L-13.3434 200.351L-18.0362 262.697L19.8666 308.579Z" stroke="#7191E6" stroke-width="0.140442" stroke-miterlimit="10"/>
<path d="M18.6536 310.411L23.7237 249.363L133.737 258.433L129.477 309.792L79.2888 250.524L82.6637 209.897L-13.7202 201.95L-18.892 264.249L18.6536 310.411Z" stroke="#7191E6" stroke-width="0.140442" stroke-miterlimit="10"/>
<path d="M17.4427 312.251L22.9766 251.242L132.916 261.153L128.257 312.478L78.5288 252.833L82.2138 212.23L-14.102 203.546L-19.7477 265.801L17.4427 312.251Z" stroke="#7191E6" stroke-width="0.140442" stroke-miterlimit="10"/>
<path d="M16.2272 314.088L22.23 253.12L132.087 263.875L127.037 315.163L77.7721 255.138L81.7645 214.564L-14.4783 205.146L-20.6029 267.353L16.2272 314.088Z" stroke="#7191E6" stroke-width="0.140442" stroke-miterlimit="10"/>
<path d="M15.0142 315.92L21.488 255.001L131.262 266.6L125.817 317.849L77.0071 257.445L81.3197 216.9L-14.8572 206.736L-21.4587 268.905L15.0142 315.92Z" stroke="#7191E6" stroke-width="0.140442" stroke-miterlimit="10"/>
<path d="M13.8032 317.76L20.7407 256.879L130.433 269.322L124.602 320.537L76.2498 259.749L80.8667 219.238L-15.2341 208.336L-22.3196 270.454L13.8032 317.76Z" stroke="#7191E6" stroke-width="0.140442" stroke-miterlimit="10"/>
<path d="M12.5902 319.592L19.9907 258.762L129.609 272.047L123.382 323.223L75.4898 262.059L80.4169 221.572L-15.6159 209.932L-23.1753 272.006L12.5902 319.592Z" stroke="#7191E6" stroke-width="0.140442" stroke-miterlimit="10"/>
<path d="M11.3747 321.429L19.2492 260.644L128.788 274.767L122.163 325.908L74.7281 264.361L79.9675 223.905L-15.9972 211.528L-24.0306 273.559L11.3747 321.429Z" stroke="#7191E6" stroke-width="0.140442" stroke-miterlimit="10"/>
<path d="M10.1639 323.269L18.5021 262.522L127.958 277.489L120.943 328.594L73.9681 266.67L79.5177 226.239L-16.374 213.127L-24.8863 275.111L10.1639 323.269Z" stroke="#7191E6" stroke-width="0.140442" stroke-miterlimit="10"/>
<path d="M8.95134 325.101L17.7555 264.4L127.134 280.214L119.723 331.279L73.2115 268.975L79.0734 228.575L-16.7553 214.723L-25.7415 276.662L8.95134 325.101Z" stroke="#7191E6" stroke-width="0.140442" stroke-miterlimit="10"/>
<path d="M7.73524 326.938L17.0133 266.281L126.305 282.936L118.508 333.968L72.4463 271.282L78.6204 230.914L-17.1322 216.322L-26.5974 278.215L7.73524 326.938Z" stroke="#7191E6" stroke-width="0.140442" stroke-miterlimit="10"/>
<path d="M6.52484 328.777L16.2638 268.163L125.481 285.66L117.289 336.653L71.6896 273.585L78.171 233.246L-17.5136 217.917L-27.4527 279.766L6.52484 328.777Z" stroke="#7191E6" stroke-width="0.140442" stroke-miterlimit="10"/>
<path d="M5.31183 330.61L15.5167 270.042L124.659 288.38L116.069 339.339L70.9296 275.895L77.7212 235.58L-17.8903 219.517L-28.3084 281.319L5.31183 330.61Z" stroke="#7191E6" stroke-width="0.140442" stroke-miterlimit="10"/>
<path d="M4.09589 332.446L14.7747 271.922L123.83 291.101L114.851 342.019L70.1675 278.196L77.2764 237.915L-18.2721 221.112L-29.1641 282.87L4.09589 332.446Z" stroke="#7191E6" stroke-width="0.140442" stroke-miterlimit="10"/>
<path d="M2.88502 334.286L14.0276 273.801L123.006 293.826L113.631 344.704L69.4074 280.506L76.8236 240.254L-18.6539 222.708L-30.0198 284.422L2.88502 334.286Z" stroke="#7191E6" stroke-width="0.140442" stroke-miterlimit="10"/>
<path d="M1.67202 336.119L13.2805 275.679L122.176 296.549L112.412 347.39L68.6504 282.811L76.3738 242.588L-19.0307 224.308L-30.8785 285.98L1.67202 336.119Z" stroke="#7191E6" stroke-width="0.140442" stroke-miterlimit="10"/>
<path d="M0.456394 337.955L12.5359 277.565L121.352 299.273L111.197 350.078L67.8856 285.117L75.9242 244.921L-19.4122 225.904L-31.7339 287.531L0.456394 337.955Z" stroke="#7191E6" stroke-width="0.140442" stroke-miterlimit="10"/>
<path d="M-0.754493 339.795L11.7888 279.443L120.531 301.993L109.977 352.764L67.1285 287.422L75.4794 247.257L-19.7889 227.503L-32.5896 289.084L-0.754493 339.795Z" stroke="#7191E6" stroke-width="0.140442" stroke-miterlimit="10"/>
<path d="M-1.9675 341.628L11.0417 281.322L119.701 304.716L108.757 355.45L66.3714 289.727L75.0296 249.591L-20.1707 229.099L-33.4453 290.636L-1.9675 341.628Z" stroke="#7191E6" stroke-width="0.140442" stroke-miterlimit="10"/>
<path d="M-3.18295 343.465L10.3001 283.203L118.878 307.441L107.537 358.136L65.6068 292.034L74.5773 251.93L-20.547 230.699L-34.3006 292.189L-3.18295 343.465Z" stroke="#7191E6" stroke-width="0.140442" stroke-miterlimit="10"/>
<path d="M-4.3904 345.299L9.55356 285.08L118.049 310.162L106.318 360.82L64.8502 294.337L74.128 254.262L-20.9254 232.289L-35.1558 293.74L-4.3904 345.299Z" stroke="#7191E6" stroke-width="0.140442" stroke-miterlimit="10"/>
<path d="M-5.60652 347.136L8.80336 286.964L117.227 312.882L105.103 363.509L64.09 296.647L73.683 256.598L-21.3074 233.885L-36.0117 295.292L-5.60652 347.136Z" stroke="#7191E6" stroke-width="0.140442" stroke-miterlimit="10"/>
<path d="M-6.82244 348.973L8.06135 288.845L116.403 315.607L103.883 366.194L63.3279 298.949L73.2331 258.932L-21.6841 235.484L-36.8674 296.844L-6.82244 348.973Z" stroke="#7191E6" stroke-width="0.140442" stroke-miterlimit="10"/>
<path d="M-8.03039 350.808L7.31427 290.723L115.573 318.329L102.663 368.88L62.5678 301.258L72.7804 261.27L-22.066 237.08L-37.7231 298.396L-8.03039 350.808Z" stroke="#7191E6" stroke-width="0.140442" stroke-miterlimit="10"/>
<path d="M-9.24585 352.645L6.56766 292.601L114.749 321.054L101.443 371.566L61.8112 303.563L72.331 263.604L-22.4422 238.679L-38.5784 299.948L-9.24585 352.645Z" stroke="#7191E6" stroke-width="0.140442" stroke-miterlimit="10"/>
<path d="M-10.4618 354.482L5.82273 294.487L113.92 323.776L100.223 374.251L61.0462 305.87L71.8862 265.94L-22.824 240.275L-39.4341 301.5L-10.4618 354.482Z" stroke="#7191E6" stroke-width="0.140442" stroke-miterlimit="10"/>
<path d="M-11.6699 356.317L5.07544 296.365L113.098 326.495L99.0112 376.935L60.2889 308.174L71.4362 268.273L-23.201 241.874L-40.29 303.052L-11.6699 356.317Z" stroke="#7191E6" stroke-width="0.140442" stroke-miterlimit="10"/>
<path d="M-12.8853 358.154L4.32886 298.244L112.275 329.221L97.7917 379.62L59.5294 310.484L70.9868 270.607L-23.5823 243.47L-41.1503 304.602L-12.8853 358.154Z" stroke="#7191E6" stroke-width="0.140442" stroke-miterlimit="10"/>
<path d="M-14.1013 359.991L3.58177 300.122L111.445 331.943L96.5718 382.306L58.7672 312.786L70.5341 272.945L-23.9641 245.067L-42.006 306.154L-14.1013 359.991Z" stroke="#7191E6" stroke-width="0.140442" stroke-miterlimit="10"/>
<path d="M-15.3092 361.826L2.83976 302.003L110.621 334.667L95.3518 384.991L58.0072 315.095L70.0893 275.282L-24.3408 246.665L-42.8617 307.706L-15.3092 361.826Z" stroke="#7191E6" stroke-width="0.140442" stroke-miterlimit="10"/>
<path d="M-16.5252 363.663L2.08973 303.886L109.791 337.389L94.1318 387.677L57.2501 317.4L69.6394 277.615L-24.7227 248.262L-43.7175 309.258L-16.5252 363.663Z" stroke="#7191E6" stroke-width="0.140442" stroke-miterlimit="10"/>
<path d="M-17.7411 365.5L1.34266 305.764L108.97 340.109L92.9118 390.362L56.485 319.706L69.1896 279.948L-25.0994 249.861L-44.5732 310.81L-17.7411 365.5Z" stroke="#7191E6" stroke-width="0.140442" stroke-miterlimit="10"/>
<path d="M-18.9487 367.335L0.60095 307.645L108.146 342.834L91.6972 393.051L55.7282 322.011L68.7371 282.287L-25.4809 251.457L-45.4286 312.362L-18.9487 367.335Z" stroke="#7191E6" stroke-width="0.140442" stroke-miterlimit="10"/>
<path d="M-20.1647 369.172L-0.146135 309.524L107.317 345.556L90.4772 395.736L54.9682 324.32L68.2923 284.623L-25.8577 253.056L-46.2872 313.919L-20.1647 369.172Z" stroke="#7191E6" stroke-width="0.140442" stroke-miterlimit="10"/>
<path d="M-21.3772 371.004L-0.892742 311.401L106.493 348.281L89.2577 398.422L54.2066 326.622L67.8429 286.956L-26.239 254.652L-47.1425 315.471L-21.3772 371.004Z" stroke="#7191E6" stroke-width="0.140442" stroke-miterlimit="10"/>
<path d="M-22.5881 372.844L-1.63769 313.288L105.663 351.003L88.0377 401.107L53.4465 328.932L67.3931 289.29L-26.6158 256.251L-47.9982 317.023L-22.5881 372.844Z" stroke="#7191E6" stroke-width="0.140442" stroke-miterlimit="10"/>
<path d="M-23.804 374.681L-2.38477 315.166L104.842 353.723L86.8178 403.793L52.6894 331.236L66.9433 291.623L-26.9975 257.847L-48.8539 318.575L-23.804 374.681Z" stroke="#7191E6" stroke-width="0.140442" stroke-miterlimit="10"/>
<path d="M-25.0167 376.513L-3.13155 317.044L104.018 356.448L85.6032 406.481L51.9276 333.538L66.4908 293.962L-27.3761 259.438L-49.7093 320.127L-25.0167 376.513Z" stroke="#7191E6" stroke-width="0.140442" stroke-miterlimit="10"/>
<path d="M-26.2276 378.353L-3.87358 318.925L103.188 359.17L84.3861 409.162L51.1676 335.847L66.046 296.298L-27.7529 261.037L-50.565 321.679L-26.2276 378.353Z" stroke="#7191E6" stroke-width="0.140442" stroke-miterlimit="10"/>
<path d="M-27.443 380.191L-4.62016 320.804L102.365 361.895L83.1666 411.848L50.411 338.152L65.5966 298.632L-28.1342 262.633L-51.4203 323.232L-27.443 380.191Z" stroke="#7191E6" stroke-width="0.140442" stroke-miterlimit="10"/>
<path d="M-28.656 382.022L-5.37017 322.687L101.538 364.611L81.9466 414.533L49.6459 340.459L65.1468 300.965L-28.5109 264.232L-52.276 324.784L-28.656 382.022Z" stroke="#7191E6" stroke-width="0.140442" stroke-miterlimit="10"/>
<path d="M-29.8669 383.862L-6.11221 324.568L100.714 367.336L80.7266 417.219L48.8888 342.763L64.6969 303.298L-28.8928 265.828L-53.1317 326.336L-29.8669 383.862Z" stroke="#7191E6" stroke-width="0.140442" stroke-miterlimit="10"/>
<path d="M-31.083 385.7L-6.85946 326.446L99.8842 370.058L79.5115 419.907L48.1286 345.073L64.249 305.64L-29.2697 267.427L-53.9876 327.888L-31.083 385.7Z" stroke="#7191E6" stroke-width="0.140442" stroke-miterlimit="10"/>
<path d="M-32.296 387.531L-7.60655 328.324L99.0599 372.783L78.2916 422.593L47.3665 347.375L63.7992 307.973L-29.6515 269.023L-54.8434 329.44L-32.296 387.531Z" stroke="#7191E6" stroke-width="0.140442" stroke-miterlimit="10"/>
<path d="M-33.5064 389.371L-8.34809 330.205L98.236 375.508L77.0721 425.278L46.6069 349.684L63.3498 310.306L-30.0328 270.62L-55.6986 330.992L-33.5064 389.371Z" stroke="#7191E6" stroke-width="0.140442" stroke-miterlimit="10"/>
<path d="M-34.7223 391.209L-9.09809 332.089L97.4095 378.225L75.8521 427.964L45.8498 351.989L62.9 312.64L-30.4096 272.219L-56.5543 332.544L-34.7223 391.209Z" stroke="#7191E6" stroke-width="0.140442" stroke-miterlimit="10"/>
<path d="M-35.9354 393.04L-9.84519 333.966L96.5852 380.95L74.6321 430.649L45.0848 354.295L62.4523 314.981L-30.7914 273.815L-57.41 334.096L-35.9354 393.04Z" stroke="#7191E6" stroke-width="0.140442" stroke-miterlimit="10"/>
<path d="M-37.1462 394.881L-10.5872 335.848L95.7558 383.672L73.4121 433.335L44.3277 356.6L62.0024 317.314L-31.1682 275.414L-58.2657 335.648L-37.1462 394.881Z" stroke="#7191E6" stroke-width="0.140442" stroke-miterlimit="10"/>
<path d="M-38.3589 396.713L-11.334 337.726L94.9318 386.397L72.1975 436.023L43.568 358.91L61.5529 319.648L-31.5496 277.01L-59.1262 337.197L-38.3589 396.713Z" stroke="#7191E6" stroke-width="0.140442" stroke-miterlimit="10"/>
<path d="M-39.5748 398.55L-12.081 339.604L94.1074 389.122L70.9775 438.709L42.8058 361.211L61.103 321.981L-31.9264 278.609L-59.9819 338.75L-39.5748 398.55Z" stroke="#7191E6" stroke-width="0.140442" stroke-miterlimit="10"/>
<path d="M-40.7852 400.389L-12.8306 341.486L93.2814 391.838L69.761 441.389L42.0463 363.52L60.6587 324.317L-32.3077 280.204L-60.8401 340.306L-40.7852 400.389Z" stroke="#7191E6" stroke-width="0.140442" stroke-miterlimit="10"/>
<path d="M-41.9982 402.221L-13.5726 343.368L92.4571 394.563L68.541 444.075L41.2892 365.825L60.2059 326.656L-32.6895 281.801L-61.6958 341.859L-41.9982 402.221Z" stroke="#7191E6" stroke-width="0.140442" stroke-miterlimit="10"/>
<path d="M-44.3073 402.644L-15.8788 343.786L90.148 394.986L66.2319 444.498L38.9801 366.248L57.8998 327.073L-34.9906 282.222L-63.9969 342.279L-44.3073 402.644Z" stroke="#7191E6" stroke-width="0.140442" stroke-miterlimit="10"/>
<path d="M-46.6156 403.067L-18.187 344.209L87.8426 395.404L63.9287 444.923L36.6747 366.666L55.5915 327.496L-37.2989 282.644L-66.3052 342.702L-46.6156 403.067Z" stroke="#7191E6" stroke-width="0.140442" stroke-miterlimit="10"/>
<path d="M-48.9218 403.484L-20.4961 344.631L85.5336 395.826L61.6225 445.341L34.3657 367.088L53.2854 327.914L-39.6051 283.062L-68.6113 343.119L-48.9218 403.484Z" stroke="#7191E6" stroke-width="0.140442" stroke-miterlimit="10"/>
<path d="M-51.2258 403.91L-22.7972 345.052L83.2295 396.252L59.3135 445.763L32.0595 367.506L50.9813 328.339L-41.9141 283.484L-70.9204 343.542L-51.2258 403.91Z" stroke="#7191E6" stroke-width="0.140442" stroke-miterlimit="10"/>
<path d="M-53.5314 404.327L-25.1058 345.474L80.9239 396.669L57.0078 446.181L29.756 367.931L48.6728 328.762L-44.2227 283.907L-73.229 343.964L-53.5314 404.327Z" stroke="#7191E6" stroke-width="0.140442" stroke-miterlimit="10"/>
<path d="M-55.84 404.75L-27.4144 345.897L78.6153 397.092L54.6992 446.603L27.4474 368.354L46.3671 329.179L-46.5233 284.327L-75.5347 344.382L-55.84 404.75Z" stroke="#7191E6" stroke-width="0.140442" stroke-miterlimit="10"/>
<path d="M-58.1493 405.173L-29.7207 346.314L76.309 397.51L52.395 447.029L25.1411 368.771L44.0578 329.602L-48.8326 284.75L-77.8389 344.808L-58.1493 405.173Z" stroke="#7191E6" stroke-width="0.140442" stroke-miterlimit="10"/>
<path d="M-60.455 405.59L-32.0293 346.737L74.0004 397.932L50.0893 447.447L22.8325 369.194L41.7521 330.019L-51.1383 285.167L-80.1446 345.225L-60.455 405.59Z" stroke="#7191E6" stroke-width="0.140442" stroke-miterlimit="10"/>
<path d="M-62.7585 406.016L-34.3299 347.157L71.6968 398.358L47.7807 447.869L20.5268 369.611L39.4486 330.445L-53.4469 285.59L-82.4531 345.648L-62.7585 406.016Z" stroke="#7191E6" stroke-width="0.140442" stroke-miterlimit="10"/>
<path d="M-65.0647 406.434L-36.639 347.581L69.3907 398.776L45.4746 448.287L18.2228 370.038L37.1395 330.868L-55.7559 286.014L-84.7622 346.071L-65.0647 406.434Z" stroke="#7191E6" stroke-width="0.140442" stroke-miterlimit="10"/>
<path d="M-67.3732 406.857L-38.9476 348.003L67.0821 399.199L43.166 448.71L15.9142 370.46L34.8339 331.286L-58.0565 286.434L-87.0679 346.489L-67.3732 406.857Z" stroke="#7191E6" stroke-width="0.140442" stroke-miterlimit="10"/>
<path d="M-69.6825 407.279L-41.2539 348.421L64.7757 399.616L40.8618 449.136L13.6078 370.878L32.5246 331.709L-60.3658 286.857L-89.3721 346.915L-69.6825 407.279Z" stroke="#7191E6" stroke-width="0.140442" stroke-miterlimit="10"/>
<path d="M-71.9882 407.697L-43.5625 348.843L62.4672 400.039L38.5561 449.553L11.2993 371.301L30.216 332.131L-62.6715 287.274L-91.6778 347.332L-71.9882 407.697Z" stroke="#7191E6" stroke-width="0.140442" stroke-miterlimit="10"/>
<path d="M-74.2917 408.122L-45.8682 349.261L60.1586 400.461L36.2475 449.976L8.99359 371.718L27.9154 332.552L-64.9801 287.697L-93.9863 347.754L-74.2917 408.122Z" stroke="#7191E6" stroke-width="0.140442" stroke-miterlimit="10"/>
<path d="M-76.5974 408.54L-48.1717 349.686L57.858 400.882L33.9419 450.393L6.685 372.141L25.6068 332.974L-67.2887 288.119L-96.2949 348.177L-76.5974 408.54Z" stroke="#7191E6" stroke-width="0.140442" stroke-miterlimit="10"/>
<path d="M-78.9064 408.962L-50.4808 350.109L55.5489 401.304L31.6328 450.816L4.38098 372.566L23.3007 333.392L-69.5898 288.54L-98.6011 348.595L-78.9064 408.962Z" stroke="#7191E6" stroke-width="0.140442" stroke-miterlimit="10"/>
<path d="M-81.215 409.385L-52.7865 350.527L53.2432 401.722L29.3242 451.239L2.07531 372.984L20.9921 333.814L-71.8983 288.963L-100.905 349.02L-81.215 409.385Z" stroke="#7191E6" stroke-width="0.140442" stroke-miterlimit="10"/>
<path d="M-83.5209 409.802L-55.0952 350.949L50.9344 402.145L27.0234 451.659L-0.233447 373.406L18.6833 334.237L-74.2042 289.38L-103.21 349.438L-83.5209 409.802Z" stroke="#7191E6" stroke-width="0.140442" stroke-miterlimit="10"/>
<path d="M-85.83 410.225L-57.4014 351.367L48.6254 402.567L24.7143 452.082L-2.54253 373.829L16.3772 334.655L-76.5133 289.803L-105.52 349.86L-85.83 410.225Z" stroke="#7191E6" stroke-width="0.140442" stroke-miterlimit="10"/>
<path d="M-88.1311 410.646L-59.7054 351.793L46.3243 402.988L22.4082 452.5L-4.84869 374.247L14.0731 335.081L-78.8223 290.226L-107.829 350.284L-88.1311 410.646Z" stroke="#7191E6" stroke-width="0.140442" stroke-miterlimit="10"/>
<path d="M-90.4401 411.069L-62.0145 352.216L44.0152 403.411L20.0991 452.923L-7.15271 374.673L11.767 335.498L-81.1285 290.644L-110.135 350.701L-90.4401 411.069Z" stroke="#7191E6" stroke-width="0.140442" stroke-miterlimit="10"/>
<path d="M-92.7487 411.492L-64.3202 352.633L41.7095 403.829L17.7905 453.345L-9.45838 375.09L9.45839 335.921L-83.432 291.069L-112.438 351.127L-92.7487 411.492Z" stroke="#7191E6" stroke-width="0.140442" stroke-miterlimit="10"/>
<path d="M-95.0546 411.909L-66.6289 353.056L39.4008 404.251L15.4897 453.766L-11.7672 375.513L7.14962 336.344L-85.7379 291.487L-114.744 351.544L-95.0546 411.909Z" stroke="#7191E6" stroke-width="0.140442" stroke-miterlimit="10"/>
<path d="M-97.3636 412.332L-68.9351 353.473L37.0917 404.674L13.1806 454.188L-14.0762 375.936L4.84347 336.761L-88.047 291.909L-117.053 351.967L-97.3636 412.332Z" stroke="#7191E6" stroke-width="0.140442" stroke-miterlimit="10"/>
<path d="M-99.6643 412.752L-71.2386 353.899L34.7911 405.094L10.875 454.606L-16.3819 376.353L2.53993 337.186L-90.3555 292.332L-119.362 352.389L-99.6643 412.752Z" stroke="#7191E6" stroke-width="0.140442" stroke-miterlimit="10"/>
<path d="M-101.973 413.175L-73.5472 354.321L32.4825 405.517L8.56639 455.028L-18.6854 376.779L0.234266 337.604L-92.6612 292.749L-121.667 352.807L-101.973 413.175Z" stroke="#7191E6" stroke-width="0.140442" stroke-miterlimit="10"/>
<path d="M-104.282 413.598L-75.8534 354.739L30.1763 405.934L6.2573 455.451L-20.9916 377.196L-2.07482 338.027L-94.9652 293.175L-123.977 353.23L-104.282 413.598Z" stroke="#7191E6" stroke-width="0.140442" stroke-miterlimit="10"/>
<path d="M-106.588 414.016L-78.1621 355.163L27.8675 406.358L3.95652 455.872L-23.3004 377.62L-4.38358 338.45L-97.2711 293.593L-126.277 353.651L-106.588 414.016Z" stroke="#7191E6" stroke-width="0.140442" stroke-miterlimit="10"/>
<path d="M-108.896 414.438L-80.4678 355.579L25.5589 406.78L1.64792 456.294L-25.609 378.041L-6.68927 338.867L-99.5797 294.015L-128.586 354.073L-108.896 414.438Z" stroke="#7191E6" stroke-width="0.140442" stroke-miterlimit="10"/>
<path d="M-111.197 414.859L-82.7769 356.003L23.2579 407.201L-0.658229 456.712L-27.9151 378.46L-8.99326 339.293L-101.889 294.438L-130.895 354.496L-111.197 414.859Z" stroke="#7191E6" stroke-width="0.140442" stroke-miterlimit="10"/>
<path d="M-113.506 415.281L-85.0804 356.428L20.9493 407.624L-2.96682 457.135L-30.2186 378.885L-11.2989 339.711L-104.194 294.856L-133.201 354.914L-113.506 415.281Z" stroke="#7191E6" stroke-width="0.140442" stroke-miterlimit="10"/>
<path d="M-115.815 415.704L-87.3866 356.846L18.6431 408.041L-5.2759 457.558L-32.5248 379.303L-13.608 340.134L-106.498 295.282L-135.51 355.336L-115.815 415.704Z" stroke="#7191E6" stroke-width="0.140442" stroke-miterlimit="10"/>
<path d="M-118.121 416.122L-89.6953 357.268L16.3343 408.464L-7.57669 457.978L-34.8336 379.725L-15.9168 340.556L-108.804 295.699L-137.811 355.757L-118.121 416.122Z" stroke="#7191E6" stroke-width="0.140442" stroke-miterlimit="10"/>
<path d="M-120.43 416.544L-92.001 357.686L14.0258 408.886L-9.88528 458.401L-37.1422 380.148L-18.2225 340.974L-111.113 296.122L-140.119 356.179L-120.43 416.544Z" stroke="#7191E6" stroke-width="0.140442" stroke-miterlimit="10"/>
<path d="M-122.73 416.965L-94.3096 358.108L11.7201 409.304L-12.1909 458.818L-39.4478 380.565L-20.526 341.399L-113.421 296.544L-142.428 356.602L-122.73 416.965Z" stroke="#7191E6" stroke-width="0.140442" stroke-miterlimit="10"/>
<path d="M-125.039 417.387L-96.6136 358.534L9.41607 409.729L-14.5 459.241L-41.7569 380.988L-22.8321 341.817L-115.728 296.962L-144.734 357.019L-125.039 417.387Z" stroke="#7191E6" stroke-width="0.140442" stroke-miterlimit="10"/>
<path d="M-127.348 417.81L-98.9193 358.952L7.1104 410.147L-16.8086 459.663L-44.0575 381.409L-25.1407 342.239L-118.031 297.387L-147.043 357.442L-127.348 417.81Z" stroke="#7191E6" stroke-width="0.140442" stroke-miterlimit="10"/>
<path d="M-129.654 418.227L-101.228 359.374L4.80132 410.569L-19.1148 460.081L-46.3666 381.831L-27.4498 342.662L-120.337 297.805L-149.344 357.862L-129.654 418.227Z" stroke="#7191E6" stroke-width="0.140442" stroke-miterlimit="10"/>
<path d="M-131.963 418.65L-103.534 359.792L2.49255 410.992L-21.4185 460.507L-48.6753 382.254L-29.7557 343.079L-122.646 298.228L-151.652 358.285L-131.963 418.65Z" stroke="#7191E6" stroke-width="0.140442" stroke-miterlimit="10"/>
<path d="M-134.271 419.073L-105.843 360.214L0.18688 411.41L-23.7242 460.924L-50.981 382.671L-32.0643 343.502L-124.955 298.65L-153.961 358.708L-134.271 419.073Z" stroke="#7191E6" stroke-width="0.140442" stroke-miterlimit="10"/>
<path d="M-136.573 419.494L-108.147 360.641L-2.11763 411.836L-26.0337 461.347L-53.2906 383.095L-34.3658 343.923L-127.261 299.068L-156.268 359.126L-136.573 419.494Z" stroke="#7191E6" stroke-width="0.140442" stroke-miterlimit="10"/>
<path d="M-138.882 419.917L-110.453 361.058L-4.4233 412.254L-28.3423 461.77L-55.5912 383.515L-36.6744 344.346L-129.57 299.491L-158.576 359.549L-138.882 419.917Z" stroke="#7191E6" stroke-width="0.140442" stroke-miterlimit="10"/>
<path d="M-141.187 420.334L-112.762 361.481L-6.73188 412.676L-30.648 462.187L-57.8998 383.938L-38.983 344.768L-131.871 299.911L-160.882 359.966L-141.187 420.334Z" stroke="#7191E6" stroke-width="0.140442" stroke-miterlimit="10"/>
<path d="M-143.496 420.757L-115.067 361.898L-9.04066 413.099L-32.9517 462.613L-60.2086 384.361L-41.2889 345.186L-134.179 300.334L-163.186 360.392L-143.496 420.757Z" stroke="#7191E6" stroke-width="0.140442" stroke-miterlimit="10"/>
<path d="M-145.805 421.18L-117.376 362.321L-11.3463 413.517L-35.2603 463.036L-62.5142 384.778L-43.5975 345.609L-136.488 300.757L-165.494 360.815L-145.805 421.18Z" stroke="#7191E6" stroke-width="0.140442" stroke-miterlimit="10"/>
<path d="M-148.106 421.6L-119.68 362.746L-13.6503 413.942L-37.5664 463.453L-64.8233 385.201L-45.8986 346.029L-138.794 301.174L-167.8 361.232L-148.106 421.6Z" stroke="#7191E6" stroke-width="0.140442" stroke-miterlimit="10"/>
<path d="M-150.415 422.022L-121.986 363.164L-15.9565 414.359L-39.8755 463.876L-67.1244 385.621L-48.2076 346.452L-141.103 301.597L-170.109 361.654L-150.415 422.022Z" stroke="#7191E6" stroke-width="0.140442" stroke-miterlimit="10"/>
<path d="M-152.72 422.441L-124.295 363.587L-18.2651 414.783L-42.1812 464.294L-69.433 386.044L-50.5162 346.875L-143.407 302.023L-172.415 362.073L-152.72 422.441Z" stroke="#7191E6" stroke-width="0.140442" stroke-miterlimit="10"/>
<path d="M-155.029 422.863L-126.601 364.004L-20.5739 415.205L-44.4849 464.719L-71.7418 386.466L-52.8221 347.292L-145.712 302.44L-174.719 362.498L-155.029 422.863Z" stroke="#7191E6" stroke-width="0.140442" stroke-miterlimit="10"/>
<path d="M-157.338 423.285L-128.91 364.427L-22.88 415.622L-46.794 465.142L-74.0479 386.884L-55.1312 347.714L-148.022 302.863L-177.028 362.92L-157.338 423.285Z" stroke="#7191E6" stroke-width="0.140442" stroke-miterlimit="10"/>
</svg>
