<svg width="240" height="374" viewBox="0 0 240 374" fill="none" xmlns="http://www.w3.org/2000/svg">
<g opacity="0.5" clip-path="url(#clip0_196_35624)">
<path d="M265.059 208.768L328.165 225.706L297.723 339.487L244.632 325.24L316.373 283.821L358.373 295.091L385.044 195.406L320.65 178.131L265.059 208.768Z" stroke="#7191E6" stroke-width="0.140442" stroke-miterlimit="10"/>
<path d="M264.21 207.029L327.041 224.343L295.906 337.638L243.048 323.069L314.888 282.241L356.703 293.766L383.979 194.508L319.862 176.836L264.21 207.029Z" stroke="#7191E6" stroke-width="0.140442" stroke-miterlimit="10"/>
<path d="M263.355 205.288L325.915 222.988L294.096 335.787L241.465 320.898L313.4 280.656L355.037 292.432L382.92 193.608L319.079 175.547L263.355 205.288Z" stroke="#7191E6" stroke-width="0.140442" stroke-miterlimit="10"/>
<path d="M262.502 203.545L324.789 221.625L292.278 333.939L239.874 318.729L311.914 279.068L353.371 291.104L381.853 192.71L318.292 174.258L262.502 203.545Z" stroke="#7191E6" stroke-width="0.140442" stroke-miterlimit="10"/>
<path d="M261.651 201.801L323.668 220.267L290.463 332.09L238.29 316.558L310.427 277.483L351.705 289.771L380.792 191.804L317.505 172.964L261.651 201.801Z" stroke="#7191E6" stroke-width="0.140442" stroke-miterlimit="10"/>
<path d="M260.794 200.061L322.546 218.908L288.651 330.239L236.705 314.387L308.94 275.903L350.034 288.445L379.726 190.906L316.72 171.675L260.794 200.061Z" stroke="#7191E6" stroke-width="0.140442" stroke-miterlimit="10"/>
<path d="M259.943 198.317L321.418 217.548L286.836 328.391L235.119 312.21L307.457 274.315L348.371 287.117L378.667 190.005L315.936 170.386L259.943 198.317Z" stroke="#7191E6" stroke-width="0.140442" stroke-miterlimit="10"/>
<path d="M259.091 196.573L320.295 216.19L285.024 326.539L233.534 310.039L305.968 272.73L346.703 285.784L377.606 189.105L315.15 169.096L259.091 196.573Z" stroke="#7191E6" stroke-width="0.140442" stroke-miterlimit="10"/>
<path d="M258.237 194.838L319.171 214.827L283.208 324.691L231.949 307.867L304.482 271.15L345.039 284.455L376.541 188.207L314.362 167.802L258.237 194.838Z" stroke="#7191E6" stroke-width="0.140442" stroke-miterlimit="10"/>
<path d="M257.386 193.095L318.044 213.472L281.392 322.843L230.36 305.699L302.999 269.562L343.366 283.125L375.482 187.306L313.583 166.511L257.386 193.095Z" stroke="#7191E6" stroke-width="0.140442" stroke-miterlimit="10"/>
<path d="M256.535 191.351L316.921 212.109L279.582 320.992L228.777 303.528L301.511 267.977L341.703 281.797L374.415 186.404L312.799 165.221L256.535 191.351Z" stroke="#7191E6" stroke-width="0.140442" stroke-miterlimit="10"/>
<path d="M255.678 189.61L315.798 210.751L277.765 319.143L227.192 301.357L300.024 266.397L340.035 280.464L373.354 185.503L312.013 163.932L255.678 189.61Z" stroke="#7191E6" stroke-width="0.140442" stroke-miterlimit="10"/>
<path d="M254.827 187.867L314.673 209.396L275.955 317.292L225.609 299.185L298.542 264.809L338.372 279.135L372.29 184.605L311.227 162.638L254.827 187.867Z" stroke="#7191E6" stroke-width="0.140442" stroke-miterlimit="10"/>
<path d="M253.975 186.123L313.548 208.033L274.137 315.444L224.023 297.014L297.052 263.224L336.698 277.805L371.229 183.704L310.441 161.349L253.975 186.123Z" stroke="#7191E6" stroke-width="0.140442" stroke-miterlimit="10"/>
<path d="M253.119 184.383L312.426 206.674L272.321 313.595L222.431 294.841L295.567 261.644L335.034 276.477L370.17 182.804L309.656 160.06L253.119 184.383Z" stroke="#7191E6" stroke-width="0.140442" stroke-miterlimit="10"/>
<path d="M252.27 182.644L311.297 205.314L270.51 311.744L220.847 292.669L294.083 260.056L333.37 275.148L369.105 181.906L308.869 158.765L252.27 182.644Z" stroke="#7191E6" stroke-width="0.140442" stroke-miterlimit="10"/>
<path d="M251.355 180.789L310.112 203.845L268.631 309.784L219.199 290.386L292.531 258.36L331.639 273.703L367.978 180.888L308.021 157.365L251.355 180.789Z" stroke="#7191E6" stroke-width="0.140442" stroke-miterlimit="10"/>
<path d="M250.367 178.821L308.859 202.259L266.688 307.705L217.483 287.988L290.913 256.552L329.838 272.151L366.785 179.768L307.104 155.848L250.367 178.821Z" stroke="#7191E6" stroke-width="0.140442" stroke-miterlimit="10"/>
<path d="M249.384 176.849L307.597 200.671L264.74 305.629L215.767 285.588L289.298 254.736L328.042 270.594L365.593 178.639L306.187 154.331L249.384 176.849Z" stroke="#7191E6" stroke-width="0.140442" stroke-miterlimit="10"/>
<path d="M248.403 174.883L306.344 199.085L262.797 303.55L214.046 283.192L287.68 252.929L326.243 269.033L364.396 177.514L305.271 152.814L248.403 174.883Z" stroke="#7191E6" stroke-width="0.140442" stroke-miterlimit="10"/>
<path d="M247.415 172.914L305.091 197.499L260.852 301.479L212.33 280.793L286.06 251.116L324.447 267.477L363.205 176.385L304.354 151.297L247.415 172.914Z" stroke="#7191E6" stroke-width="0.140442" stroke-miterlimit="10"/>
<path d="M246.432 170.943L303.833 195.916L258.904 299.402L210.614 278.393L284.447 249.305L322.646 265.923L362.013 175.256L303.438 149.78L246.432 170.943Z" stroke="#7191E6" stroke-width="0.140442" stroke-miterlimit="10"/>
<path d="M245.452 168.976L302.58 194.33L256.962 297.323L208.899 275.994L282.828 247.492L320.85 264.367L360.817 174.131L302.522 148.263L245.452 168.976Z" stroke="#7191E6" stroke-width="0.140442" stroke-miterlimit="10"/>
<path d="M244.464 167.008L301.324 192.739L255.014 295.247L207.186 273.6L281.21 245.684L319.054 262.811L359.626 173.002L301.605 146.746L244.464 167.008Z" stroke="#7191E6" stroke-width="0.140442" stroke-miterlimit="10"/>
<path d="M243.481 165.037L300.066 191.156L253.071 293.168L205.47 271.201L279.595 243.869L317.255 261.25L358.429 171.877L300.689 145.229L243.481 165.037Z" stroke="#7191E6" stroke-width="0.140442" stroke-miterlimit="10"/>
<path d="M242.501 163.07L298.812 189.57L251.127 291.096L203.749 268.805L277.978 242.06L315.459 259.694L357.237 170.748L299.772 143.712L242.501 163.07Z" stroke="#7191E6" stroke-width="0.140442" stroke-miterlimit="10"/>
<path d="M241.514 161.102L297.561 187.984L249.18 289.021L202.035 266.406L276.359 240.248L313.66 258.141L356.043 169.622L298.855 142.19L241.514 161.102Z" stroke="#7191E6" stroke-width="0.140442" stroke-miterlimit="10"/>
<path d="M240.533 159.135L296.307 186.398L247.237 286.941L200.318 264.006L274.746 238.437L311.863 256.584L354.85 168.494L297.937 140.673L240.533 159.135Z" stroke="#7191E6" stroke-width="0.140442" stroke-miterlimit="10"/>
<path d="M239.55 157.164L295.046 184.81L245.289 284.865L198.602 261.607L273.125 236.624L310.064 255.023L353.653 167.368L297.021 139.156L239.55 157.164Z" stroke="#7191E6" stroke-width="0.140442" stroke-miterlimit="10"/>
<path d="M238.561 155.195L293.792 183.224L243.349 282.791L196.885 259.208L271.508 234.816L308.268 253.467L352.462 166.239L296.104 137.639L238.561 155.195Z" stroke="#7191E6" stroke-width="0.140442" stroke-miterlimit="10"/>
<path d="M237.581 153.229L292.539 181.638L241.401 280.714L195.165 256.811L269.895 233.005L306.467 251.914L351.27 165.111L295.193 136.119L237.581 153.229Z" stroke="#7191E6" stroke-width="0.140442" stroke-miterlimit="10"/>
<path d="M236.6 151.257L291.283 180.055L239.455 278.638L193.45 254.413L268.277 231.193L304.672 250.358L350.075 163.985L294.278 134.602L236.6 151.257Z" stroke="#7191E6" stroke-width="0.140442" stroke-miterlimit="10"/>
<path d="M235.611 149.289L290.029 178.469L237.512 276.559L191.734 252.013L266.659 229.385L302.876 248.801L348.884 162.856L293.362 133.085L235.611 149.289Z" stroke="#7191E6" stroke-width="0.140442" stroke-miterlimit="10"/>
<path d="M234.63 147.323L288.772 176.878L235.563 274.483L190.017 249.614L265.043 227.569L301.076 247.24L347.686 161.731L292.444 131.568L234.63 147.323Z" stroke="#7191E6" stroke-width="0.140442" stroke-miterlimit="10"/>
<path d="M233.647 145.351L287.514 175.295L233.623 272.409L188.301 247.215L263.425 225.761L299.275 245.687L346.497 160.607L291.527 130.051L233.647 145.351Z" stroke="#7191E6" stroke-width="0.140442" stroke-miterlimit="10"/>
<path d="M232.66 143.383L286.262 173.709L231.676 270.333L186.584 244.824L261.806 223.948L297.48 244.131L345.302 159.482L290.612 128.534L232.66 143.383Z" stroke="#7191E6" stroke-width="0.140442" stroke-miterlimit="10"/>
<path d="M231.68 141.416L285.009 172.123L229.729 268.256L184.869 242.424L260.194 222.137L295.685 242.575L344.111 158.353L289.696 127.017L231.68 141.416Z" stroke="#7191E6" stroke-width="0.140442" stroke-miterlimit="10"/>
<path d="M230.697 139.444L283.748 170.534L227.786 266.177L183.153 240.025L258.574 220.324L293.886 241.013L342.919 157.224L288.78 125.5L230.697 139.444Z" stroke="#7191E6" stroke-width="0.140442" stroke-miterlimit="10"/>
<path d="M229.709 137.476L282.495 168.949L225.838 264.101L181.437 237.626L256.956 218.517L292.085 239.46L341.722 156.099L287.863 123.983L229.709 137.476Z" stroke="#7191E6" stroke-width="0.140442" stroke-miterlimit="10"/>
<path d="M228.729 135.51L281.242 167.363L223.899 262.027L179.722 235.227L255.342 216.701L290.289 237.904L340.532 154.97L286.948 122.466L228.729 135.51Z" stroke="#7191E6" stroke-width="0.140442" stroke-miterlimit="10"/>
<path d="M227.746 133.538L279.984 165.78L221.951 259.951L178.006 232.828L253.724 214.893L288.493 236.348L339.335 153.845L286.031 120.949L227.746 133.538Z" stroke="#7191E6" stroke-width="0.140442" stroke-miterlimit="10"/>
<path d="M226.761 131.575L278.731 164.194L220.004 257.875L176.285 230.432L252.109 213.078L286.697 234.792L338.144 152.716L285.115 119.432L226.761 131.575Z" stroke="#7191E6" stroke-width="0.140442" stroke-miterlimit="10"/>
<path d="M225.777 129.604L277.475 162.603L218.061 255.795L174.569 228.032L250.491 211.27L284.893 233.234L336.947 151.59L284.198 117.915L225.777 129.604Z" stroke="#7191E6" stroke-width="0.140442" stroke-miterlimit="10"/>
<path d="M224.794 127.632L276.216 161.02L216.113 253.719L172.853 225.633L248.871 209.457L283.097 231.677L335.755 150.462L283.281 116.398L224.794 127.632Z" stroke="#7191E6" stroke-width="0.140442" stroke-miterlimit="10"/>
<path d="M223.81 125.669L274.964 159.434L214.174 251.645L171.138 223.234L247.259 207.646L281.302 230.121L334.564 149.333L282.363 114.876L223.81 125.669Z" stroke="#7191E6" stroke-width="0.140442" stroke-miterlimit="10"/>
<path d="M222.826 123.697L273.711 157.848L212.226 249.569L169.421 220.835L245.639 205.833L279.506 228.565L333.368 148.207L281.446 113.359L222.826 123.697Z" stroke="#7191E6" stroke-width="0.140442" stroke-miterlimit="10"/>
<path d="M221.842 121.725L272.452 156.265L210.277 247.492L167.7 218.438L244.021 204.025L277.701 227.007L332.175 147.078L280.529 111.842L221.842 121.725Z" stroke="#7191E6" stroke-width="0.140442" stroke-miterlimit="10"/>
<path d="M220.863 119.759L271.196 154.674L208.335 245.413L165.987 216.044L242.409 202.214L275.906 225.451L330.979 145.953L279.613 110.325L220.863 119.759Z" stroke="#7191E6" stroke-width="0.140442" stroke-miterlimit="10"/>
<path d="M219.875 117.791L269.943 153.088L206.39 243.342L164.271 213.645L240.789 200.402L274.109 223.895L329.788 144.825L278.697 108.808L219.875 117.791Z" stroke="#7191E6" stroke-width="0.140442" stroke-miterlimit="10"/>
<path d="M218.891 115.819L268.69 151.502L204.447 241.263L162.555 211.246L239.171 198.594L272.313 222.338L328.591 143.699L277.78 107.291L218.891 115.819Z" stroke="#7191E6" stroke-width="0.140442" stroke-miterlimit="10"/>
<path d="M217.912 113.853L267.432 149.919L202.5 239.187L160.84 208.847L237.557 196.778L270.513 220.785L327.403 142.575L276.864 105.774L217.912 113.853Z" stroke="#7191E6" stroke-width="0.140442" stroke-miterlimit="10"/>
<path d="M216.923 111.884L266.178 148.333L200.556 237.108L159.118 206.45L235.938 194.97L268.713 219.224L326.206 141.45L275.952 104.254L216.923 111.884Z" stroke="#7191E6" stroke-width="0.140442" stroke-miterlimit="10"/>
<path d="M215.944 109.918L264.923 146.742L198.609 235.031L157.403 204.051L234.319 193.157L266.918 217.667L325.015 140.321L275.037 102.737L215.944 109.918Z" stroke="#7191E6" stroke-width="0.140442" stroke-miterlimit="10"/>
<path d="M214.96 107.947L263.665 145.159L196.664 232.96L155.687 201.652L232.706 191.347L265.122 216.112L323.823 139.192L274.12 101.22L214.96 107.947Z" stroke="#7191E6" stroke-width="0.140442" stroke-miterlimit="10"/>
<path d="M213.972 105.978L262.411 143.573L194.721 230.881L153.971 199.253L231.086 189.533L263.326 214.555L322.627 138.067L273.203 99.7028L213.972 105.978Z" stroke="#7191E6" stroke-width="0.140442" stroke-miterlimit="10"/>
<path d="M212.993 104.012L261.159 141.987L192.774 228.805L152.256 196.854L229.469 187.726L261.525 213.002L321.436 136.938L272.288 98.186L212.993 104.012Z" stroke="#7191E6" stroke-width="0.140442" stroke-miterlimit="10"/>
<path d="M212.008 102.04L259.9 140.404L190.831 226.725L150.534 194.457L227.853 185.91L259.726 211.441L320.238 135.812L271.37 96.6689L212.008 102.04Z" stroke="#7191E6" stroke-width="0.140442" stroke-miterlimit="10"/>
<path d="M211.022 100.072L258.646 138.813L188.885 224.65L148.82 192.058L226.237 184.102L257.931 209.885L319.049 134.684L270.456 95.1522L211.022 100.072Z" stroke="#7191E6" stroke-width="0.140442" stroke-miterlimit="10"/>
<path d="M210.041 98.1053L257.391 137.227L186.939 222.578L147.103 189.659L224.616 182.289L256.134 208.328L317.851 133.558L269.538 93.6348L210.041 98.1053Z" stroke="#7191E6" stroke-width="0.140442" stroke-miterlimit="10"/>
<path d="M209.057 96.1341L256.133 135.644L184.996 220.499L145.39 187.265L223.003 180.479L254.333 206.776L316.659 132.43L268.622 92.1181L209.057 96.1341Z" stroke="#7191E6" stroke-width="0.140442" stroke-miterlimit="10"/>
<path d="M208.071 94.1655L254.882 134.058L183.05 218.423L143.675 184.866L221.385 178.666L252.536 205.214L315.47 131.301L267.707 90.601L208.071 94.1655Z" stroke="#7191E6" stroke-width="0.140442" stroke-miterlimit="10"/>
<path d="M207.09 92.1987L253.627 132.472L181.106 216.343L141.958 182.466L219.766 176.858L250.739 203.658L314.272 130.175L266.786 89.0786L207.09 92.1987Z" stroke="#7191E6" stroke-width="0.140442" stroke-miterlimit="10"/>
<path d="M206.108 90.2276L252.367 130.884L179.159 214.267L140.238 180.07L218.152 175.042L248.944 202.102L313.081 129.047L265.871 87.5619L206.108 90.2276Z" stroke="#7191E6" stroke-width="0.140442" stroke-miterlimit="10"/>
<path d="M205.119 88.259L251.114 129.298L177.214 212.196L138.522 177.671L216.534 173.234L247.143 200.549L311.885 127.921L264.954 86.0447L205.119 88.259Z" stroke="#7191E6" stroke-width="0.140442" stroke-miterlimit="10"/>
<path d="M204.138 86.2927L249.86 127.712L175.27 210.117L136.805 175.272L214.916 171.426L245.345 198.993L310.692 126.792L264.037 84.5279L204.138 86.2927Z" stroke="#7191E6" stroke-width="0.140442" stroke-miterlimit="10"/>
<path d="M203.157 84.3211L248.603 126.129L173.324 208.041L135.091 172.872L213.302 169.61L243.548 197.431L309.497 125.667L263.122 83.0107L203.157 84.3211Z" stroke="#7191E6" stroke-width="0.140442" stroke-miterlimit="10"/>
<path d="M202.17 82.3578L247.349 124.543L171.38 205.962L133.374 170.473L211.684 167.803L241.751 195.875L308.308 124.543L262.205 81.4939L202.17 82.3578Z" stroke="#7191E6" stroke-width="0.140442" stroke-miterlimit="10"/>
<path d="M201.188 80.3862L246.094 122.952L169.436 203.89L131.654 168.077L210.065 165.99L239.951 194.322L307.117 123.414L261.289 79.9767L201.188 80.3862Z" stroke="#7191E6" stroke-width="0.140442" stroke-miterlimit="10"/>
<path d="M200.205 78.4151L244.836 121.369L167.488 201.814L129.938 165.678L208.452 164.179L238.155 192.766L305.92 122.289L260.373 78.4601L200.205 78.4151Z" stroke="#7191E6" stroke-width="0.140442" stroke-miterlimit="10"/>
<path d="M199.22 76.4513L243.583 119.783L165.546 199.735L128.223 163.279L206.833 162.366L236.357 191.204L304.73 121.16L259.457 76.9427L199.22 76.4513Z" stroke="#7191E6" stroke-width="0.140442" stroke-miterlimit="10"/>
<path d="M198.237 74.4797L242.33 118.197L163.598 197.659L126.507 160.879L205.215 160.558L234.561 189.648L303.533 120.034L258.54 75.4255L198.237 74.4797Z" stroke="#7191E6" stroke-width="0.140442" stroke-miterlimit="10"/>
<path d="M197.254 72.5086L241.069 116.609L161.656 195.58L124.791 158.48L203.6 158.743L232.76 188.095L302.341 118.906L257.624 73.9089L197.254 72.5086Z" stroke="#7191E6" stroke-width="0.140442" stroke-miterlimit="10"/>
<path d="M196.269 70.5448L239.816 115.023L159.711 193.508L123.073 156.089L201.982 156.934L230.964 186.539L301.145 117.78L256.707 72.3915L196.269 70.5448Z" stroke="#7191E6" stroke-width="0.140442" stroke-miterlimit="10"/>
<path d="M195.285 68.5737L238.562 113.437L157.763 191.432L121.357 153.69L200.362 155.122L229.167 184.983L299.953 116.652L255.796 70.8719L195.285 68.5737Z" stroke="#7191E6" stroke-width="0.140442" stroke-miterlimit="10"/>
<path d="M194.302 66.6021L237.309 111.851L155.82 189.353L119.641 151.291L198.749 153.311L227.368 183.421L298.761 115.523L254.879 69.3548L194.302 66.6021Z" stroke="#7191E6" stroke-width="0.140442" stroke-miterlimit="10"/>
<path d="M193.318 64.6388L236.052 110.268L153.873 187.277L117.926 148.892L197.13 151.498L225.568 181.868L297.565 114.398L253.964 67.8379L193.318 64.6388Z" stroke="#7191E6" stroke-width="0.140442" stroke-miterlimit="10"/>
<path d="M192.334 62.6672L234.795 108.677L151.93 185.198L116.209 146.492L195.512 149.69L223.772 180.312L296.374 113.269L253.047 66.3208L192.334 62.6672Z" stroke="#7191E6" stroke-width="0.140442" stroke-miterlimit="10"/>
<path d="M191.351 60.6961L233.542 107.091L149.985 183.127L114.493 144.093L193.897 147.875L221.976 178.756L295.177 112.143L252.13 64.8041L191.351 60.6961Z" stroke="#7191E6" stroke-width="0.140442" stroke-miterlimit="10"/>
<path d="M190.366 58.7323L232.284 105.508L148.037 181.05L112.772 141.697L192.279 146.067L220.177 177.195L293.986 111.015L251.214 63.2867L190.366 58.7323Z" stroke="#7191E6" stroke-width="0.140442" stroke-miterlimit="10"/>
<path d="M189.382 56.7607L231.031 103.922L146.094 178.971L111.056 139.297L190.659 144.254L218.376 175.641L292.789 109.889L250.294 61.7645L189.382 56.7607Z" stroke="#7191E6" stroke-width="0.140442" stroke-miterlimit="10"/>
<path d="M188.403 54.7944L229.778 102.336L144.147 176.895L109.341 136.898L189.047 142.443L216.581 174.085L291.598 108.76L249.379 60.2477L188.403 54.7944Z" stroke="#7191E6" stroke-width="0.140442" stroke-miterlimit="10"/>
<path d="M187.415 52.8263L228.517 100.748L142.204 174.816L107.625 134.499L187.427 140.63L214.784 172.529L290.401 107.635L248.462 58.731L187.415 52.8263Z" stroke="#7191E6" stroke-width="0.140442" stroke-miterlimit="10"/>
<path d="M186.431 50.8547L227.264 99.1619L140.259 172.745L105.909 132.1L185.809 138.822L212.988 170.973L289.21 106.506L247.546 57.2138L186.431 50.8547Z" stroke="#7191E6" stroke-width="0.140442" stroke-miterlimit="10"/>
<path d="M185.451 48.8884L226.011 97.5761L138.311 170.669L104.188 129.704L184.197 137.012L211.189 169.412L288.021 105.383L246.629 55.697L185.451 48.8884Z" stroke="#7191E6" stroke-width="0.140442" stroke-miterlimit="10"/>
<path d="M184.463 46.9197L224.752 95.9929L136.368 168.589L102.475 127.31L182.577 135.199L209.388 167.859L286.824 104.257L245.713 54.1798L184.463 46.9197Z" stroke="#7191E6" stroke-width="0.140442" stroke-miterlimit="10"/>
<path d="M183.48 44.9482L223.499 94.4068L134.421 166.513L100.759 124.91L180.959 133.391L207.592 166.302L285.633 103.128L244.796 52.6627L183.48 44.9482Z" stroke="#7191E6" stroke-width="0.140442" stroke-miterlimit="10"/>
<path d="M182.5 42.9819L222.244 92.816L132.482 164.439L99.0438 122.511L179.345 131.575L205.797 164.746L284.437 102.003L243.88 51.1458L182.5 42.9819Z" stroke="#7191E6" stroke-width="0.140442" stroke-miterlimit="10"/>
<path d="M181.512 41.0132L220.985 91.2328L130.534 162.362L97.3277 120.112L177.727 129.767L204.001 163.19L283.245 100.874L242.964 49.6286L181.512 41.0132Z" stroke="#7191E6" stroke-width="0.140442" stroke-miterlimit="10"/>
<path d="M180.53 39.0416L219.733 89.6467L128.592 160.283L95.6077 117.715L176.108 127.954L202.198 161.632L282.05 99.7481L242.048 48.1115L180.53 39.0416Z" stroke="#7191E6" stroke-width="0.140442" stroke-miterlimit="10"/>
<path d="M179.548 37.0754L218.479 88.0608L126.643 158.207L93.8907 115.316L174.494 126.144L200.401 160.076L280.857 98.6196L241.131 46.5946L179.548 37.0754Z" stroke="#7191E6" stroke-width="0.140442" stroke-miterlimit="10"/>
<path d="M178.562 35.1072L217.222 86.4781L124.697 156.131L92.1766 112.918L172.876 124.331L198.606 158.52L279.667 97.4914L240.216 45.078L178.562 35.1072Z" stroke="#7191E6" stroke-width="0.140442" stroke-miterlimit="10"/>
<path d="M177.579 33.1356L215.966 84.887L122.757 154.057L90.4605 110.518L171.258 122.523L196.81 156.963L278.471 96.3655L239.3 43.5608L177.579 33.1356Z" stroke="#7191E6" stroke-width="0.140442" stroke-miterlimit="10"/>
<path d="M176.597 31.1694L214.712 83.3011L120.808 151.981L88.7434 108.119L169.642 120.707L195.005 155.405L277.278 95.2371L238.382 42.0439L176.597 31.1694Z" stroke="#7191E6" stroke-width="0.140442" stroke-miterlimit="10"/>
<path d="M175.609 29.2007L213.454 81.718L118.865 149.901L87.0274 105.72L168.024 118.899L193.209 153.849L276.081 94.1113L237.465 40.5268L175.609 29.2007Z" stroke="#7191E6" stroke-width="0.140442" stroke-miterlimit="10"/>
<path d="M174.629 27.234L212.2 80.1317L116.917 147.825L85.3064 103.323L166.404 117.086L191.413 152.293L274.89 92.9823L236.554 39.0065L174.629 27.234Z" stroke="#7191E6" stroke-width="0.140442" stroke-miterlimit="10"/>
<path d="M173.648 25.2629L210.949 78.546L114.971 145.749L83.5923 100.924L164.793 115.276L189.619 150.737L273.695 91.857L235.639 37.4899L173.648 25.2629Z" stroke="#7191E6" stroke-width="0.140442" stroke-miterlimit="10"/>
<path d="M172.659 23.2942L209.693 76.9549L113.031 143.675L81.8791 98.53L163.173 113.463L187.818 149.183L272.503 90.7282L234.72 35.9676L172.659 23.2942Z" stroke="#7191E6" stroke-width="0.140442" stroke-miterlimit="10"/>
<path d="M171.678 21.328L208.434 75.372L111.082 141.599L80.1621 96.131L161.554 111.655L186.018 147.622L271.311 89.5998L233.802 34.4508L171.678 21.328Z" stroke="#7191E6" stroke-width="0.140442" stroke-miterlimit="10"/>
<path d="M172.467 19.117L209.226 73.1661L111.871 139.388L80.9511 93.92L162.343 109.444L186.81 145.416L272.098 87.3968L234.589 32.2478L172.467 19.117Z" stroke="#7191E6" stroke-width="0.140442" stroke-miterlimit="10"/>
<path d="M173.255 16.9061L210.014 70.9552L112.662 137.182L81.7343 91.712L163.134 107.238L187.598 143.205L272.886 85.1859L235.378 30.0369L173.255 16.9061Z" stroke="#7191E6" stroke-width="0.140442" stroke-miterlimit="10"/>
<path d="M174.046 14.7005L210.802 68.7445L113.451 134.971L82.5254 89.5065L163.923 105.028L188.389 141L273.677 82.9803L236.169 27.8313L174.046 14.7005Z" stroke="#7191E6" stroke-width="0.140442" stroke-miterlimit="10"/>
<path d="M174.83 12.4925L211.589 66.5416L114.235 132.763L83.3144 87.2955L164.715 102.822L189.173 138.792L274.466 80.7694L236.958 25.6204L174.83 12.4925Z" stroke="#7191E6" stroke-width="0.140442" stroke-miterlimit="10"/>
<path d="M175.621 10.287L212.377 64.3309L115.026 130.558L84.1054 85.09L165.498 100.614L189.961 136.581L275.254 78.5588L237.746 23.4097L175.621 10.287Z" stroke="#7191E6" stroke-width="0.140442" stroke-miterlimit="10"/>
<path d="M176.41 8.07603L213.166 62.12L115.815 128.347L84.8945 82.879L166.287 98.4031L190.753 134.375L276.041 76.3558L238.538 21.2039L176.41 8.07603Z" stroke="#7191E6" stroke-width="0.140442" stroke-miterlimit="10"/>
<path d="M177.199 5.8651L213.957 59.9141L116.606 126.141L85.6777 80.671L167.078 96.1973L191.541 132.164L276.829 74.1449L239.321 18.9959L177.199 5.8651Z" stroke="#7191E6" stroke-width="0.140442" stroke-miterlimit="10"/>
<path d="M177.99 3.65904L214.745 57.703L117.394 123.93L86.4687 78.465L167.866 93.9862L192.332 129.958L277.62 71.9388L240.112 16.7898L177.99 3.65904Z" stroke="#7191E6" stroke-width="0.140442" stroke-miterlimit="10"/>
<path d="M178.772 1.45152L215.53 55.5006L118.176 121.722L87.2558 76.2545L168.656 91.7808L193.114 127.751L278.407 69.7284L240.899 14.5794L178.772 1.45152Z" stroke="#7191E6" stroke-width="0.140442" stroke-miterlimit="10"/>
<path d="M179.565 -0.754539L216.32 53.2894L118.969 119.516L88.0488 74.0485L169.441 89.5726L193.904 125.54L279.197 67.5173L241.689 12.3682L179.565 -0.754539Z" stroke="#7191E6" stroke-width="0.140442" stroke-miterlimit="10"/>
<path d="M180.352 -2.96499L217.107 51.079L119.756 117.306L88.8359 71.838L170.228 87.3621L194.694 123.334L279.982 65.3148L242.479 10.1629L180.352 -2.96499Z" stroke="#7191E6" stroke-width="0.140442" stroke-miterlimit="10"/>
<path d="M181.14 -5.1764L217.899 48.8726L120.547 115.099L89.6191 69.6295L171.019 85.1558L195.483 121.123L280.771 63.1034L243.262 7.95436L181.14 -5.1764Z" stroke="#7191E6" stroke-width="0.140442" stroke-miterlimit="10"/>
<path d="M181.931 -7.38197L218.687 46.662L121.335 112.889L90.4101 67.424L171.807 82.9451L196.271 118.912L281.562 60.8978L244.053 5.74881L181.931 -7.38197Z" stroke="#7191E6" stroke-width="0.140442" stroke-miterlimit="10"/>
<path d="M182.715 -9.58999L219.479 44.4561L122.124 110.678L91.1992 65.213L172.599 80.7393L197.058 116.709L282.351 58.6869L244.842 3.53786L182.715 -9.58999Z" stroke="#7191E6" stroke-width="0.140442" stroke-miterlimit="10"/>
<path d="M183.506 -11.7956L220.262 42.2484L122.91 108.475L91.9902 63.0075L173.387 78.5286L197.846 114.499L283.139 56.4762L245.631 1.32722L183.506 -11.7956Z" stroke="#7191E6" stroke-width="0.140442" stroke-miterlimit="10"/>
<path d="M184.295 -14.0065L221.051 40.0375L123.699 106.264L92.7793 60.7965L174.171 76.3206L198.638 112.293L283.926 54.2733L246.423 -0.878644L184.295 -14.0065Z" stroke="#7191E6" stroke-width="0.140442" stroke-miterlimit="10"/>
<path d="M185.082 -16.2174L221.841 37.8316L124.489 104.058L93.5664 58.5856L174.961 74.1147L199.425 110.082L284.713 52.0624L247.205 -3.08667L185.082 -16.2174Z" stroke="#7191E6" stroke-width="0.140442" stroke-miterlimit="10"/>
<path d="M185.874 -18.423L222.63 35.621L125.279 101.848L94.3535 56.3829L175.751 71.9041L200.214 107.871L285.505 49.8568L247.997 -5.29222L185.874 -18.423Z" stroke="#7191E6" stroke-width="0.140442" stroke-miterlimit="10"/>
<path d="M186.663 -20.6339L223.422 33.4151L126.068 99.6368L95.1426 54.172L176.54 69.6932L201.006 105.665L286.294 47.6459L248.786 -7.50316L186.663 -20.6339Z" stroke="#7191E6" stroke-width="0.140442" stroke-miterlimit="10"/>
<path d="M187.449 -22.8371L224.205 31.2069L126.854 97.4336L95.9336 51.9659L177.331 67.4871L201.789 103.457L287.082 45.4347L249.574 -9.71426L187.449 -22.8371Z" stroke="#7191E6" stroke-width="0.140442" stroke-miterlimit="10"/>
<path d="M188.237 -25.0475L224.992 28.9965L127.641 95.2232L96.7207 49.7555L178.113 65.2796L202.579 101.252L287.872 43.2294L250.364 -11.9197L188.237 -25.0475Z" stroke="#7191E6" stroke-width="0.140442" stroke-miterlimit="10"/>
<path d="M189.026 -27.2584L225.784 26.7906L128.433 93.0173L97.5097 47.5446L178.905 63.0737L203.368 99.0409L288.656 41.0213L251.148 -14.1277L189.026 -27.2584Z" stroke="#7191E6" stroke-width="0.140442" stroke-miterlimit="10"/>
<path d="M189.818 -29.464L226.573 24.58L129.222 90.8067L98.2968 45.3419L179.694 60.8631L204.157 96.8302L289.448 38.8158L251.94 -16.3332L189.818 -29.464Z" stroke="#7191E6" stroke-width="0.140442" stroke-miterlimit="10"/>
<path d="M190.605 -31.6749L227.363 22.3741L130.009 88.5958L99.084 43.131L180.481 58.6522L204.947 94.6244L290.236 36.6048L252.727 -18.5442L190.605 -31.6749Z" stroke="#7191E6" stroke-width="0.140442" stroke-miterlimit="10"/>
<path d="M191.391 -33.8781L228.146 20.1659L130.795 86.3926L99.875 40.9249L181.272 56.4461L205.73 92.4162L291.024 34.3937L253.515 -20.7553L191.391 -33.8781Z" stroke="#7191E6" stroke-width="0.140442" stroke-miterlimit="10"/>
<path d="M192.18 -36.089L228.935 17.955L131.584 84.1817L100.664 38.714L182.056 54.2381L206.522 90.2103L291.816 32.1879L254.307 -22.9612L192.18 -36.089Z" stroke="#7191E6" stroke-width="0.140442" stroke-miterlimit="10"/>
<path d="M192.969 -38.2995L229.727 15.7496L132.376 81.9763L101.453 36.5035L182.848 52.0327L207.311 87.9998L292.6 29.9803L255.096 -25.1716L192.969 -38.2995Z" stroke="#7191E6" stroke-width="0.140442" stroke-miterlimit="10"/>
<path d="M193.759 -40.5055L230.515 13.5385L133.163 79.7652L102.238 34.3004L183.635 49.8216L208.099 85.7887L293.39 27.7743L255.881 -27.3747L193.759 -40.5055Z" stroke="#7191E6" stroke-width="0.140442" stroke-miterlimit="10"/>
<path d="M194.548 -42.716L231.307 11.3331L133.953 77.5547L103.027 32.09L184.425 47.6111L208.891 83.5833L294.179 25.5638L256.671 -29.5852L194.548 -42.716Z" stroke="#7191E6" stroke-width="0.140442" stroke-miterlimit="10"/>
<path d="M195.334 -44.9191L232.095 9.12197L134.738 75.3516L103.818 29.8839L185.216 45.4051L209.674 81.3752L294.967 23.3527L257.459 -31.7963L195.334 -44.9191Z" stroke="#7191E6" stroke-width="0.140442" stroke-miterlimit="10"/>
<path d="M196.123 -47.13L232.879 6.91395L135.528 73.1407L104.607 27.673L186 43.1971L210.466 79.1693L295.759 21.1468L258.251 -34.0022L196.123 -47.13Z" stroke="#7191E6" stroke-width="0.140442" stroke-miterlimit="10"/>
<path d="M196.91 -49.341L233.669 4.70808L136.318 70.9348L105.395 25.462L186.79 40.9912L211.253 76.9583L296.541 18.9388L259.038 -36.2131L196.91 -49.341Z" stroke="#7191E6" stroke-width="0.140442" stroke-miterlimit="10"/>
<path d="M197.703 -51.5465L234.458 2.49746L137.107 68.7242L106.182 23.2594L187.579 38.7806L212.042 74.7477L297.333 16.7333L259.825 -38.4158L197.703 -51.5465Z" stroke="#7191E6" stroke-width="0.140442" stroke-miterlimit="10"/>
<path d="M198.49 -53.7575L235.248 0.291582L137.894 66.5132L106.969 21.0485L188.366 36.5697L212.832 72.5418L298.12 14.5223L260.612 -40.6267L198.49 -53.7575Z" stroke="#7191E6" stroke-width="0.140442" stroke-miterlimit="10"/>
<path d="M199.276 -55.9601L236.036 -1.91903L138.685 64.3077L107.76 18.8429L189.157 34.3641L213.615 70.3341L298.908 12.3117L261.4 -42.8373L199.276 -55.9601Z" stroke="#7191E6" stroke-width="0.140442" stroke-miterlimit="10"/>
<path d="M200.065 -58.171L236.82 -4.12706L139.469 62.0996L108.549 16.632L189.946 32.1532L214.407 68.1283L299.7 10.1058L262.192 -45.0432L200.065 -58.171Z" stroke="#7191E6" stroke-width="0.140442" stroke-miterlimit="10"/>
<path d="M200.854 -60.382L237.612 -6.33294L140.261 59.8938L109.338 14.421L190.733 29.9502L215.196 65.9173L300.484 7.8978L262.981 -47.2541L200.854 -60.382Z" stroke="#7191E6" stroke-width="0.140442" stroke-miterlimit="10"/>
<path d="M201.645 -62.5875L238.4 -8.54356L141.049 57.6831L110.129 12.2155L191.521 27.7396L215.984 63.7067L301.275 5.69224L263.767 -49.4568L201.645 -62.5875Z" stroke="#7191E6" stroke-width="0.140442" stroke-miterlimit="10"/>
<path d="M202.433 -64.7985L239.192 -10.7494L141.837 55.4722L110.912 10.0075L192.309 25.5286L216.776 61.5008L302.064 3.48131L264.555 -51.6677L202.433 -64.7985Z" stroke="#7191E6" stroke-width="0.140442" stroke-miterlimit="10"/>
<path d="M203.222 -67.0094L239.981 -12.9604L142.629 53.2663L111.704 7.80158L193.101 23.3228L217.565 59.2899L302.853 1.27036L265.344 -53.8786L203.222 -67.0094Z" stroke="#7191E6" stroke-width="0.140442" stroke-miterlimit="10"/>
<path d="M204.008 -69.2121L240.764 -15.1681L143.412 51.0586L112.492 5.59095L193.889 21.1121L218.351 57.0872L303.644 -0.935202L266.135 -56.0842L204.008 -69.2121Z" stroke="#7191E6" stroke-width="0.140442" stroke-miterlimit="10"/>
<path d="M204.795 -71.423L241.554 -17.374L144.202 48.8528L113.279 3.38001L194.674 18.9092L219.138 54.8763L304.431 -3.14614L266.923 -58.2951L204.795 -71.423Z" stroke="#7191E6" stroke-width="0.140442" stroke-miterlimit="10"/>
<path d="M205.588 -73.6286L242.344 -19.5846L144.992 46.6421L114.072 1.17444L195.464 16.6986L219.928 52.6657L305.219 -5.34879L267.715 -60.5007L205.588 -73.6286Z" stroke="#7191E6" stroke-width="0.140442" stroke-miterlimit="10"/>
<path d="M206.376 -75.8395L243.135 -21.7904L145.781 44.4312L114.855 -1.03356L196.253 14.4876L220.719 50.4598L306.007 -7.55971L268.499 -62.7087L206.376 -75.8395Z" stroke="#7191E6" stroke-width="0.140442" stroke-miterlimit="10"/>
<path d="M207.163 -78.0504L243.922 -24.0014L146.571 42.2253L115.643 -3.2445L197.043 12.2817L221.506 48.2489L306.794 -9.77065L269.286 -64.9197L207.163 -78.0504Z" stroke="#7191E6" stroke-width="0.140442" stroke-miterlimit="10"/>
<path d="M207.949 -80.2531L244.705 -26.2091L147.354 40.0176L116.434 -5.45007L197.831 10.0711L222.292 46.0462L307.585 -11.9762L270.077 -67.1252L207.949 -80.2531Z" stroke="#7191E6" stroke-width="0.140442" stroke-miterlimit="10"/>
<path d="M208.738 -82.464L245.497 -28.415L148.146 37.8117L117.223 -7.661L198.618 7.86816L223.081 43.8353L308.374 -14.1871L270.866 -69.3362L208.738 -82.464Z" stroke="#7191E6" stroke-width="0.140442" stroke-miterlimit="10"/>
<path d="M209.529 -84.6701L246.285 -30.6261L148.934 35.6006L118.014 -9.86706L199.406 5.65705L223.869 41.6242L309.157 -16.3953L271.657 -71.5422L209.529 -84.6701Z" stroke="#7191E6" stroke-width="0.140442" stroke-miterlimit="10"/>
<path d="M210.318 -86.881L247.076 -32.8319L149.722 33.3897L118.797 -12.0751L200.194 3.44612L224.66 39.4183L309.948 -18.6012L272.44 -73.7502L210.318 -86.881Z" stroke="#7191E6" stroke-width="0.140442" stroke-miterlimit="10"/>
<path d="M211.107 -89.0914L247.865 -35.0424L150.514 31.1843L119.586 -14.2855L200.986 1.24074L225.449 37.2078L310.737 -20.8117L273.229 -75.9607L211.107 -89.0914Z" stroke="#7191E6" stroke-width="0.140442" stroke-miterlimit="10"/>
<path d="M211.893 -91.2946L248.653 -37.2535L151.297 28.9761L120.377 -16.4916L201.774 -0.970382L226.235 35.0047L311.528 -23.0177L274.02 -78.1667L211.893 -91.2946Z" stroke="#7191E6" stroke-width="0.140442" stroke-miterlimit="10"/>
<path d="M212.68 -93.5055L249.438 -39.4565L152.087 26.7702L121.164 -18.7025L202.559 -3.17334L227.022 32.7938L312.316 -25.2287L274.807 -80.3777L212.68 -93.5055Z" stroke="#7191E6" stroke-width="0.140442" stroke-miterlimit="10"/>
<path d="M213.473 -95.7111L250.228 -41.6671L152.877 24.5596L121.957 -20.9081L203.349 -5.38397L227.812 30.5832L313.101 -27.4364L275.597 -82.5883L213.473 -95.7111Z" stroke="#7191E6" stroke-width="0.140442" stroke-miterlimit="10"/>
<path d="M214.261 -97.922L251.02 -43.873L153.665 22.3487L122.74 -23.1161L204.137 -7.59489L228.604 28.3773L313.892 -29.6422L276.383 -84.7912L214.261 -97.922Z" stroke="#7191E6" stroke-width="0.140442" stroke-miterlimit="10"/>
<path d="M215.048 -100.133L251.807 -46.0839L154.455 20.1428L123.527 -25.327L204.927 -9.80077L229.391 26.1663L314.679 -31.8532L277.171 -87.0022L215.048 -100.133Z" stroke="#7191E6" stroke-width="0.140442" stroke-miterlimit="10"/>
<path d="M215.839 -102.339L252.595 -48.2945L155.244 17.9322L124.318 -27.5326L205.716 -12.0114L230.177 23.9637L315.47 -34.0587L277.962 -89.2077L215.839 -102.339Z" stroke="#7191E6" stroke-width="0.140442" stroke-miterlimit="10"/>
<path d="M216.623 -104.547L253.382 -50.4975L156.028 15.7242L125.107 -29.7435L206.508 -14.2173L230.966 21.7528L316.259 -36.2697L278.751 -91.4187L216.623 -104.547Z" stroke="#7191E6" stroke-width="0.140442" stroke-miterlimit="10"/>
<path d="M217.414 -106.752L254.17 -52.7081L156.819 13.5186L125.898 -31.9491L207.291 -16.425L231.754 19.5421L317.047 -38.4803L279.539 -93.6293L217.414 -106.752Z" stroke="#7191E6" stroke-width="0.140442" stroke-miterlimit="10"/>
<path d="M218.203 -108.963L254.962 -54.914L157.608 11.3076L126.687 -34.16L208.08 -18.6359L232.546 17.3363L317.834 -40.6832L280.326 -95.8323L218.203 -108.963Z" stroke="#7191E6" stroke-width="0.140442" stroke-miterlimit="10"/>
<path d="M218.992 -111.174L255.75 -57.1249L158.399 9.10179L127.471 -36.368L208.871 -20.8418L233.334 15.1253L318.622 -42.8942L281.114 -98.0432L218.992 -111.174Z" stroke="#7191E6" stroke-width="0.140442" stroke-miterlimit="10"/>
<path d="M219.783 -113.38L256.538 -59.336L159.187 6.89066L128.262 -38.5741L209.659 -23.0529L234.125 12.9193L319.413 -45.1002L281.905 -100.249L219.783 -113.38Z" stroke="#7191E6" stroke-width="0.140442" stroke-miterlimit="10"/>
<path d="M220.567 -115.588L257.325 -61.5385L159.971 4.68315L129.051 -40.7845L210.451 -25.2583L234.909 10.7118L320.202 -47.3107L282.694 -102.46L220.567 -115.588Z" stroke="#7191E6" stroke-width="0.140442" stroke-miterlimit="10"/>
<path d="M221.358 -117.794L258.113 -63.7496L160.762 2.47709L129.842 -42.9906L211.234 -27.4665L235.697 8.50063L320.99 -49.5218L283.482 -104.671L221.358 -117.794Z" stroke="#7191E6" stroke-width="0.140442" stroke-miterlimit="10"/>
<path d="M222.145 -120.004L258.903 -65.955L161.549 0.266642L130.629 -45.201L212.021 -29.6769L236.487 6.29525L321.775 -51.7243L284.272 -106.876L222.145 -120.004Z" stroke="#7191E6" stroke-width="0.140442" stroke-miterlimit="10"/>
<path d="M222.935 -122.215L259.693 -68.1659L162.342 -1.93922L131.414 -47.4091L212.814 -31.8828L237.277 4.08431L322.566 -53.9352L285.057 -109.084L222.935 -122.215Z" stroke="#7191E6" stroke-width="0.140442" stroke-miterlimit="10"/>
<path d="M223.726 -124.421L260.482 -70.3766L163.13 -4.14986L132.205 -49.6146L213.602 -34.0934L238.069 1.87875L323.357 -56.1408L285.848 -111.29L223.726 -124.421Z" stroke="#7191E6" stroke-width="0.140442" stroke-miterlimit="10"/>
<path d="M224.508 -126.629L261.267 -72.58L163.912 -6.35836L132.992 -51.826L214.392 -36.2998L238.851 -0.329756L324.144 -58.3522L286.635 -113.501L224.508 -126.629Z" stroke="#7191E6" stroke-width="0.140442" stroke-miterlimit="10"/>
<path d="M225.299 -128.835L262.055 -74.7906L164.703 -8.56393L133.783 -54.0316L215.175 -38.5075L239.639 -2.54038L324.932 -60.5628L287.424 -115.712L225.299 -128.835Z" stroke="#7191E6" stroke-width="0.140442" stroke-miterlimit="10"/>
<path d="M226.088 -131.045L262.847 -76.996L165.492 -10.7744L134.572 -56.2421L215.964 -40.718L240.431 -4.74578L325.719 -62.7653L288.215 -117.917L226.088 -131.045Z" stroke="#7191E6" stroke-width="0.140442" stroke-miterlimit="10"/>
<path d="M226.876 -133.256L263.635 -79.2069L166.284 -12.9802L135.355 -58.4501L216.756 -42.9238L241.219 -6.95671L326.507 -64.9762L288.999 -120.125L226.876 -133.256Z" stroke="#7191E6" stroke-width="0.140442" stroke-miterlimit="10"/>
<path d="M227.667 -135.462L264.423 -81.4181L167.072 -15.1914L136.146 -60.6561L217.544 -45.1349L242.01 -9.16275L327.298 -67.1823L289.79 -122.331L227.667 -135.462Z" stroke="#7191E6" stroke-width="0.140442" stroke-miterlimit="10"/>
<path d="M228.451 -137.67L265.215 -83.6235L167.856 -17.3989L136.936 -62.8666L218.336 -47.3403L242.794 -11.3703L328.087 -69.3927L290.579 -124.542L228.451 -137.67Z" stroke="#7191E6" stroke-width="0.140442" stroke-miterlimit="10"/>
<path d="M229.242 -139.876L265.998 -85.8316L168.647 -19.6049L137.727 -65.0726L219.119 -49.5485L243.582 -13.5814L328.875 -71.6038L291.367 -126.753L229.242 -139.876Z" stroke="#7191E6" stroke-width="0.140442" stroke-miterlimit="10"/>
<path d="M230.031 -142.087L266.79 -88.0375L169.436 -21.8159L138.516 -67.2836L219.908 -51.7595L244.374 -15.7873L329.662 -73.8068L292.159 -128.959L230.031 -142.087Z" stroke="#7191E6" stroke-width="0.140442" stroke-miterlimit="10"/>
<path d="M230.819 -144.298L267.577 -90.2485L170.226 -24.0218L139.303 -69.4945L220.698 -53.9653L245.161 -17.9982L330.449 -76.0177L292.941 -131.167L230.819 -144.298Z" stroke="#7191E6" stroke-width="0.140442" stroke-miterlimit="10"/>
<path d="M231.611 -146.503L268.366 -92.4591L171.015 -26.2324L140.09 -71.6971L221.487 -56.176L245.953 -20.2038L331.241 -78.2233L293.733 -133.372L231.611 -146.503Z" stroke="#7191E6" stroke-width="0.140442" stroke-miterlimit="10"/>
<path d="M232.398 -148.714L269.156 -94.665L171.802 -28.4433L140.877 -73.9081L222.277 -58.3818L246.74 -22.4147L332.028 -80.4342L294.52 -135.583L232.398 -148.714Z" stroke="#7191E6" stroke-width="0.140442" stroke-miterlimit="10"/>
<path d="M233.186 -150.917L269.941 -96.8727L172.59 -30.646L141.67 -76.1136L223.067 -60.5925L247.525 -24.6224L332.819 -82.6449L295.31 -137.794L233.186 -150.917Z" stroke="#7191E6" stroke-width="0.140442" stroke-miterlimit="10"/>
<path d="M233.973 -153.128L270.728 -99.0836L173.377 -32.8569L142.457 -78.3246L223.849 -62.8005L248.315 -26.8283L333.609 -84.8507L296.1 -140L233.973 -153.128Z" stroke="#7191E6" stroke-width="0.140442" stroke-miterlimit="10"/>
<path d="M234.762 -155.339L271.52 -101.289L174.169 -35.0628L143.246 -80.5355L224.641 -65.0063L249.104 -29.0392L334.393 -87.0587L296.884 -142.208L234.762 -155.339Z" stroke="#7191E6" stroke-width="0.140442" stroke-miterlimit="10"/>
<path d="M235.552 -157.545L272.308 -103.501L174.956 -37.2739L144.031 -82.7386L225.428 -67.2175L249.895 -31.2453L335.183 -89.2648L297.674 -144.414L235.552 -157.545Z" stroke="#7191E6" stroke-width="0.140442" stroke-miterlimit="10"/>
<g filter="url(#filter0_d_196_35624)">
<rect width="136" height="137" transform="translate(130.901 238.24)" fill="white"/>
</g>
</g>
<defs>
<filter id="filter0_d_196_35624" x="94.9009" y="226.24" width="208" height="209" filterUnits="userSpaceOnUse" color-interpolation-filters="sRGB">
<feFlood flood-opacity="0" result="BackgroundImageFix"/>
<feColorMatrix in="SourceAlpha" type="matrix" values="0 0 0 0 0 0 0 0 0 0 0 0 0 0 0 0 0 0 127 0" result="hardAlpha"/>
<feMorphology radius="12" operator="erode" in="SourceAlpha" result="effect1_dropShadow_196_35624"/>
<feOffset dy="24"/>
<feGaussianBlur stdDeviation="24"/>
<feColorMatrix type="matrix" values="0 0 0 0 0.0625882 0 0 0 0 0.0926346 0 0 0 0 0.15702 0 0 0 0.18 0"/>
<feBlend mode="normal" in2="BackgroundImageFix" result="effect1_dropShadow_196_35624"/>
<feBlend mode="normal" in="SourceGraphic" in2="effect1_dropShadow_196_35624" result="shape"/>
</filter>
<clipPath id="clip0_196_35624">
<rect width="479.345" height="333.87" fill="white" transform="matrix(0.5 0.866025 0.866025 -0.5 0.164062 -41.7402)"/>
</clipPath>
</defs>
</svg>
