<svg width="204" height="32" viewBox="0 0 204 32" fill="none" xmlns="http://www.w3.org/2000/svg">
<g clip-path="url(#clip0_214_33365)">
<path fill-rule="evenodd" clip-rule="evenodd" d="M17.8556 17.955C16.025 17.6632 15.968 17.1207 17.4544 14.1913C18.927 11.2915 19.1322 9.1144 18.1975 6.3309C16.8183 2.21606 12.145 -0.64723 8.07572 0.127864C5.67521 0.586082 4.01332 1.43413 2.63183 2.91137C-3.11755 9.05285 1.15231 18.664 9.64643 18.7051C12.7992 18.721 13.3988 19.1245 12.8676 20.8685C11.2946 26.0411 17.541 29.2304 20.9263 24.9856C22.8322 22.5965 21.0244 18.4588 17.8556 17.955ZM11.8463 14.034C6.9108 16.4527 2.20096 11.4397 4.88872 6.62954C5.93282 4.76247 8.69352 3.64543 10.7202 4.27462C15.43 5.7359 16.1435 11.9275 11.8463 14.034Z" fill="#ECEEF6"/>
<path fill-rule="evenodd" clip-rule="evenodd" d="M19.9994 13.6096C19.76 13.9128 18.7843 15.8733 18.8322 15.9531C18.8641 16.0033 19.2311 16.2039 19.6528 16.4022C25.5709 19.1766 25.1059 26.6563 18.88 28.7923C14.5805 30.2696 9.72252 25.9017 10.6823 21.4244C10.8213 20.7701 10.7871 20.7519 9.41476 20.7268C6.73384 20.6789 4.20339 19.8058 2.3272 18.2761C2.05364 18.0527 1.78692 17.8703 1.73676 17.8703C1.5749 17.8703 1.71852 28.2612 1.8895 28.9952C2.22462 30.4337 3.33254 31.5097 4.83714 31.8517C5.92227 32.1002 17.4621 32.0067 18.6247 31.7423C21.6635 31.0492 23.5329 29.7544 25.2404 27.1692C27.5178 23.72 26.9934 19.188 23.9387 15.8802C22.7943 14.6423 20.314 13.2107 19.9994 13.6096Z" fill="#ECEEF6"/>
</g>
<path d="M43.567 25V7.54545H49.9591C51.1977 7.54545 52.2233 7.75 53.0358 8.15909C53.8483 8.5625 54.4562 9.1108 54.8596 9.80398C55.2631 10.4915 55.4648 11.267 55.4648 12.1307C55.4648 12.858 55.3312 13.4716 55.0642 13.9716C54.7971 14.4659 54.4392 14.8636 53.9903 15.1648C53.5471 15.4602 53.0585 15.6761 52.5244 15.8125V15.983C53.104 16.0114 53.6693 16.1989 54.2204 16.5455C54.7773 16.8864 55.2375 17.3722 55.6011 18.0028C55.9648 18.6335 56.1466 19.4006 56.1466 20.304C56.1466 21.196 55.9363 21.9972 55.5159 22.7074C55.1011 23.4119 54.4591 23.9716 53.5898 24.3864C52.7204 24.7955 51.6096 25 50.2574 25H43.567ZM46.2006 22.7415H50.0017C51.2631 22.7415 52.1665 22.4972 52.7119 22.0085C53.2574 21.5199 53.5301 20.9091 53.5301 20.1761C53.5301 19.625 53.3909 19.1193 53.1125 18.6591C52.8341 18.1989 52.4363 17.8324 51.9193 17.5597C51.4079 17.2869 50.8 17.1506 50.0954 17.1506H46.2006V22.7415ZM46.2006 15.0966H49.729C50.3199 15.0966 50.8511 14.983 51.3227 14.7557C51.8 14.5284 52.1778 14.2102 52.4562 13.8011C52.7403 13.3864 52.8824 12.8977 52.8824 12.3352C52.8824 11.6136 52.6295 11.0085 52.1238 10.5199C51.6182 10.0312 50.8426 9.78693 49.7971 9.78693H46.2006V15.0966ZM57.9236 7.54545H60.915L65.4747 15.4801H65.6622L70.2219 7.54545H73.2133L66.8809 18.1477V25H64.2559V18.1477L57.9236 7.54545ZM75.9406 9.8125V7.54545H89.4491V9.8125H84.0031V25H81.3781V9.8125H75.9406ZM92.4342 25V7.54545H103.377V9.8125H95.0677V15.1307H102.806V17.3892H95.0677V22.733H103.48V25H92.4342ZM116.415 12.1307C116.324 11.3239 115.949 10.6989 115.29 10.2557C114.631 9.80682 113.801 9.58239 112.801 9.58239C112.085 9.58239 111.466 9.69602 110.943 9.92329C110.421 10.1449 110.014 10.4517 109.725 10.8438C109.441 11.2301 109.299 11.6705 109.299 12.1648C109.299 12.5795 109.395 12.9375 109.588 13.2386C109.787 13.5398 110.046 13.7926 110.364 13.9972C110.688 14.196 111.034 14.3636 111.404 14.5C111.773 14.6307 112.128 14.7386 112.469 14.8239L114.174 15.267C114.73 15.4034 115.301 15.5881 115.887 15.821C116.472 16.054 117.014 16.3608 117.514 16.7415C118.014 17.1222 118.418 17.5938 118.725 18.1562C119.037 18.7188 119.193 19.392 119.193 20.1761C119.193 21.1648 118.938 22.0426 118.426 22.8097C117.921 23.5767 117.185 24.1818 116.219 24.625C115.259 25.0682 114.097 25.2898 112.733 25.2898C111.426 25.2898 110.296 25.0824 109.341 24.6676C108.387 24.2528 107.639 23.6648 107.1 22.9034C106.56 22.1364 106.262 21.2273 106.205 20.1761H108.847C108.898 20.8068 109.103 21.3324 109.46 21.7528C109.824 22.1676 110.287 22.4773 110.85 22.6818C111.418 22.8807 112.04 22.9801 112.716 22.9801C113.46 22.9801 114.122 22.8636 114.702 22.6307C115.287 22.392 115.747 22.0625 116.083 21.642C116.418 21.2159 116.585 20.7187 116.585 20.1506C116.585 19.6335 116.438 19.2102 116.142 18.8807C115.853 18.5511 115.458 18.2784 114.958 18.0625C114.463 17.8466 113.904 17.6562 113.279 17.4915L111.216 16.929C109.818 16.5483 108.71 15.9886 107.892 15.25C107.08 14.5114 106.674 13.5341 106.674 12.3182C106.674 11.3125 106.946 10.4347 107.492 9.68466C108.037 8.93466 108.776 8.35227 109.708 7.9375C110.639 7.51705 111.691 7.30682 112.861 7.30682C114.043 7.30682 115.085 7.5142 115.989 7.92898C116.898 8.34375 117.614 8.91477 118.137 9.64204C118.659 10.3636 118.932 11.1932 118.955 12.1307H116.415ZM133.565 7.54545H136.207V19.0256C136.207 20.2472 135.92 21.3295 135.346 22.2727C134.772 23.2102 133.965 23.9489 132.926 24.4886C131.886 25.0227 130.667 25.2898 129.269 25.2898C127.877 25.2898 126.661 25.0227 125.622 24.4886C124.582 23.9489 123.775 23.2102 123.201 22.2727C122.627 21.3295 122.34 20.2472 122.34 19.0256V7.54545H124.974V18.8125C124.974 19.6023 125.147 20.304 125.494 20.9176C125.846 21.5312 126.343 22.0142 126.985 22.3665C127.627 22.7131 128.389 22.8864 129.269 22.8864C130.156 22.8864 130.92 22.7131 131.562 22.3665C132.21 22.0142 132.704 21.5312 133.045 20.9176C133.392 20.304 133.565 19.6023 133.565 18.8125V7.54545ZM140.036 7.54545H143.232L148.789 21.1136H148.993L154.55 7.54545H157.746V25H155.24V12.3693H155.078L149.931 24.9744H147.851L142.703 12.3608H142.541V25H140.036V7.54545ZM161.575 7.54545H164.771L170.328 21.1136H170.532L176.089 7.54545H179.285V25H176.779V12.3693H176.617L171.47 24.9744H169.39L164.242 12.3608H164.081V25H161.575V7.54545ZM185.747 7.54545V25H183.114V7.54545H185.747ZM188.722 9.8125V7.54545H202.23V9.8125H196.784V25H194.159V9.8125H188.722Z" fill="#ECEEF6"/>
<defs>
<clipPath id="clip0_214_33365">
<rect width="26.6496" height="32" fill="white"/>
</clipPath>
</defs>
</svg>
