<svg width="33" height="33" viewBox="0 0 33 33" fill="none" xmlns="http://www.w3.org/2000/svg">
<g clip-path="url(#clip0_197_20829)">
<path d="M22.4293 11.2784C23.2245 11.2784 23.8693 10.6337 23.8693 9.83844C23.8693 9.04315 23.2245 8.39844 22.4293 8.39844C21.634 8.39844 20.9893 9.04315 20.9893 9.83844C20.9893 10.6337 21.634 11.2784 22.4293 11.2784Z" fill="#3D52A1"/>
<path d="M16.0263 10.0863C14.8076 10.0863 13.6162 10.4477 12.6028 11.1248C11.5894 11.8019 10.7996 12.7643 10.3332 13.8903C9.86681 15.0163 9.74477 16.2553 9.98254 17.4507C10.2203 18.646 10.8072 19.744 11.669 20.6058C12.5308 21.4676 13.6288 22.0545 14.8242 22.2923C16.0195 22.5301 17.2585 22.408 18.3845 21.9416C19.5105 21.4752 20.4729 20.6854 21.15 19.672C21.8271 18.6587 22.1885 17.4673 22.1885 16.2485C22.1885 14.6142 21.5393 13.0468 20.3837 11.8912C19.228 10.7355 17.6607 10.0863 16.0263 10.0863ZM16.0263 20.2485C15.2352 20.2485 14.4619 20.0139 13.8041 19.5744C13.1463 19.1349 12.6336 18.5101 12.3308 17.7792C12.0281 17.0483 11.9489 16.2441 12.1032 15.4681C12.2575 14.6922 12.6385 13.9795 13.1979 13.4201C13.7573 12.8607 14.4701 12.4797 15.246 12.3254C16.0219 12.171 16.8262 12.2502 17.5571 12.553C18.288 12.8557 18.9127 13.3684 19.3522 14.0262C19.7917 14.684 20.0263 15.4574 20.0263 16.2485C20.0263 17.3094 19.6049 18.3268 18.8548 19.0769C18.1046 19.8271 17.0872 20.2485 16.0263 20.2485Z" fill="#3D52A1"/>
<path d="M16.0264 6.41074C19.2305 6.41074 19.6101 6.42294 20.8754 6.48074C21.6363 6.48979 22.3901 6.62956 23.1037 6.89394C23.6212 7.09362 24.0911 7.39941 24.4834 7.79163C24.8756 8.18386 25.1814 8.65384 25.3811 9.17134C25.6454 9.88494 25.7852 10.6387 25.7943 11.3996C25.852 12.6649 25.8643 13.0445 25.8643 16.2486C25.8643 19.4527 25.8521 19.8323 25.7943 21.0976C25.7852 21.8586 25.6454 22.6123 25.3811 23.3259C25.1814 23.8434 24.8756 24.3134 24.4834 24.7056C24.0911 25.0979 23.6212 25.4036 23.1037 25.6033C22.3901 25.8677 21.6363 26.0075 20.8754 26.0165C19.6102 26.0742 19.2308 26.0865 16.0264 26.0865C12.822 26.0865 12.4426 26.0743 11.1774 26.0165C10.4164 26.0075 9.66268 25.8677 8.94907 25.6033C8.43157 25.4036 7.96159 25.0979 7.56937 24.7056C7.17714 24.3134 6.87135 23.8434 6.67167 23.3259C6.40729 22.6123 6.26753 21.8586 6.25847 21.0976C6.20077 19.8323 6.18847 19.4527 6.18847 16.2486C6.18847 13.0445 6.20067 12.6649 6.25847 11.3996C6.26753 10.6387 6.40729 9.88494 6.67167 9.17134C6.87134 8.65382 7.17712 8.18382 7.56935 7.79158C7.96158 7.39934 8.43156 7.09353 8.94907 6.89384C9.66268 6.62946 10.4164 6.48969 11.1774 6.48064C12.4427 6.42294 12.8223 6.41063 16.0264 6.41063V6.41074ZM16.0264 4.24854C12.7674 4.24854 12.3587 4.26233 11.0788 4.32073C10.0834 4.34072 9.09866 4.52932 8.16637 4.87854C7.3691 5.18685 6.64504 5.65833 6.04061 6.26277C5.43617 6.86721 4.96468 7.59127 4.65637 8.38854C4.3071 9.32099 4.11849 10.3059 4.09857 11.3014C4.04017 12.5808 4.02637 12.9895 4.02637 16.2485C4.02637 19.5075 4.04017 19.9162 4.09857 21.1961C4.11851 22.1917 4.30711 23.1766 4.65637 24.109C4.96468 24.9063 5.43617 25.6304 6.04061 26.2348C6.64504 26.8392 7.3691 27.3107 8.16637 27.619C9.09882 27.9683 10.0837 28.1569 11.0793 28.1768C12.3587 28.2347 12.7674 28.2485 16.0264 28.2485C19.2854 28.2485 19.6941 28.2347 20.974 28.1763C21.9695 28.1564 22.9544 27.9678 23.8869 27.6185C24.6841 27.3102 25.4082 26.8387 26.0126 26.2343C26.6171 25.6299 27.0886 24.9058 27.3969 24.1085C27.7461 23.1761 27.9347 22.1912 27.9547 21.1956C28.0126 19.9162 28.0264 19.5075 28.0264 16.2485C28.0264 12.9895 28.0126 12.5808 27.9542 11.3009C27.9342 10.3056 27.7456 9.32083 27.3964 8.38854C27.088 7.59136 26.6165 6.8674 26.012 6.26305C25.4076 5.6587 24.6836 5.18729 23.8864 4.87903C22.9539 4.52978 21.969 4.34117 20.9735 4.32124C19.6941 4.26234 19.2854 4.24854 16.0264 4.24854Z" fill="#3D52A1"/>
</g>
<defs>
<clipPath id="clip0_197_20829">
<rect width="32" height="32" fill="white" transform="translate(0.0263672 0.248535)"/>
</clipPath>
</defs>
</svg>
