<svg width="33" height="33" viewBox="0 0 33 33" fill="none" xmlns="http://www.w3.org/2000/svg">
<g clip-path="url(#clip0_197_20837)">
<path d="M10.0785 6.91654C10.0781 7.62378 9.79681 8.30192 9.29646 8.80176C8.79611 9.30161 8.1177 9.58222 7.41045 9.58187C6.70321 9.58152 6.02507 9.30022 5.52522 8.79988C5.02538 8.29953 4.74476 7.62111 4.74512 6.91387C4.74547 6.20662 5.02676 5.52849 5.52711 5.02864C6.02746 4.52879 6.70587 4.24818 7.41312 4.24854C8.12036 4.24889 8.7985 4.53018 9.29835 5.03053C9.79819 5.53087 10.0788 6.20929 10.0785 6.91654ZM10.1585 11.5565H4.82512V28.2499H10.1585V11.5565ZM18.5851 11.5565H13.2785V28.2499H18.5318V19.4899C18.5318 14.6099 24.8918 14.1565 24.8918 19.4899V28.2499H30.1585V17.6765C30.1585 9.44987 20.7451 9.75654 18.5318 13.7965L18.5851 11.5565Z" fill="#3D52A1"/>
</g>
<defs>
<clipPath id="clip0_197_20837">
<rect width="32" height="32" fill="white" transform="translate(0.826416 0.248535)"/>
</clipPath>
</defs>
</svg>
