<svg width="204" height="32" viewBox="0 0 204 32" fill="none" xmlns="http://www.w3.org/2000/svg">
<g clip-path="url(#clip0_209_25677)">
<path fill-rule="evenodd" clip-rule="evenodd" d="M18.0309 17.9549C16.2003 17.6631 16.1433 17.1205 17.6297 14.1911C19.1023 11.2914 19.3075 9.11428 18.3728 6.33078C16.9936 2.21594 12.3203 -0.647353 8.25102 0.127742C5.8505 0.58596 4.18861 1.434 2.80712 2.91124C-2.94226 9.05273 1.3276 18.6639 9.82172 18.7049C12.9745 18.7209 13.5741 19.1244 13.0429 20.8684C11.4699 26.041 17.7163 29.2303 21.1016 24.9855C23.0074 22.5964 21.1997 18.4587 18.0309 17.9549ZM12.0216 14.0338C7.0861 16.4526 2.37626 11.4396 5.06401 6.62942C6.10811 4.76235 8.86881 3.6453 10.8955 4.2745C15.6053 5.73578 16.3188 11.9274 12.0216 14.0338Z" fill="#0024AA"/>
<path fill-rule="evenodd" clip-rule="evenodd" d="M20.1747 13.6096C19.9353 13.9128 18.9596 15.8733 19.0074 15.9531C19.0394 16.0033 19.4064 16.2039 19.8281 16.4022C25.7462 19.1766 25.2812 26.6563 19.0553 28.7923C14.7558 30.2696 9.89781 25.9017 10.8576 21.4244C10.9966 20.7701 10.9624 20.7519 9.59005 20.7268C6.90913 20.6789 4.37868 19.8058 2.50249 18.2761C2.22893 18.0527 1.96221 17.8703 1.91205 17.8703C1.7502 17.8703 1.89382 28.2612 2.06479 28.9952C2.39991 30.4337 3.50784 31.5097 5.01243 31.8517C6.09757 32.1002 17.6374 32.0067 18.8 31.7423C21.8388 31.0492 23.7082 29.7544 25.4157 27.1692C27.6931 23.72 27.1687 19.188 24.114 15.8802C22.9695 14.6423 20.4892 13.2107 20.1747 13.6096Z" fill="#0024AA"/>
</g>
<path d="M43.7423 25V7.54545H50.1344C51.373 7.54545 52.3986 7.75 53.2111 8.15909C54.0236 8.5625 54.6315 9.1108 55.0349 9.80398C55.4383 10.4915 55.64 11.267 55.64 12.1307C55.64 12.858 55.5065 13.4716 55.2395 13.9716C54.9724 14.4659 54.6145 14.8636 54.1656 15.1648C53.7224 15.4602 53.2338 15.6761 52.6997 15.8125V15.983C53.2793 16.0114 53.8446 16.1989 54.3957 16.5455C54.9525 16.8864 55.4128 17.3722 55.7764 18.0028C56.14 18.6335 56.3219 19.4006 56.3219 20.304C56.3219 21.196 56.1116 21.9972 55.6912 22.7074C55.2764 23.4119 54.6344 23.9716 53.765 24.3864C52.8957 24.7955 51.7849 25 50.4327 25H43.7423ZM46.3758 22.7415H50.177C51.4383 22.7415 52.3418 22.4972 52.8872 22.0085C53.4327 21.5199 53.7054 20.9091 53.7054 20.1761C53.7054 19.625 53.5662 19.1193 53.2878 18.6591C53.0094 18.1989 52.6116 17.8324 52.0946 17.5597C51.5832 17.2869 50.9753 17.1506 50.2707 17.1506H46.3758V22.7415ZM46.3758 15.0966H49.9043C50.4952 15.0966 51.0264 14.983 51.498 14.7557C51.9753 14.5284 52.3531 14.2102 52.6315 13.8011C52.9156 13.3864 53.0577 12.8977 53.0577 12.3352C53.0577 11.6136 52.8048 11.0085 52.2991 10.5199C51.7935 10.0312 51.0179 9.78693 49.9724 9.78693H46.3758V15.0966ZM58.0989 7.54545H61.0903L65.65 15.4801H65.8375L70.3972 7.54545H73.3886L67.0562 18.1477V25H64.4312V18.1477L58.0989 7.54545ZM76.1159 9.8125V7.54545H89.6244V9.8125H84.1784V25H81.5534V9.8125H76.1159ZM92.6095 25V7.54545H103.553V9.8125H95.243V15.1307H102.982V17.3892H95.243V22.733H103.655V25H92.6095ZM116.59 12.1307C116.499 11.3239 116.124 10.6989 115.465 10.2557C114.806 9.80682 113.977 9.58239 112.977 9.58239C112.261 9.58239 111.641 9.69602 111.119 9.92329C110.596 10.1449 110.19 10.4517 109.9 10.8438C109.616 11.2301 109.474 11.6705 109.474 12.1648C109.474 12.5795 109.57 12.9375 109.764 13.2386C109.962 13.5398 110.221 13.7926 110.539 13.9972C110.863 14.196 111.21 14.3636 111.579 14.5C111.948 14.6307 112.303 14.7386 112.644 14.8239L114.349 15.267C114.906 15.4034 115.477 15.5881 116.062 15.821C116.647 16.054 117.19 16.3608 117.69 16.7415C118.19 17.1222 118.593 17.5938 118.9 18.1562C119.212 18.7188 119.369 19.392 119.369 20.1761C119.369 21.1648 119.113 22.0426 118.602 22.8097C118.096 23.5767 117.36 24.1818 116.394 24.625C115.434 25.0682 114.272 25.2898 112.909 25.2898C111.602 25.2898 110.471 25.0824 109.516 24.6676C108.562 24.2528 107.815 23.6648 107.275 22.9034C106.735 22.1364 106.437 21.2273 106.38 20.1761H109.022C109.073 20.8068 109.278 21.3324 109.636 21.7528C109.999 22.1676 110.462 22.4773 111.025 22.6818C111.593 22.8807 112.215 22.9801 112.891 22.9801C113.636 22.9801 114.298 22.8636 114.877 22.6307C115.462 22.392 115.923 22.0625 116.258 21.642C116.593 21.2159 116.761 20.7187 116.761 20.1506C116.761 19.6335 116.613 19.2102 116.318 18.8807C116.028 18.5511 115.633 18.2784 115.133 18.0625C114.639 17.8466 114.079 17.6562 113.454 17.4915L111.391 16.929C109.994 16.5483 108.886 15.9886 108.068 15.25C107.255 14.5114 106.849 13.5341 106.849 12.3182C106.849 11.3125 107.122 10.4347 107.667 9.68466C108.212 8.93466 108.951 8.35227 109.883 7.9375C110.815 7.51705 111.866 7.30682 113.036 7.30682C114.218 7.30682 115.261 7.5142 116.164 7.92898C117.073 8.34375 117.789 8.91477 118.312 9.64204C118.835 10.3636 119.107 11.1932 119.13 12.1307H116.59ZM133.74 7.54545H136.382V19.0256C136.382 20.2472 136.095 21.3295 135.521 22.2727C134.948 23.2102 134.141 23.9489 133.101 24.4886C132.061 25.0227 130.842 25.2898 129.445 25.2898C128.053 25.2898 126.837 25.0227 125.797 24.4886C124.757 23.9489 123.95 23.2102 123.377 22.2727C122.803 21.3295 122.516 20.2472 122.516 19.0256V7.54545H125.149V18.8125C125.149 19.6023 125.323 20.304 125.669 20.9176C126.021 21.5312 126.519 22.0142 127.161 22.3665C127.803 22.7131 128.564 22.8864 129.445 22.8864C130.331 22.8864 131.095 22.7131 131.737 22.3665C132.385 22.0142 132.879 21.5312 133.22 20.9176C133.567 20.304 133.74 19.6023 133.74 18.8125V7.54545ZM140.211 7.54545H143.407L148.964 21.1136H149.168L154.725 7.54545H157.921V25H155.416V12.3693H155.254L150.106 24.9744H148.026L142.879 12.3608H142.717V25H140.211V7.54545ZM161.75 7.54545H164.946L170.503 21.1136H170.708L176.264 7.54545H179.46V25H176.955V12.3693H176.793L171.645 24.9744H169.565L164.418 12.3608H164.256V25H161.75V7.54545ZM185.923 7.54545V25H183.289V7.54545H185.923ZM188.897 9.8125V7.54545H202.406V9.8125H196.96V25H194.335V9.8125H188.897Z" fill="#0024AA"/>
<defs>
<clipPath id="clip0_209_25677">
<rect width="26.6496" height="32" fill="white" transform="translate(0.175293)"/>
</clipPath>
</defs>
</svg>
