<svg width="41" height="37" viewBox="0 0 41 37" fill="none" xmlns="http://www.w3.org/2000/svg">
<rect x="0.609375" y="0.452148" width="40" height="36" rx="18" fill="#FF8039"/>
<path d="M25.6094 9.95215H15.6094C12.6094 9.95215 10.6094 11.4521 10.6094 14.9521V21.9521C10.6094 25.4521 12.6094 26.9521 15.6094 26.9521H25.6094C28.6094 26.9521 30.6094 25.4521 30.6094 21.9521V14.9521C30.6094 11.4521 28.6094 9.95215 25.6094 9.95215ZM26.0794 16.0421L22.9494 18.5421C22.2894 19.0721 21.4494 19.3321 20.6094 19.3321C19.7694 19.3321 18.9194 19.0721 18.2694 18.5421L15.1394 16.0421C14.8194 15.7821 14.7694 15.3021 15.0194 14.9821C15.2794 14.6621 15.7494 14.6021 16.0694 14.8621L19.1994 17.3621C19.9594 17.9721 21.2494 17.9721 22.0094 17.3621L25.1394 14.8621C25.4594 14.6021 25.9394 14.6521 26.1894 14.9821C26.4494 15.3021 26.3994 15.7821 26.0794 16.0421Z" fill="white"/>
</svg>
