<svg width="41" height="37" viewBox="0 0 41 37" fill="none" xmlns="http://www.w3.org/2000/svg">
<rect x="0.160156" y="0.343994" width="40" height="36" rx="18" fill="#FF8039"/>
<path d="M14.1602 15.674V21.014C14.1602 24.334 16.5102 25.684 19.3802 24.034L20.6602 23.294C20.9702 23.114 21.1602 22.784 21.1602 22.424V14.264C21.1602 13.904 20.9702 13.574 20.6602 13.394L19.3802 12.654C16.5102 11.004 14.1602 12.354 14.1602 15.674Z" fill="white"/>
<path d="M22.1602 15.1341V21.5641C22.1602 21.9541 22.5802 22.1941 22.9102 21.9941L24.0102 21.3541C26.8802 19.7041 26.8802 16.9841 24.0102 15.3341L22.9102 14.6941C22.5802 14.5041 22.1602 14.7441 22.1602 15.1341Z" fill="white"/>
</svg>
