<svg width="338" height="346" viewBox="0 0 338 346" fill="none" xmlns="http://www.w3.org/2000/svg">
<g filter="url(#filter0_d_196_36231)">
<path d="M26.9769 121.6L26.9769 139.54C26.9769 140.024 26.9992 140.467 27.0366 140.793C27.055 140.955 27.0783 141.098 27.1077 141.207C27.1217 141.259 27.1416 141.32 27.1721 141.374C27.1873 141.402 27.2129 141.441 27.2537 141.478C27.2962 141.515 27.3701 141.561 27.4707 141.561L33.403 141.561C33.5037 141.561 33.5775 141.515 33.6201 141.478C33.6609 141.441 33.6865 141.402 33.7017 141.374C33.7321 141.32 33.7521 141.259 33.7661 141.207C33.7955 141.098 33.8187 140.955 33.8372 140.793C33.8745 140.467 33.8969 140.024 33.8969 139.54L33.8969 121.6C33.8969 121.116 33.8745 120.673 33.8372 120.346C33.8187 120.185 33.7955 120.042 33.7661 119.933C33.7521 119.881 33.7321 119.82 33.7017 119.765C33.6865 119.738 33.6609 119.698 33.6201 119.662C33.5775 119.624 33.5037 119.578 33.403 119.578L27.4707 119.578C27.3701 119.578 27.2962 119.624 27.2537 119.662C27.2129 119.698 27.1873 119.738 27.1721 119.765C27.1416 119.82 27.1217 119.881 27.1077 119.933C27.0783 120.042 27.055 120.185 27.0366 120.346C26.9992 120.673 26.9769 121.116 26.9769 121.6Z" fill="url(#paint0_linear_196_36231)" stroke="url(#paint1_linear_196_36231)" stroke-width="0.593146"/>
<path d="M26.9769 165.376L26.9769 201.92C26.9769 202.895 26.999 203.779 27.0351 204.422C27.0531 204.742 27.0749 205.008 27.0999 205.197C27.1122 205.29 27.1267 205.375 27.145 205.441C27.1535 205.472 27.1674 205.517 27.191 205.56C27.2027 205.581 27.2248 205.616 27.2619 205.65C27.3006 205.685 27.3717 205.731 27.4707 205.731L33.403 205.731C33.5021 205.731 33.5732 205.685 33.6119 205.65C33.649 205.616 33.671 205.581 33.6827 205.56C33.7064 205.517 33.7203 205.472 33.7288 205.441C33.7471 205.375 33.7615 205.29 33.7738 205.197C33.7989 205.008 33.8207 204.742 33.8386 204.422C33.8747 203.779 33.8969 202.895 33.8969 201.92L33.8969 165.376C33.8969 164.402 33.8747 163.518 33.8386 162.875C33.8207 162.555 33.7989 162.289 33.7738 162.1C33.7615 162.007 33.7471 161.922 33.7288 161.855C33.7203 161.824 33.7064 161.78 33.6827 161.737C33.671 161.716 33.649 161.68 33.6119 161.647C33.5732 161.612 33.5021 161.566 33.403 161.566L27.4707 161.566C27.3717 161.566 27.3006 161.612 27.2619 161.647C27.2248 161.68 27.2027 161.716 27.191 161.737C27.1674 161.78 27.1535 161.824 27.145 161.855C27.1267 161.922 27.1122 162.007 27.0999 162.1C27.0749 162.289 27.0531 162.555 27.0351 162.875C26.999 163.518 26.9769 164.402 26.9769 165.376Z" fill="url(#paint2_linear_196_36231)" stroke="url(#paint3_linear_196_36231)" stroke-width="0.593146"/>
<path d="M26.9769 221.624L26.9769 258.168C26.9769 259.142 26.999 260.026 27.0351 260.669C27.0531 260.989 27.0749 261.256 27.0999 261.445C27.1122 261.537 27.1267 261.622 27.145 261.689C27.1535 261.72 27.1674 261.764 27.191 261.807C27.2027 261.828 27.2248 261.864 27.2619 261.897C27.3006 261.932 27.3717 261.978 27.4707 261.978L33.403 261.978C33.5021 261.978 33.5732 261.932 33.6119 261.897C33.649 261.864 33.671 261.828 33.6827 261.807C33.7064 261.764 33.7203 261.72 33.7288 261.689C33.7471 261.622 33.7615 261.537 33.7738 261.445C33.7989 261.256 33.8207 260.989 33.8386 260.669C33.8747 260.026 33.8969 259.142 33.8969 258.168L33.8969 221.624C33.8969 220.65 33.8747 219.765 33.8386 219.122C33.8207 218.802 33.7989 218.536 33.7738 218.347C33.7615 218.254 33.7471 218.169 33.7288 218.103C33.7203 218.072 33.7064 218.027 33.6827 217.984C33.671 217.963 33.649 217.928 33.6119 217.894C33.5732 217.859 33.5021 217.813 33.403 217.813L27.4707 217.813C27.3717 217.813 27.3006 217.859 27.2619 217.894C27.2248 217.928 27.2027 217.963 27.191 217.984C27.1674 218.027 27.1535 218.072 27.145 218.103C27.1267 218.169 27.1122 218.254 27.0999 218.347C27.0749 218.536 27.0531 218.802 27.0351 219.122C26.999 219.765 26.9769 220.65 26.9769 221.624Z" fill="url(#paint4_linear_196_36231)" stroke="url(#paint5_linear_196_36231)" stroke-width="0.593146"/>
<path d="M302.989 198.19L302.989 254.667C302.989 256.171 302.996 257.53 303.009 258.514C303.015 259.005 303.022 259.404 303.031 259.681C303.035 259.818 303.039 259.929 303.044 260.006C303.046 260.043 303.049 260.078 303.053 260.106C303.054 260.118 303.057 260.14 303.063 260.163C303.065 260.172 303.072 260.198 303.087 260.229C303.095 260.243 303.112 260.275 303.144 260.307C303.177 260.34 303.248 260.394 303.354 260.394L310.334 260.394C310.44 260.394 310.511 260.34 310.544 260.307C310.576 260.275 310.593 260.244 310.601 260.229C310.616 260.198 310.623 260.172 310.625 260.163C310.631 260.14 310.634 260.118 310.635 260.106C310.639 260.078 310.642 260.043 310.644 260.006C310.649 259.929 310.653 259.818 310.657 259.681C310.666 259.404 310.673 259.005 310.679 258.514C310.692 257.531 310.699 256.172 310.699 254.667L310.699 198.19C310.699 196.685 310.692 195.326 310.679 194.343C310.673 193.851 310.666 193.452 310.657 193.176C310.653 193.038 310.649 192.927 310.644 192.85C310.642 192.813 310.639 192.778 310.635 192.75C310.634 192.738 310.631 192.716 310.625 192.694C310.623 192.685 310.616 192.658 310.601 192.627C310.593 192.613 310.576 192.581 310.544 192.549C310.511 192.516 310.44 192.462 310.334 192.462L303.354 192.462C303.248 192.462 303.177 192.516 303.144 192.549C303.112 192.581 303.095 192.613 303.087 192.627C303.072 192.658 303.065 192.685 303.063 192.693C303.057 192.716 303.054 192.738 303.053 192.75C303.049 192.778 303.046 192.813 303.044 192.85C303.039 192.927 303.035 193.038 303.031 193.175C303.022 193.452 303.015 193.851 303.009 194.342C302.996 195.325 302.989 196.684 302.989 198.19Z" fill="url(#paint6_linear_196_36231)" stroke="url(#paint7_linear_196_36231)" stroke-width="0.593146"/>
<path d="M259.848 8.96484H77.8245C51.0892 8.96484 29.416 30.6752 29.416 57.4562V537.206C29.416 563.987 51.0892 585.697 77.8245 585.697H259.848C286.583 585.697 308.257 563.987 308.257 537.206V57.4562C308.257 30.6752 286.583 8.96484 259.848 8.96484Z" fill="url(#paint8_angular_196_36231)" stroke="#3A3A3A" stroke-width="0.593145" stroke-linecap="round" stroke-linejoin="round"/>
<path d="M259.028 12.3582H78.6445C53.7766 12.3582 33.6172 32.5521 33.6172 57.4625V537.2C33.6172 562.11 53.7766 582.304 78.6445 582.304H259.028C283.896 582.304 304.055 562.11 304.055 537.2V57.4625C304.055 32.5521 283.896 12.3582 259.028 12.3582Z" fill="black"/>
<path d="M259.028 12.3582H78.6445C53.7766 12.3582 33.6172 32.5521 33.6172 57.4625V537.2C33.6172 562.11 53.7766 582.304 78.6445 582.304H259.028C283.896 582.304 304.055 562.11 304.055 537.2V57.4625C304.055 32.5521 283.896 12.3582 259.028 12.3582Z" fill="black"/>
<path d="M249.779 8.96484H246.016V12.3582H249.779V8.96484Z" fill="#7D7E7F"/>
<path d="M308.256 73.3173V69.5474H304.054V73.3173H308.256Z" fill="#7D7E7F"/>
<path d="M29.416 73.3173V69.5474H33.6174V73.3173H29.416Z" fill="#7D7E7F"/>
<g clip-path="url(#clip0_196_36231)">
<rect x="41.3091" y="21.1943" width="255.053" height="552.274" rx="38.5545" fill="#FF8039"/>
<path d="M72.4244 120.681C72.4244 120.96 72.1931 121.191 71.9143 121.191H59.6717C59.3929 121.191 59.1616 120.96 59.1616 120.681C59.1616 120.402 59.3929 120.171 59.6717 120.171H60.3655L60.6239 118.94C60.8688 117.749 61.3789 116.654 63.4057 116.654H68.1803C70.2071 116.654 70.7172 117.749 70.9621 118.94L71.2205 120.171H71.9143C72.1931 120.171 72.4244 120.402 72.4244 120.681Z" fill="white"/>
<path d="M72.7169 124.531C72.6148 123.408 72.3156 122.211 70.1323 122.211H61.4537C59.2705 122.211 58.978 123.408 58.8692 124.531L58.4883 128.673C58.4407 129.19 58.6108 129.706 58.9644 130.094C59.3249 130.489 59.835 130.713 60.3791 130.713H61.6578C62.7596 130.713 62.9705 130.081 63.1065 129.666L63.2425 129.258C63.3989 128.788 63.4397 128.673 64.0519 128.673H67.5342C68.1463 128.673 68.1667 128.741 68.3436 129.258L68.4796 129.666C68.6156 130.081 68.8265 130.713 69.9283 130.713H71.207C71.7443 130.713 72.2612 130.489 72.6216 130.094C72.9753 129.706 73.1454 129.19 73.0977 128.673L72.7169 124.531ZM63.7526 125.952H61.7122C61.4333 125.952 61.2021 125.721 61.2021 125.442C61.2021 125.163 61.4333 124.932 61.7122 124.932H63.7526C64.0315 124.932 64.2627 125.163 64.2627 125.442C64.2627 125.721 64.0315 125.952 63.7526 125.952ZM69.8739 125.952H67.8335C67.5546 125.952 67.3233 125.721 67.3233 125.442C67.3233 125.163 67.5546 124.932 67.8335 124.932H69.8739C70.1527 124.932 70.384 125.163 70.384 125.442C70.384 125.721 70.1527 125.952 69.8739 125.952Z" fill="white"/>
<path d="M85.602 119.718V123.391H87.8935C89.1223 123.391 89.8197 122.727 89.8197 121.551C89.8197 120.402 89.0758 119.718 87.8404 119.718H85.602ZM85.602 124.447V128.24H84.4064V118.655H87.9998C89.8462 118.655 91.0551 119.784 91.0551 121.511C91.0551 122.846 90.3311 123.883 89.1289 124.261L91.3473 128.24H89.9459L87.8935 124.447H85.602ZM92.4433 128.24V121.332H93.599V128.24H92.4433ZM93.0211 120.17C92.6292 120.17 92.3038 119.844 92.3038 119.452C92.3038 119.054 92.6292 118.735 93.0211 118.735C93.4196 118.735 93.7451 119.054 93.7451 119.452C93.7451 119.844 93.4196 120.17 93.0211 120.17ZM97.7768 128.359C96.0167 128.359 94.8211 126.951 94.8211 124.786C94.8211 122.621 96.01 121.213 97.7502 121.213C98.7399 121.213 99.5369 121.697 99.9487 122.455H99.9753V118.655H101.131V128.24H100.028V127.071H100.008C99.5635 127.868 98.7731 128.359 97.7768 128.359ZM97.996 122.229C96.7738 122.229 96.0034 123.225 96.0034 124.786C96.0034 126.353 96.7738 127.343 97.996 127.343C99.1849 127.343 99.9819 126.333 99.9819 124.786C99.9819 123.245 99.1849 122.229 97.996 122.229ZM105.462 122.215C104.379 122.215 103.622 123.046 103.549 124.195H107.301C107.275 123.039 106.551 122.215 105.462 122.215ZM107.275 126.26H108.411C108.211 127.469 107.042 128.359 105.535 128.359C103.555 128.359 102.353 126.984 102.353 124.812C102.353 122.667 103.575 121.213 105.481 121.213C107.348 121.213 108.497 122.567 108.497 124.66V125.098H103.542V125.165C103.542 126.486 104.319 127.356 105.561 127.356C106.438 127.356 107.082 126.911 107.275 126.26ZM113.791 128.399C111.147 128.399 109.473 126.48 109.473 123.444C109.473 120.435 111.167 118.496 113.791 118.496C115.876 118.496 117.464 119.765 117.769 121.677H116.56C116.255 120.422 115.159 119.599 113.791 119.599C111.918 119.599 110.702 121.113 110.702 123.444C110.702 125.795 111.904 127.297 113.797 127.297C115.205 127.297 116.215 126.619 116.56 125.45H117.769C117.331 127.343 115.909 128.399 113.791 128.399ZM119.064 128.24V118.655H120.22V122.435H120.247C120.632 121.664 121.389 121.213 122.439 121.213C123.953 121.213 124.869 122.235 124.869 123.776V128.24H123.714V123.989C123.714 122.893 123.162 122.235 122.08 122.235C120.931 122.235 120.22 123.019 120.22 124.215V128.24H119.064ZM128.616 127.376C129.705 127.376 130.542 126.612 130.542 125.616V125.052L128.695 125.165C127.765 125.224 127.234 125.636 127.234 126.287C127.234 126.945 127.785 127.376 128.616 127.376ZM128.357 128.359C126.982 128.359 126.058 127.529 126.058 126.287C126.058 125.105 126.968 124.361 128.562 124.268L130.542 124.155V123.577C130.542 122.734 129.984 122.229 129.027 122.229C128.137 122.229 127.579 122.647 127.433 123.325H126.317C126.397 122.129 127.42 121.213 129.054 121.213C130.675 121.213 131.697 122.089 131.697 123.464V128.24H130.602V127.051H130.575C130.163 127.841 129.286 128.359 128.357 128.359ZM133.225 128.24V121.332H134.381V128.24H133.225ZM133.803 120.17C133.411 120.17 133.086 119.844 133.086 119.452C133.086 119.054 133.411 118.735 133.803 118.735C134.201 118.735 134.527 119.054 134.527 119.452C134.527 119.844 134.201 120.17 133.803 120.17ZM135.942 128.24V121.332H137.031V122.435H137.058C137.443 121.691 138.18 121.213 139.249 121.213C140.764 121.213 141.641 122.189 141.641 123.756V128.24H140.485V123.962C140.485 122.846 139.96 122.235 138.897 122.235C137.808 122.235 137.097 123.006 137.097 124.175V128.24H135.942Z" fill="white"/>
<path d="M62.6766 187.809V193.309H65.7851C67.6023 193.309 68.6664 192.269 68.6664 190.559C68.6664 188.885 67.5425 187.809 65.7492 187.809H62.6766ZM62.6766 195.927V202.24H59.066V184.988H66.1318C70.101 184.988 72.3726 187.08 72.3726 190.487C72.3726 192.699 71.2249 194.612 69.2402 195.389L72.8747 202.24H68.7859L65.5699 195.927H62.6766ZM74.5126 202.24V189.423H78.0037V202.24H74.5126ZM76.2582 188.013C75.2061 188.013 74.3931 187.212 74.3931 186.207C74.3931 185.191 75.2061 184.402 76.2582 184.402C77.3103 184.402 78.1232 185.191 78.1232 186.207C78.1232 187.212 77.3103 188.013 76.2582 188.013ZM85.0933 202.443C81.8893 202.443 79.8688 199.908 79.8688 195.808C79.8688 191.743 81.9012 189.22 85.1173 189.22C86.9704 189.22 88.405 190.2 89.0267 191.623H89.0985V184.988H92.5895V202.24H89.1463V200.04H89.0865C88.4648 201.451 86.9823 202.443 85.0933 202.443ZM86.277 192.018C84.5195 192.018 83.4435 193.488 83.4435 195.832C83.4435 198.187 84.5195 199.633 86.277 199.633C88.0105 199.633 89.1224 198.175 89.1224 195.832C89.1224 193.5 88.0105 192.018 86.277 192.018ZM100.671 191.731C99.1412 191.731 98.0413 192.89 97.9217 194.493H103.361C103.29 192.855 102.226 191.731 100.671 191.731ZM103.409 198.318H106.613C106.231 200.829 103.935 202.515 100.767 202.515C96.8218 202.515 94.4546 199.992 94.4546 195.891C94.4546 191.803 96.8457 189.148 100.636 189.148C104.366 189.148 106.721 191.671 106.721 195.569V196.633H97.8858V196.848C97.8858 198.677 99.0455 199.932 100.827 199.932C102.106 199.932 103.087 199.299 103.409 198.318ZM116.453 202.539C111.432 202.539 108.287 199.179 108.287 193.608C108.287 188.048 111.455 184.689 116.453 184.689C120.601 184.689 123.758 187.319 124.033 191.181H120.518C120.183 189.065 118.557 187.678 116.453 187.678C113.727 187.678 111.97 189.961 111.97 193.596C111.97 197.278 113.703 199.55 116.465 199.55C118.605 199.55 120.147 198.294 120.53 196.25H124.045C123.638 200.1 120.685 202.539 116.453 202.539ZM126.065 202.24V184.988H129.496V191.707H129.568C130.25 190.093 131.648 189.184 133.597 189.184C136.443 189.184 138.069 191.025 138.069 193.99V202.24H134.578V194.732C134.578 193.082 133.765 192.077 132.174 192.077C130.525 192.077 129.556 193.237 129.556 194.923V202.24H126.065ZM145.254 199.92C146.772 199.92 148.028 198.928 148.028 197.541V196.609L145.326 196.776C144.022 196.872 143.281 197.458 143.281 198.366C143.281 199.323 144.07 199.92 145.254 199.92ZM144.106 202.443C141.667 202.443 139.814 200.865 139.814 198.557C139.814 196.226 141.607 194.875 144.8 194.684L148.028 194.493V193.644C148.028 192.448 147.191 191.755 145.876 191.755C144.572 191.755 143.747 192.4 143.58 193.345H140.388C140.519 190.858 142.636 189.148 146.031 189.148C149.319 189.148 151.459 190.846 151.459 193.428V202.24H148.087V200.279H148.016C147.298 201.642 145.708 202.443 144.106 202.443ZM153.778 202.24V189.423H157.269V202.24H153.778ZM155.524 188.013C154.472 188.013 153.659 187.212 153.659 186.207C153.659 185.191 154.472 184.402 155.524 184.402C156.576 184.402 157.389 185.191 157.389 186.207C157.389 187.212 156.576 188.013 155.524 188.013ZM159.601 202.24V189.423H162.972V191.707H163.044C163.725 190.117 165.076 189.184 167.049 189.184C169.894 189.184 171.496 190.978 171.496 193.978V202.24H168.005V194.708C168.005 193.034 167.216 192.077 165.65 192.077C164.084 192.077 163.092 193.225 163.092 194.887V202.24H159.601ZM176.279 206.018H173.66L174.557 199.275H177.881L176.279 206.018ZM185.58 206.986C185.461 206.986 184.373 206.974 184.265 206.95V204.26C184.373 204.284 185.006 204.284 185.138 204.284C186.417 204.284 187.051 203.878 187.29 202.861C187.29 202.814 187.421 202.3 187.397 202.252L182.938 189.423H186.776L189.502 199.442H189.561L192.287 189.423H195.97L191.558 202.527C190.458 205.814 188.856 206.986 185.58 206.986ZM202.76 202.515C198.887 202.515 196.412 200.028 196.412 195.82C196.412 191.671 198.923 189.148 202.76 189.148C206.598 189.148 209.109 191.659 209.109 195.82C209.109 200.04 206.634 202.515 202.76 202.515ZM202.76 199.849C204.47 199.849 205.558 198.402 205.558 195.832C205.558 193.285 204.458 191.814 202.76 191.814C201.063 191.814 199.951 193.285 199.951 195.832C199.951 198.402 201.039 199.849 202.76 199.849ZM222.75 189.423V202.24H219.379V199.932H219.307C218.673 201.546 217.406 202.479 215.469 202.479C212.695 202.479 210.854 200.674 210.854 197.685V189.423H214.345V196.955C214.345 198.665 215.194 199.574 216.736 199.574C218.291 199.574 219.259 198.462 219.259 196.764V189.423H222.75ZM225.022 202.24V189.423H228.393V191.731H228.465C228.919 190.105 230.007 189.22 231.514 189.22C231.92 189.22 232.267 189.28 232.506 189.352V192.424C232.219 192.305 231.741 192.221 231.239 192.221C229.517 192.221 228.513 193.273 228.513 195.078V202.24H225.022ZM64.6851 229.514C66.4307 229.514 67.5425 228.127 67.5425 225.808C67.5425 223.5 66.4307 222.018 64.6851 222.018C62.9635 222.018 61.8756 223.476 61.8756 225.808C61.8756 228.151 62.9516 229.514 64.6851 229.514ZM64.6254 237.07C61.2539 237.07 58.9704 235.432 58.6954 233.148H62.1147C62.3897 234.033 63.3939 234.643 64.721 234.643C66.5263 234.643 67.5306 233.639 67.5306 232.156V229.908H67.4588C66.8611 231.271 65.3547 232.204 63.5015 232.204C60.3692 232.204 58.3009 229.789 58.3009 225.784C58.3009 221.719 60.3094 219.22 63.5613 219.22C65.4025 219.22 66.8491 220.189 67.5186 221.659H67.5784V219.423H71.0216V232.06C71.0216 235.121 68.4631 237.07 64.6254 237.07ZM78.2547 229.92C79.7731 229.92 81.0284 228.928 81.0284 227.541V226.609L78.3265 226.776C77.0233 226.872 76.2821 227.458 76.2821 228.366C76.2821 229.323 77.0711 229.92 78.2547 229.92ZM77.107 232.443C74.6681 232.443 72.815 230.865 72.815 228.557C72.815 226.226 74.6083 224.875 77.8004 224.684L81.0284 224.493V223.644C81.0284 222.448 80.1916 221.755 78.8764 221.755C77.5733 221.755 76.7483 222.4 76.581 223.345H73.3888C73.5203 220.858 75.6365 219.148 79.0319 219.148C82.3197 219.148 84.4597 220.846 84.4597 223.428V232.24H81.0882V230.279H81.0165C80.2992 231.642 78.7091 232.443 77.107 232.443ZM87.6518 216.47H91.1429V219.423H93.5101V222.054H91.1429V228.187C91.1429 229.167 91.6211 229.633 92.6493 229.633C92.9601 229.633 93.2829 229.61 93.4981 229.574V232.144C93.1395 232.228 92.5417 232.288 91.8363 232.288C88.8235 232.288 87.6518 231.283 87.6518 228.785V222.054H85.8465V219.423H87.6518V216.47ZM100.982 221.731C99.452 221.731 98.3521 222.89 98.2325 224.493H103.672C103.601 222.855 102.537 221.731 100.982 221.731ZM103.72 228.318H106.924C106.542 230.829 104.246 232.515 101.078 232.515C97.1326 232.515 94.7654 229.992 94.7654 225.891C94.7654 221.803 97.1565 219.148 100.946 219.148C104.677 219.148 107.032 221.671 107.032 225.569V226.633H98.1967V226.848C98.1967 228.677 99.3564 229.932 101.138 229.932C102.417 229.932 103.397 229.299 103.72 228.318ZM126.747 219.423L123.351 232.24H119.633L117.314 223.177H117.242L114.935 232.24H111.264L107.857 219.423H111.372L113.309 228.928H113.38L115.652 219.423H118.999L121.283 228.928H121.355L123.303 219.423H126.747ZM132.868 229.92C134.386 229.92 135.642 228.928 135.642 227.541V226.609L132.94 226.776C131.636 226.872 130.895 227.458 130.895 228.366C130.895 229.323 131.684 229.92 132.868 229.92ZM131.72 232.443C129.281 232.443 127.428 230.865 127.428 228.557C127.428 226.226 129.221 224.875 132.414 224.684L135.642 224.493V223.644C135.642 222.448 134.805 221.755 133.49 221.755C132.186 221.755 131.362 222.4 131.194 223.345H128.002C128.133 220.858 130.25 219.148 133.645 219.148C136.933 219.148 139.073 220.846 139.073 223.428V232.24H135.701V230.279H135.63C134.912 231.642 133.322 232.443 131.72 232.443ZM142.899 236.986C142.779 236.986 141.691 236.974 141.584 236.95V234.26C141.691 234.284 142.325 234.284 142.456 234.284C143.736 234.284 144.369 233.878 144.608 232.861C144.608 232.814 144.74 232.3 144.716 232.252L140.256 219.423H144.094L146.82 229.442H146.88L149.606 219.423H153.288L148.876 232.527C147.777 235.814 146.174 236.986 142.899 236.986ZM160.342 216.47H163.833V219.423H166.2V222.054H163.833V228.187C163.833 229.167 164.311 229.633 165.339 229.633C165.65 229.633 165.973 229.61 166.188 229.574V232.144C165.829 232.228 165.232 232.288 164.526 232.288C161.514 232.288 160.342 231.283 160.342 228.785V222.054H158.537V219.423H160.342V216.47ZM173.804 232.515C169.93 232.515 167.455 230.028 167.455 225.82C167.455 221.671 169.966 219.148 173.804 219.148C177.642 219.148 180.152 221.659 180.152 225.82C180.152 230.04 177.677 232.515 173.804 232.515ZM173.804 229.849C175.514 229.849 176.601 228.402 176.601 225.832C176.601 223.285 175.502 221.814 173.804 221.814C172.106 221.814 170.994 223.285 170.994 225.832C170.994 228.402 172.082 229.849 173.804 229.849ZM63.5255 261.443C60.3214 261.443 58.3009 258.908 58.3009 254.808C58.3009 250.743 60.3333 248.22 63.5494 248.22C65.4025 248.22 66.8372 249.2 67.4588 250.623H67.5306V243.988H71.0216V261.24H67.5784V259.04H67.5186C66.8969 260.451 65.4144 261.443 63.5255 261.443ZM64.7091 251.018C62.9516 251.018 61.8756 252.488 61.8756 254.832C61.8756 257.187 62.9516 258.633 64.7091 258.633C66.4426 258.633 67.5545 257.175 67.5545 254.832C67.5545 252.5 66.4426 251.018 64.7091 251.018ZM79.1036 250.731C77.5733 250.731 76.4734 251.89 76.3538 253.493H81.7936C81.7219 251.855 80.6578 250.731 79.1036 250.731ZM81.8414 257.318H85.0455C84.6629 259.829 82.3675 261.515 79.1992 261.515C75.2539 261.515 72.8867 258.992 72.8867 254.891C72.8867 250.803 75.2778 248.148 79.0677 248.148C82.7979 248.148 85.1531 250.671 85.1531 254.569V255.633H76.3179V255.848C76.3179 257.677 77.4776 258.932 79.259 258.932C80.5383 258.932 81.5186 258.299 81.8414 257.318ZM98.6032 253.194H95.3632C95.16 251.843 94.2633 250.886 92.8286 250.886C91.107 250.886 90.031 252.345 90.031 254.82C90.031 257.342 91.107 258.777 92.8406 258.777C94.2394 258.777 95.148 257.94 95.3632 256.541H98.6151C98.4358 259.566 96.1762 261.515 92.8047 261.515C88.943 261.515 86.4922 259.004 86.4922 254.82C86.4922 250.707 88.943 248.148 92.7808 248.148C96.2479 248.148 98.4477 250.288 98.6032 253.194ZM106.052 250.731C104.521 250.731 103.421 251.89 103.302 253.493H108.742C108.67 251.855 107.606 250.731 106.052 250.731ZM108.789 257.318H111.993C111.611 259.829 109.315 261.515 106.147 261.515C102.202 261.515 99.8346 258.992 99.8346 254.891C99.8346 250.803 102.226 248.148 106.016 248.148C109.746 248.148 112.101 250.671 112.101 254.569V255.633H103.266V255.848C103.266 257.677 104.426 258.932 106.207 258.932C107.486 258.932 108.467 258.299 108.789 257.318ZM113.906 261.24V248.423H117.278V250.707H117.35C118.031 249.117 119.382 248.184 121.355 248.184C124.2 248.184 125.802 249.978 125.802 252.978V261.24H122.311V253.708C122.311 252.034 121.522 251.077 119.956 251.077C118.39 251.077 117.397 252.225 117.397 253.887V261.24H113.906ZM128.946 245.47H132.438V248.423H134.805V251.054H132.438V257.187C132.438 258.167 132.916 258.633 133.944 258.633C134.255 258.633 134.578 258.61 134.793 258.574V261.144C134.434 261.228 133.836 261.288 133.131 261.288C130.118 261.288 128.946 260.283 128.946 257.785V251.054H127.141V248.423H128.946V245.47ZM136.718 261.24V248.423H140.089V250.731H140.161C140.615 249.105 141.703 248.22 143.209 248.22C143.616 248.22 143.963 248.28 144.202 248.352V251.424C143.915 251.305 143.437 251.221 142.935 251.221C141.213 251.221 140.209 252.273 140.209 254.078V261.24H136.718ZM150.275 258.92C151.794 258.92 153.049 257.928 153.049 256.541V255.609L150.347 255.776C149.044 255.872 148.303 256.458 148.303 257.366C148.303 258.323 149.092 258.92 150.275 258.92ZM149.128 261.443C146.689 261.443 144.835 259.865 144.835 257.557C144.835 255.226 146.629 253.875 149.821 253.684L153.049 253.493V252.644C153.049 251.448 152.212 250.755 150.897 250.755C149.594 250.755 148.769 251.4 148.601 252.345H145.409C145.541 249.858 147.657 248.148 151.052 248.148C154.34 248.148 156.48 249.846 156.48 252.428V261.24H153.109V259.279H153.037C152.32 260.642 150.73 261.443 149.128 261.443ZM158.824 261.24V243.988H162.315V261.24H158.824ZM164.73 261.24V248.423H168.221V261.24H164.73ZM166.475 247.013C165.423 247.013 164.61 246.212 164.61 245.207C164.61 244.191 165.423 243.402 166.475 243.402C167.527 243.402 168.34 244.191 168.34 245.207C168.34 246.212 167.527 247.013 166.475 247.013ZM170.313 261.24V259.255L176.697 251.161V251.089H170.408V248.423H180.75V250.635L174.748 258.502V258.562H180.894V261.24H170.313ZM188.449 250.731C186.919 250.731 185.819 251.89 185.7 253.493H191.139C191.068 251.855 190.004 250.731 188.449 250.731ZM191.187 257.318H194.391C194.009 259.829 191.713 261.515 188.545 261.515C184.6 261.515 182.233 258.992 182.233 254.891C182.233 250.803 184.624 248.148 188.414 248.148C192.144 248.148 194.499 250.671 194.499 254.569V255.633H185.664V255.848C185.664 257.677 186.824 258.932 188.605 258.932C189.884 258.932 190.864 258.299 191.187 257.318ZM201.063 261.443C197.859 261.443 195.838 258.908 195.838 254.808C195.838 250.743 197.87 248.22 201.087 248.22C202.94 248.22 204.374 249.2 204.996 250.623H205.068V243.988H208.559V261.24H205.116V259.04H205.056C204.434 260.451 202.952 261.443 201.063 261.443ZM202.246 251.018C200.489 251.018 199.413 252.488 199.413 254.832C199.413 257.187 200.489 258.633 202.246 258.633C203.98 258.633 205.092 257.175 205.092 254.832C205.092 252.5 203.98 251.018 202.246 251.018ZM59.6997 274.47H63.1907V277.423H65.5579V280.054H63.1907V286.187C63.1907 287.167 63.6689 287.633 64.6971 287.633C65.0079 287.633 65.3308 287.61 65.546 287.574V290.144C65.1873 290.228 64.5895 290.288 63.8841 290.288C60.8713 290.288 59.6997 289.283 59.6997 286.785V280.054H57.8944V277.423H59.6997V274.47ZM67.4708 290.24V277.423H70.8423V279.731H70.914C71.3683 278.105 72.4563 277.22 73.9627 277.22C74.3692 277.22 74.7159 277.28 74.955 277.352V280.424C74.6681 280.305 74.1898 280.221 73.6877 280.221C71.9661 280.221 70.9618 281.273 70.9618 283.078V290.24H67.4708ZM81.0284 287.92C82.5468 287.92 83.8021 286.928 83.8021 285.541V284.609L81.1002 284.776C79.797 284.872 79.0558 285.458 79.0558 286.366C79.0558 287.323 79.8448 287.92 81.0284 287.92ZM79.8807 290.443C77.4418 290.443 75.5887 288.865 75.5887 286.557C75.5887 284.226 77.382 282.875 80.5741 282.684L83.8021 282.493V281.644C83.8021 280.448 82.9653 279.755 81.6501 279.755C80.347 279.755 79.522 280.4 79.3547 281.345H76.1625C76.294 278.858 78.4102 277.148 81.8056 277.148C85.0934 277.148 87.2334 278.846 87.2334 281.428V290.24H83.8619V288.279H83.7902C83.0729 289.642 81.4828 290.443 79.8807 290.443ZM89.493 290.24V277.423H92.8645V279.707H92.9362C93.6177 278.117 94.9687 277.184 96.9413 277.184C99.7868 277.184 101.389 278.978 101.389 281.978V290.24H97.8978V282.708C97.8978 281.034 97.1087 280.077 95.5425 280.077C93.9764 280.077 92.984 281.225 92.984 282.887V290.24H89.493ZM103.385 281.189C103.385 278.75 105.502 277.148 108.789 277.148C112.005 277.148 114.098 278.774 114.145 281.261H110.929C110.858 280.233 110.033 279.599 108.742 279.599C107.534 279.599 106.745 280.149 106.745 280.974C106.745 281.608 107.295 282.038 108.419 282.301L110.87 282.827C113.44 283.401 114.48 284.417 114.48 286.33C114.48 288.853 112.161 290.515 108.777 290.515C105.358 290.515 103.254 288.865 103.063 286.366H106.47C106.637 287.442 107.486 288.064 108.873 288.064C110.2 288.064 111.001 287.538 111.001 286.701C111.001 286.055 110.571 285.697 109.423 285.422L107.056 284.896C104.629 284.346 103.385 283.078 103.385 281.189ZM123.71 277.22C126.962 277.22 128.958 279.695 128.958 283.832C128.958 287.956 126.974 290.443 123.77 290.443C121.905 290.443 120.47 289.534 119.788 288.088H119.717V294.424H116.226V277.423H119.669V279.659H119.741C120.434 278.153 121.857 277.22 123.71 277.22ZM122.538 287.633C124.284 287.633 125.384 286.163 125.384 283.832C125.384 281.512 124.284 280.018 122.538 280.018C120.829 280.018 119.705 281.536 119.705 283.832C119.705 286.151 120.829 287.633 122.538 287.633ZM136.646 290.515C132.772 290.515 130.297 288.028 130.297 283.82C130.297 279.671 132.808 277.148 136.646 277.148C140.484 277.148 142.994 279.659 142.994 283.82C142.994 288.04 140.519 290.515 136.646 290.515ZM136.646 287.849C138.356 287.849 139.443 286.402 139.443 283.832C139.443 281.285 138.344 279.814 136.646 279.814C134.948 279.814 133.836 281.285 133.836 283.832C133.836 286.402 134.924 287.849 136.646 287.849ZM144.8 290.24V277.423H148.171V279.731H148.243C148.697 278.105 149.785 277.22 151.291 277.22C151.698 277.22 152.045 277.28 152.284 277.352V280.424C151.997 280.305 151.519 280.221 151.016 280.221C149.295 280.221 148.291 281.273 148.291 283.078V290.24H144.8ZM154.651 274.47H158.142V277.423H160.509V280.054H158.142V286.187C158.142 287.167 158.62 287.633 159.648 287.633C159.959 287.633 160.282 287.61 160.497 287.574V290.144C160.139 290.228 159.541 290.288 158.835 290.288C155.823 290.288 154.651 289.283 154.651 286.785V280.054H152.846V277.423H154.651V274.47ZM167.252 287.92C168.771 287.92 170.026 286.928 170.026 285.541V284.609L167.324 284.776C166.021 284.872 165.28 285.458 165.28 286.366C165.28 287.323 166.069 287.92 167.252 287.92ZM166.104 290.443C163.666 290.443 161.812 288.865 161.812 286.557C161.812 284.226 163.606 282.875 166.798 282.684L170.026 282.493V281.644C170.026 280.448 169.189 279.755 167.874 279.755C166.571 279.755 165.746 280.4 165.578 281.345H162.386C162.518 278.858 164.634 277.148 168.029 277.148C171.317 277.148 173.457 278.846 173.457 281.428V290.24H170.086V288.279H170.014C169.297 289.642 167.707 290.443 166.104 290.443ZM176.649 274.47H180.14V277.423H182.508V280.054H180.14V286.187C180.14 287.167 180.619 287.633 181.647 287.633C181.958 287.633 182.28 287.61 182.496 287.574V290.144C182.137 290.228 181.539 290.288 180.834 290.288C177.821 290.288 176.649 289.283 176.649 286.785V280.054H174.844V277.423H176.649V274.47ZM184.48 290.24V277.423H187.971V290.24H184.48ZM186.226 276.013C185.174 276.013 184.361 275.212 184.361 274.207C184.361 273.191 185.174 272.402 186.226 272.402C187.278 272.402 188.091 273.191 188.091 274.207C188.091 275.212 187.278 276.013 186.226 276.013ZM196.185 290.515C192.311 290.515 189.836 288.028 189.836 283.82C189.836 279.671 192.347 277.148 196.185 277.148C200.022 277.148 202.533 279.659 202.533 283.82C202.533 288.04 200.058 290.515 196.185 290.515ZM196.185 287.849C197.894 287.849 198.982 286.402 198.982 283.832C198.982 281.285 197.882 279.814 196.185 279.814C194.487 279.814 193.375 281.285 193.375 283.832C193.375 286.402 194.463 287.849 196.185 287.849ZM204.338 290.24V277.423H207.71V279.707H207.782C208.463 278.117 209.814 277.184 211.787 277.184C214.632 277.184 216.234 278.978 216.234 281.978V290.24H212.743V282.708C212.743 281.034 211.954 280.077 210.388 280.077C208.822 280.077 207.829 281.225 207.829 282.887V290.24H204.338Z" fill="white"/>
<path d="M60.2431 318.253C59.5321 318.253 58.9662 318.053 58.5455 317.654C58.1319 317.255 57.9252 316.693 57.9252 315.967H59.0787C59.0787 316.33 59.1657 316.631 59.3399 316.871C59.5212 317.11 59.8151 317.23 60.2213 317.23C60.6203 317.23 60.9033 317.117 61.0701 316.892C61.237 316.66 61.3204 316.366 61.3204 316.011V310.504H62.4739V316.011C62.4739 316.729 62.2744 317.284 61.8754 317.676C61.4764 318.06 60.9323 318.253 60.2431 318.253ZM66.2787 318.253C65.7636 318.253 65.2993 318.137 64.8857 317.904C64.4795 317.665 64.1566 317.335 63.9172 316.914C63.6778 316.486 63.5581 315.989 63.5581 315.423C63.5581 314.857 63.6778 314.364 63.9172 313.943C64.1639 313.515 64.494 313.185 64.9075 312.953C65.321 312.714 65.7817 312.594 66.2895 312.594C66.8046 312.594 67.2653 312.714 67.6716 312.953C68.0851 313.185 68.4116 313.515 68.651 313.943C68.8976 314.364 69.021 314.857 69.021 315.423C69.021 315.989 68.8976 316.486 68.651 316.914C68.4116 317.335 68.0851 317.665 67.6716 317.904C67.2581 318.137 66.7937 318.253 66.2787 318.253ZM66.2787 317.262C66.5543 317.262 66.8083 317.193 67.0404 317.056C67.2798 316.918 67.4721 316.715 67.6172 316.446C67.7623 316.171 67.8348 315.83 67.8348 315.423C67.8348 315.017 67.7623 314.68 67.6172 314.411C67.4793 314.136 67.2907 313.929 67.0513 313.791C66.8191 313.653 66.5652 313.584 66.2895 313.584C66.0139 313.584 65.7563 313.653 65.5169 313.791C65.2847 313.929 65.0961 314.136 64.951 314.411C64.8059 314.68 64.7334 315.017 64.7334 315.423C64.7334 315.83 64.8059 316.171 64.951 316.446C65.0961 316.715 65.2847 316.918 65.5169 317.056C65.7491 317.193 66.003 317.262 66.2787 317.262ZM70.7037 311.702C70.4861 311.702 70.3047 311.636 70.1596 311.506C70.0218 311.368 69.9529 311.197 69.9529 310.994C69.9529 310.791 70.0218 310.624 70.1596 310.494C70.3047 310.356 70.4861 310.287 70.7037 310.287C70.9214 310.287 71.0991 310.356 71.237 310.494C71.3821 310.624 71.4546 310.791 71.4546 310.994C71.4546 311.197 71.3821 311.368 71.237 311.506C71.0991 311.636 70.9214 311.702 70.7037 311.702ZM70.127 318.122V312.724H71.2805V318.122H70.127ZM72.5856 318.122V312.724H73.6085L73.6956 313.671C73.8624 313.338 74.1055 313.076 74.4247 312.888C74.7512 312.692 75.1248 312.594 75.5456 312.594C76.1985 312.594 76.71 312.797 77.08 313.203C77.4572 313.61 77.6458 314.215 77.6458 315.021V318.122H76.5032V315.14C76.5032 314.096 76.0752 313.573 75.2191 313.573C74.7911 313.573 74.4356 313.726 74.1526 314.03C73.877 314.335 73.7391 314.77 73.7391 315.336V318.122H72.5856ZM83.3024 318.253C82.6495 318.253 82.1344 318.05 81.7571 317.643C81.3871 317.237 81.2021 316.631 81.2021 315.826V312.724H82.3556V315.706C82.3556 316.751 82.7837 317.273 83.6397 317.273C84.0678 317.273 84.4196 317.121 84.6953 316.816C84.971 316.511 85.1089 316.076 85.1089 315.51V312.724H86.2624V318.122H85.2394L85.1524 317.175C84.9855 317.509 84.7389 317.774 84.4124 317.97C84.0932 318.158 83.7232 318.253 83.3024 318.253ZM89.6668 318.253C88.9849 318.253 88.4226 318.086 87.9801 317.752C87.5375 317.418 87.2836 316.976 87.2183 316.424H88.3827C88.4407 316.671 88.5786 316.885 88.7962 317.066C89.0139 317.241 89.3004 317.328 89.6559 317.328C90.0042 317.328 90.2581 317.255 90.4177 317.11C90.5773 316.965 90.6571 316.798 90.6571 316.609C90.6571 316.334 90.5446 316.149 90.3197 316.054C90.1021 315.953 89.7974 315.862 89.4056 315.782C89.1009 315.717 88.7962 315.63 88.4915 315.521C88.1941 315.412 87.9438 315.26 87.7407 315.064C87.5448 314.861 87.4468 314.589 87.4468 314.248C87.4468 313.776 87.6282 313.385 87.9909 313.073C88.3537 312.753 88.8615 312.594 89.5145 312.594C90.1166 312.594 90.6027 312.739 90.9727 313.029C91.3499 313.319 91.5712 313.729 91.6365 314.259H90.5265C90.4902 314.027 90.3814 313.845 90.2 313.715C90.0259 313.584 89.7901 313.519 89.4927 313.519C89.2025 313.519 88.9776 313.581 88.818 313.704C88.6584 313.82 88.5786 313.972 88.5786 314.161C88.5786 314.35 88.6874 314.498 88.9051 314.607C89.13 314.716 89.4238 314.814 89.7865 314.901C90.1493 314.981 90.483 315.075 90.7877 315.184C91.0996 315.285 91.3499 315.438 91.5386 315.641C91.7272 315.844 91.8215 316.142 91.8215 316.533C91.8288 317.027 91.6365 317.436 91.2447 317.763C90.8602 318.089 90.3343 318.253 89.6668 318.253ZM95.6594 318.122V313.693H94.8867V312.724H95.6594V311.941C95.6594 311.353 95.8045 310.933 96.0946 310.679C96.3921 310.417 96.8092 310.287 97.3461 310.287H97.912V311.266H97.5202C97.2663 311.266 97.0849 311.321 96.9761 311.429C96.8673 311.531 96.8129 311.705 96.8129 311.952V312.724H98.0535V313.693H96.8129V318.122H95.6594ZM101.244 318.253C100.729 318.253 100.264 318.137 99.8509 317.904C99.4446 317.665 99.1218 317.335 98.8824 316.914C98.643 316.486 98.5233 315.989 98.5233 315.423C98.5233 314.857 98.643 314.364 98.8824 313.943C99.129 313.515 99.4591 313.185 99.8727 312.953C100.286 312.714 100.747 312.594 101.255 312.594C101.77 312.594 102.23 312.714 102.637 312.953C103.05 313.185 103.377 313.515 103.616 313.943C103.863 314.364 103.986 314.857 103.986 315.423C103.986 315.989 103.863 316.486 103.616 316.914C103.377 317.335 103.05 317.665 102.637 317.904C102.223 318.137 101.759 318.253 101.244 318.253ZM101.244 317.262C101.52 317.262 101.773 317.193 102.006 317.056C102.245 316.918 102.437 316.715 102.582 316.446C102.727 316.171 102.8 315.83 102.8 315.423C102.8 315.017 102.727 314.68 102.582 314.411C102.444 314.136 102.256 313.929 102.016 313.791C101.784 313.653 101.53 313.584 101.255 313.584C100.979 313.584 100.721 313.653 100.482 313.791C100.25 313.929 100.061 314.136 99.9162 314.411C99.7711 314.68 99.6985 315.017 99.6985 315.423C99.6985 315.83 99.7711 316.171 99.9162 316.446C100.061 316.715 100.25 316.918 100.482 317.056C100.714 317.193 100.968 317.262 101.244 317.262ZM105.016 318.122V312.724H106.05L106.148 313.747C106.336 313.392 106.598 313.113 106.931 312.909C107.272 312.699 107.682 312.594 108.161 312.594V313.802H107.845C107.526 313.802 107.24 313.856 106.986 313.965C106.739 314.067 106.539 314.244 106.387 314.498C106.242 314.745 106.169 315.09 106.169 315.532V318.122H105.016ZM113.285 318.253C112.828 318.253 112.45 318.176 112.153 318.024C111.855 317.872 111.634 317.672 111.489 317.426C111.344 317.172 111.271 316.896 111.271 316.599C111.271 316.076 111.475 315.663 111.881 315.358C112.287 315.053 112.868 314.901 113.622 314.901H115.037V314.803C115.037 314.382 114.921 314.067 114.688 313.856C114.464 313.646 114.17 313.541 113.807 313.541C113.488 313.541 113.209 313.62 112.969 313.78C112.737 313.932 112.595 314.161 112.545 314.466H111.391C111.427 314.074 111.558 313.74 111.783 313.464C112.015 313.182 112.305 312.968 112.654 312.822C113.009 312.67 113.397 312.594 113.818 312.594C114.572 312.594 115.156 312.793 115.57 313.192C115.983 313.584 116.19 314.121 116.19 314.803V318.122H115.189L115.091 317.197C114.939 317.495 114.718 317.745 114.427 317.948C114.137 318.151 113.756 318.253 113.285 318.253ZM113.513 317.317C113.825 317.317 114.086 317.244 114.297 317.099C114.514 316.947 114.681 316.747 114.797 316.501C114.921 316.254 114.997 315.982 115.026 315.684H113.742C113.285 315.684 112.958 315.764 112.762 315.924C112.574 316.083 112.479 316.283 112.479 316.522C112.479 316.769 112.57 316.965 112.751 317.11C112.94 317.248 113.194 317.317 113.513 317.317ZM122.105 318.122C121.576 318.122 121.155 317.995 120.843 317.741C120.531 317.48 120.375 317.019 120.375 316.359V313.693H119.45V312.724H120.375L120.516 311.353H121.528V312.724H123.052V313.693H121.528V316.359C121.528 316.657 121.59 316.863 121.713 316.979C121.844 317.088 122.065 317.143 122.377 317.143H122.998V318.122H122.105ZM124.024 318.122V312.724H125.058L125.156 313.747C125.344 313.392 125.605 313.113 125.939 312.909C126.28 312.699 126.69 312.594 127.169 312.594V313.802H126.853C126.534 313.802 126.247 313.856 125.993 313.965C125.747 314.067 125.547 314.244 125.395 314.498C125.25 314.745 125.177 315.09 125.177 315.532V318.122H124.024ZM129.768 318.253C129.311 318.253 128.934 318.176 128.637 318.024C128.339 317.872 128.118 317.672 127.973 317.426C127.828 317.172 127.755 316.896 127.755 316.599C127.755 316.076 127.958 315.663 128.365 315.358C128.771 315.053 129.351 314.901 130.106 314.901H131.52V314.803C131.52 314.382 131.404 314.067 131.172 313.856C130.947 313.646 130.653 313.541 130.291 313.541C129.971 313.541 129.692 313.62 129.453 313.78C129.221 313.932 129.079 314.161 129.028 314.466H127.875C127.911 314.074 128.042 313.74 128.267 313.464C128.499 313.182 128.789 312.968 129.137 312.822C129.493 312.67 129.881 312.594 130.302 312.594C131.056 312.594 131.64 312.793 132.054 313.192C132.467 313.584 132.674 314.121 132.674 314.803V318.122H131.673L131.575 317.197C131.422 317.495 131.201 317.745 130.911 317.948C130.621 318.151 130.24 318.253 129.768 318.253ZM129.997 317.317C130.309 317.317 130.57 317.244 130.78 317.099C130.998 316.947 131.165 316.747 131.281 316.501C131.404 316.254 131.48 315.982 131.509 315.684H130.225C129.768 315.684 129.442 315.764 129.246 315.924C129.057 316.083 128.963 316.283 128.963 316.522C128.963 316.769 129.054 316.965 129.235 317.11C129.424 317.248 129.678 317.317 129.997 317.317ZM133.801 318.122V312.724H134.824L134.911 313.671C135.078 313.338 135.321 313.076 135.64 312.888C135.967 312.692 136.34 312.594 136.761 312.594C137.414 312.594 137.926 312.797 138.296 313.203C138.673 313.61 138.861 314.215 138.861 315.021V318.122H137.719V315.14C137.719 314.096 137.291 313.573 136.435 313.573C136.007 313.573 135.651 313.726 135.368 314.03C135.093 314.335 134.955 314.77 134.955 315.336V318.122H133.801ZM142.157 318.253C141.475 318.253 140.913 318.086 140.47 317.752C140.028 317.418 139.774 316.976 139.709 316.424H140.873C140.931 316.671 141.069 316.885 141.286 317.066C141.504 317.241 141.791 317.328 142.146 317.328C142.494 317.328 142.748 317.255 142.908 317.11C143.068 316.965 143.147 316.798 143.147 316.609C143.147 316.334 143.035 316.149 142.81 316.054C142.592 315.953 142.288 315.862 141.896 315.782C141.591 315.717 141.286 315.63 140.982 315.521C140.684 315.412 140.434 315.26 140.231 315.064C140.035 314.861 139.937 314.589 139.937 314.248C139.937 313.776 140.118 313.385 140.481 313.073C140.844 312.753 141.352 312.594 142.005 312.594C142.607 312.594 143.093 312.739 143.463 313.029C143.84 313.319 144.061 313.729 144.127 314.259H143.017C142.98 314.027 142.872 313.845 142.69 313.715C142.516 313.584 142.28 313.519 141.983 313.519C141.693 313.519 141.468 313.581 141.308 313.704C141.149 313.82 141.069 313.972 141.069 314.161C141.069 314.35 141.178 314.498 141.395 314.607C141.62 314.716 141.914 314.814 142.277 314.901C142.64 314.981 142.973 315.075 143.278 315.184C143.59 315.285 143.84 315.438 144.029 315.641C144.217 315.844 144.312 316.142 144.312 316.533C144.319 317.027 144.127 317.436 143.735 317.763C143.35 318.089 142.825 318.253 142.157 318.253ZM145.353 320.516V312.724H146.387L146.507 313.562C146.681 313.308 146.92 313.084 147.225 312.888C147.53 312.692 147.922 312.594 148.4 312.594C148.923 312.594 149.383 312.717 149.782 312.964C150.181 313.211 150.493 313.548 150.718 313.976C150.95 314.404 151.067 314.89 151.067 315.434C151.067 315.978 150.95 316.464 150.718 316.892C150.493 317.313 150.181 317.647 149.782 317.894C149.383 318.133 148.919 318.253 148.39 318.253C147.969 318.253 147.595 318.169 147.269 318.002C146.949 317.836 146.696 317.6 146.507 317.295V320.516H145.353ZM148.194 317.251C148.687 317.251 149.093 317.085 149.412 316.751C149.732 316.41 149.891 315.967 149.891 315.423C149.891 315.068 149.819 314.752 149.674 314.477C149.529 314.201 149.329 313.987 149.075 313.834C148.821 313.675 148.527 313.595 148.194 313.595C147.7 313.595 147.294 313.766 146.975 314.107C146.663 314.447 146.507 314.886 146.507 315.423C146.507 315.967 146.663 316.41 146.975 316.751C147.294 317.085 147.7 317.251 148.194 317.251ZM153.925 318.253C153.468 318.253 153.09 318.176 152.793 318.024C152.496 317.872 152.274 317.672 152.129 317.426C151.984 317.172 151.912 316.896 151.912 316.599C151.912 316.076 152.115 315.663 152.521 315.358C152.927 315.053 153.508 314.901 154.262 314.901H155.677V314.803C155.677 314.382 155.561 314.067 155.329 313.856C155.104 313.646 154.81 313.541 154.447 313.541C154.128 313.541 153.849 313.62 153.609 313.78C153.377 313.932 153.236 314.161 153.185 314.466H152.031C152.068 314.074 152.198 313.74 152.423 313.464C152.655 313.182 152.945 312.968 153.294 312.822C153.649 312.67 154.037 312.594 154.458 312.594C155.213 312.594 155.797 312.793 156.21 313.192C156.624 313.584 156.83 314.121 156.83 314.803V318.122H155.829L155.731 317.197C155.579 317.495 155.358 317.745 155.067 317.948C154.777 318.151 154.396 318.253 153.925 318.253ZM154.153 317.317C154.465 317.317 154.726 317.244 154.937 317.099C155.154 316.947 155.321 316.747 155.437 316.501C155.561 316.254 155.637 315.982 155.666 315.684H154.382C153.925 315.684 153.598 315.764 153.402 315.924C153.214 316.083 153.119 316.283 153.119 316.522C153.119 316.769 153.21 316.965 153.392 317.11C153.58 317.248 153.834 317.317 154.153 317.317ZM157.958 318.122V312.724H158.991L159.089 313.747C159.278 313.392 159.539 313.113 159.873 312.909C160.214 312.699 160.624 312.594 161.103 312.594V313.802H160.787C160.468 313.802 160.181 313.856 159.927 313.965C159.681 314.067 159.481 314.244 159.329 314.498C159.184 314.745 159.111 315.09 159.111 315.532V318.122H157.958ZM164.25 318.253C163.72 318.253 163.249 318.137 162.835 317.904C162.429 317.665 162.11 317.335 161.878 316.914C161.645 316.493 161.529 316.004 161.529 315.445C161.529 314.879 161.642 314.382 161.867 313.954C162.099 313.526 162.418 313.192 162.824 312.953C163.238 312.714 163.717 312.594 164.261 312.594C164.79 312.594 165.251 312.714 165.643 312.953C166.035 313.185 166.339 313.497 166.557 313.889C166.775 314.281 166.883 314.712 166.883 315.184C166.883 315.256 166.88 315.336 166.873 315.423C166.873 315.503 166.869 315.594 166.862 315.695H162.661C162.697 316.218 162.868 316.617 163.173 316.892C163.485 317.161 163.844 317.295 164.25 317.295C164.576 317.295 164.848 317.222 165.066 317.077C165.291 316.925 165.458 316.722 165.567 316.468H166.72C166.575 316.976 166.285 317.4 165.85 317.741C165.422 318.082 164.888 318.253 164.25 318.253ZM164.25 313.541C163.865 313.541 163.524 313.657 163.227 313.889C162.93 314.114 162.748 314.455 162.683 314.912H165.73C165.708 314.491 165.559 314.157 165.284 313.911C165.008 313.664 164.663 313.541 164.25 313.541ZM167.863 318.122V312.724H168.886L168.973 313.671C169.139 313.338 169.383 313.076 169.702 312.888C170.028 312.692 170.402 312.594 170.823 312.594C171.476 312.594 171.987 312.797 172.357 313.203C172.734 313.61 172.923 314.215 172.923 315.021V318.122H171.78V315.14C171.78 314.096 171.352 313.573 170.496 313.573C170.068 313.573 169.713 313.726 169.43 314.03C169.154 314.335 169.016 314.77 169.016 315.336V318.122H167.863ZM176.327 318.122C175.798 318.122 175.377 317.995 175.065 317.741C174.753 317.48 174.597 317.019 174.597 316.359V313.693H173.672V312.724H174.597L174.739 311.353H175.751V312.724H177.274V313.693H175.751V316.359C175.751 316.657 175.812 316.863 175.936 316.979C176.066 317.088 176.287 317.143 176.599 317.143H177.22V318.122H176.327ZM178.029 319.406L178.66 316.838H179.803L178.802 319.406H178.029ZM185.353 318.253C184.671 318.253 184.109 318.086 183.666 317.752C183.224 317.418 182.97 316.976 182.905 316.424H184.069C184.127 316.671 184.265 316.885 184.483 317.066C184.7 317.241 184.987 317.328 185.342 317.328C185.691 317.328 185.944 317.255 186.104 317.11C186.264 316.965 186.344 316.798 186.344 316.609C186.344 316.334 186.231 316.149 186.006 316.054C185.789 315.953 185.484 315.862 185.092 315.782C184.787 315.717 184.483 315.63 184.178 315.521C183.88 315.412 183.63 315.26 183.427 315.064C183.231 314.861 183.133 314.589 183.133 314.248C183.133 313.776 183.315 313.385 183.677 313.073C184.04 312.753 184.548 312.594 185.201 312.594C185.803 312.594 186.289 312.739 186.659 313.029C187.036 313.319 187.258 313.729 187.323 314.259H186.213C186.177 314.027 186.068 313.845 185.886 313.715C185.712 313.584 185.477 313.519 185.179 313.519C184.889 313.519 184.664 313.581 184.504 313.704C184.345 313.82 184.265 313.972 184.265 314.161C184.265 314.35 184.374 314.498 184.591 314.607C184.816 314.716 185.11 314.814 185.473 314.901C185.836 314.981 186.169 315.075 186.474 315.184C186.786 315.285 187.036 315.438 187.225 315.641C187.414 315.844 187.508 316.142 187.508 316.533C187.515 317.027 187.323 317.436 186.931 317.763C186.547 318.089 186.021 318.253 185.353 318.253ZM191.074 318.253C190.545 318.253 190.073 318.137 189.66 317.904C189.253 317.665 188.934 317.335 188.702 316.914C188.47 316.493 188.354 316.004 188.354 315.445C188.354 314.879 188.466 314.382 188.691 313.954C188.923 313.526 189.242 313.192 189.649 312.953C190.062 312.714 190.541 312.594 191.085 312.594C191.615 312.594 192.075 312.714 192.467 312.953C192.859 313.185 193.164 313.497 193.381 313.889C193.599 314.281 193.708 314.712 193.708 315.184C193.708 315.256 193.704 315.336 193.697 315.423C193.697 315.503 193.693 315.594 193.686 315.695H189.485C189.522 316.218 189.692 316.617 189.997 316.892C190.309 317.161 190.668 317.295 191.074 317.295C191.401 317.295 191.673 317.222 191.89 317.077C192.115 316.925 192.282 316.722 192.391 316.468H193.544C193.399 316.976 193.109 317.4 192.674 317.741C192.246 318.082 191.713 318.253 191.074 318.253ZM191.074 313.541C190.69 313.541 190.349 313.657 190.051 313.889C189.754 314.114 189.572 314.455 189.507 314.912H192.554C192.532 314.491 192.384 314.157 192.108 313.911C191.832 313.664 191.488 313.541 191.074 313.541ZM197.244 318.253C196.715 318.253 196.239 318.133 195.819 317.894C195.405 317.654 195.079 317.324 194.839 316.903C194.607 316.475 194.491 315.982 194.491 315.423C194.491 314.865 194.607 314.375 194.839 313.954C195.079 313.526 195.405 313.192 195.819 312.953C196.239 312.714 196.715 312.594 197.244 312.594C197.912 312.594 198.47 312.768 198.92 313.116C199.377 313.464 199.671 313.936 199.802 314.531H198.594C198.521 314.233 198.362 314.001 198.115 313.834C197.868 313.668 197.578 313.584 197.244 313.584C196.961 313.584 196.7 313.657 196.461 313.802C196.221 313.94 196.029 314.146 195.884 314.422C195.739 314.691 195.666 315.024 195.666 315.423C195.666 315.822 195.739 316.16 195.884 316.435C196.029 316.704 196.221 316.911 196.461 317.056C196.7 317.201 196.961 317.273 197.244 317.273C197.578 317.273 197.868 317.19 198.115 317.023C198.362 316.856 198.521 316.62 198.594 316.316H199.802C199.678 316.896 199.388 317.364 198.931 317.719C198.474 318.075 197.912 318.253 197.244 318.253ZM202.826 318.253C202.174 318.253 201.658 318.05 201.281 317.643C200.911 317.237 200.726 316.631 200.726 315.826V312.724H201.88V315.706C201.88 316.751 202.308 317.273 203.164 317.273C203.592 317.273 203.944 317.121 204.219 316.816C204.495 316.511 204.633 316.076 204.633 315.51V312.724H205.786V318.122H204.763L204.676 317.175C204.51 317.509 204.263 317.774 203.936 317.97C203.617 318.158 203.247 318.253 202.826 318.253ZM207.036 318.122V312.724H208.07L208.168 313.747C208.357 313.392 208.618 313.113 208.951 312.909C209.292 312.699 209.702 312.594 210.181 312.594V313.802H209.866C209.546 313.802 209.26 313.856 209.006 313.965C208.759 314.067 208.56 314.244 208.407 314.498C208.262 314.745 208.19 315.09 208.19 315.532V318.122H207.036ZM213.328 318.253C212.799 318.253 212.327 318.137 211.914 317.904C211.507 317.665 211.188 317.335 210.956 316.914C210.724 316.493 210.608 316.004 210.608 315.445C210.608 314.879 210.72 314.382 210.945 313.954C211.177 313.526 211.497 313.192 211.903 312.953C212.316 312.714 212.795 312.594 213.339 312.594C213.869 312.594 214.33 312.714 214.721 312.953C215.113 313.185 215.418 313.497 215.635 313.889C215.853 314.281 215.962 314.712 215.962 315.184C215.962 315.256 215.958 315.336 215.951 315.423C215.951 315.503 215.947 315.594 215.94 315.695H211.74C211.776 316.218 211.946 316.617 212.251 316.892C212.563 317.161 212.922 317.295 213.328 317.295C213.655 317.295 213.927 317.222 214.145 317.077C214.369 316.925 214.536 316.722 214.645 316.468H215.799C215.654 316.976 215.363 317.4 214.928 317.741C214.5 318.082 213.967 318.253 213.328 318.253ZM213.328 313.541C212.944 313.541 212.603 313.657 212.305 313.889C212.008 314.114 211.827 314.455 211.761 314.912H214.808C214.787 314.491 214.638 314.157 214.362 313.911C214.087 313.664 213.742 313.541 213.328 313.541ZM216.299 319.406L216.93 316.838H218.073L217.072 319.406H216.299ZM224.026 318.253C223.496 318.253 223.021 318.133 222.601 317.894C222.187 317.654 221.861 317.324 221.621 316.903C221.389 316.475 221.273 315.982 221.273 315.423C221.273 314.865 221.389 314.375 221.621 313.954C221.861 313.526 222.187 313.192 222.601 312.953C223.021 312.714 223.496 312.594 224.026 312.594C224.694 312.594 225.252 312.768 225.702 313.116C226.159 313.464 226.453 313.936 226.583 314.531H225.375C225.303 314.233 225.143 314.001 224.897 313.834C224.65 313.668 224.36 313.584 224.026 313.584C223.743 313.584 223.482 313.657 223.243 313.802C223.003 313.94 222.811 314.146 222.666 314.422C222.521 314.691 222.448 315.024 222.448 315.423C222.448 315.822 222.521 316.16 222.666 316.435C222.811 316.704 223.003 316.911 223.243 317.056C223.482 317.201 223.743 317.273 224.026 317.273C224.36 317.273 224.65 317.19 224.897 317.023C225.143 316.856 225.303 316.62 225.375 316.316H226.583C226.46 316.896 226.17 317.364 225.713 317.719C225.256 318.075 224.694 318.253 224.026 318.253ZM230.141 318.253C229.626 318.253 229.162 318.137 228.749 317.904C228.342 317.665 228.019 317.335 227.78 316.914C227.541 316.486 227.421 315.989 227.421 315.423C227.421 314.857 227.541 314.364 227.78 313.943C228.027 313.515 228.357 313.185 228.77 312.953C229.184 312.714 229.645 312.594 230.152 312.594C230.667 312.594 231.128 312.714 231.534 312.953C231.948 313.185 232.274 313.515 232.514 313.943C232.76 314.364 232.884 314.857 232.884 315.423C232.884 315.989 232.76 316.486 232.514 316.914C232.274 317.335 231.948 317.665 231.534 317.904C231.121 318.137 230.657 318.253 230.141 318.253ZM230.141 317.262C230.417 317.262 230.671 317.193 230.903 317.056C231.143 316.918 231.335 316.715 231.48 316.446C231.625 316.171 231.698 315.83 231.698 315.423C231.698 315.017 231.625 314.68 231.48 314.411C231.342 314.136 231.154 313.929 230.914 313.791C230.682 313.653 230.428 313.584 230.152 313.584C229.877 313.584 229.619 313.653 229.38 313.791C229.148 313.929 228.959 314.136 228.814 314.411C228.669 314.68 228.596 315.017 228.596 315.423C228.596 315.83 228.669 316.171 228.814 316.446C228.959 316.715 229.148 316.918 229.38 317.056C229.612 317.193 229.866 317.262 230.141 317.262ZM233.914 318.122V312.724H234.937L235.035 313.486C235.209 313.211 235.437 312.993 235.72 312.833C236.01 312.674 236.344 312.594 236.721 312.594C237.577 312.594 238.172 312.931 238.506 313.606C238.702 313.294 238.963 313.047 239.289 312.866C239.623 312.685 239.982 312.594 240.367 312.594C241.042 312.594 241.571 312.797 241.956 313.203C242.34 313.61 242.532 314.215 242.532 315.021V318.122H241.379V315.14C241.379 314.096 240.98 313.573 240.182 313.573C239.776 313.573 239.442 313.726 239.181 314.03C238.927 314.335 238.8 314.77 238.8 315.336V318.122H237.646V315.14C237.646 314.096 237.244 313.573 236.438 313.573C236.039 313.573 235.709 313.726 235.448 314.03C235.194 314.335 235.067 314.77 235.067 315.336V318.122H233.914ZM243.664 318.122V312.724H244.687L244.785 313.486C244.959 313.211 245.188 312.993 245.471 312.833C245.761 312.674 246.095 312.594 246.472 312.594C247.328 312.594 247.923 312.931 248.257 313.606C248.452 313.294 248.714 313.047 249.04 312.866C249.374 312.685 249.733 312.594 250.117 312.594C250.792 312.594 251.322 312.797 251.706 313.203C252.091 313.61 252.283 314.215 252.283 315.021V318.122H251.13V315.14C251.13 314.096 250.73 313.573 249.932 313.573C249.526 313.573 249.192 313.726 248.931 314.03C248.677 314.335 248.55 314.77 248.55 315.336V318.122H247.397V315.14C247.397 314.096 246.994 313.573 246.189 313.573C245.79 313.573 245.46 313.726 245.199 314.03C244.945 314.335 244.818 314.77 244.818 315.336V318.122H243.664ZM255.406 318.253C254.753 318.253 254.238 318.05 253.861 317.643C253.491 317.237 253.306 316.631 253.306 315.826V312.724H254.46V315.706C254.46 316.751 254.888 317.273 255.744 317.273C256.172 317.273 256.524 317.121 256.799 316.816C257.075 316.511 257.213 316.076 257.213 315.51V312.724H258.366V318.122H257.343L257.256 317.175C257.09 317.509 256.843 317.774 256.516 317.97C256.197 318.158 255.827 318.253 255.406 318.253ZM259.616 318.122V312.724H260.639L260.726 313.671C260.893 313.338 261.136 313.076 261.455 312.888C261.782 312.692 262.155 312.594 262.576 312.594C263.229 312.594 263.741 312.797 264.111 313.203C264.488 313.61 264.676 314.215 264.676 315.021V318.122H263.534V315.14C263.534 314.096 263.106 313.573 262.25 313.573C261.822 313.573 261.466 313.726 261.183 314.03C260.907 314.335 260.77 314.77 260.77 315.336V318.122H259.616ZM266.47 311.702C266.253 311.702 266.071 311.636 265.926 311.506C265.788 311.368 265.719 311.197 265.719 310.994C265.719 310.791 265.788 310.624 265.926 310.494C266.071 310.356 266.253 310.287 266.47 310.287C266.688 310.287 266.866 310.356 267.003 310.494C267.149 310.624 267.221 310.791 267.221 310.994C267.221 311.197 267.149 311.368 267.003 311.506C266.866 311.636 266.688 311.702 266.47 311.702ZM265.893 318.122V312.724H267.047V318.122H265.893ZM270.616 318.122C270.086 318.122 269.665 317.995 269.353 317.741C269.041 317.48 268.885 317.019 268.885 316.359V313.693H267.96V312.724H268.885L269.027 311.353H270.039V312.724H271.562V313.693H270.039V316.359C270.039 316.657 270.101 316.863 270.224 316.979C270.354 317.088 270.576 317.143 270.888 317.143H271.508V318.122H270.616ZM273.165 320.516L274.46 317.676H274.145L272.012 312.724H273.263L274.917 316.718L276.648 312.724H277.866L274.384 320.516H273.165ZM58.2516 331.445V330.477H62.6807V331.445H58.2516ZM66.2559 334.253C65.7335 334.253 65.2728 334.129 64.8738 333.883C64.4748 333.636 64.1628 333.299 63.9379 332.871C63.713 332.443 63.6006 331.957 63.6006 331.412C63.6006 330.868 63.713 330.386 63.9379 329.965C64.1628 329.537 64.4748 329.203 64.8738 328.964C65.2801 328.717 65.7444 328.594 66.2668 328.594C66.6948 328.594 67.0684 328.677 67.3876 328.844C67.7141 329.011 67.968 329.247 68.1494 329.552V326.287H69.3029V334.122H68.2691L68.1494 333.284C67.9753 333.538 67.7359 333.763 67.4312 333.959C67.1264 334.155 66.7347 334.253 66.2559 334.253ZM66.4626 333.251C66.956 333.251 67.3586 333.081 67.6706 332.74C67.9898 332.399 68.1494 331.96 68.1494 331.423C68.1494 330.879 67.9898 330.44 67.6706 330.107C67.3586 329.766 66.956 329.595 66.4626 329.595C65.9693 329.595 65.563 329.766 65.2438 330.107C64.9246 330.44 64.765 330.879 64.765 331.423C64.765 331.779 64.8375 332.094 64.9826 332.37C65.1277 332.646 65.3272 332.863 65.5812 333.023C65.8423 333.175 66.1362 333.251 66.4626 333.251ZM70.5396 334.122V328.724H71.5735L71.6714 329.747C71.86 329.392 72.1212 329.113 72.4549 328.909C72.7959 328.699 73.2058 328.594 73.6846 328.594V329.802H73.369C73.0498 329.802 72.7633 329.856 72.5093 329.965C72.2627 330.067 72.0632 330.244 71.9108 330.498C71.7657 330.745 71.6932 331.09 71.6932 331.532V334.122H70.5396ZM75.1089 327.702C74.8913 327.702 74.7099 327.636 74.5648 327.506C74.427 327.368 74.358 327.197 74.358 326.994C74.358 326.791 74.427 326.624 74.5648 326.494C74.7099 326.356 74.8913 326.287 75.1089 326.287C75.3266 326.287 75.5043 326.356 75.6421 326.494C75.7872 326.624 75.8598 326.791 75.8598 326.994C75.8598 327.197 75.7872 327.368 75.6421 327.506C75.5043 327.636 75.3266 327.702 75.1089 327.702ZM74.5322 334.122V328.724H75.6857V334.122H74.5322ZM78.5034 334.122L76.4793 328.724H77.6872L79.189 333.023L80.6907 328.724H81.8878L79.8746 334.122H78.5034ZM84.8665 334.253C84.3369 334.253 83.8653 334.137 83.4518 333.904C83.0455 333.665 82.7263 333.335 82.4941 332.914C82.262 332.493 82.1459 332.004 82.1459 331.445C82.1459 330.879 82.2584 330.382 82.4833 329.954C82.7154 329.526 83.0346 329.192 83.4409 328.953C83.8544 328.714 84.3332 328.594 84.8773 328.594C85.407 328.594 85.8676 328.714 86.2594 328.953C86.6512 329.185 86.9559 329.497 87.1735 329.889C87.3911 330.281 87.5 330.712 87.5 331.184C87.5 331.256 87.4963 331.336 87.4891 331.423C87.4891 331.503 87.4855 331.594 87.4782 331.695H83.2777C83.3139 332.218 83.4844 332.617 83.7891 332.892C84.1011 333.161 84.4602 333.295 84.8665 333.295C85.1929 333.295 85.465 333.222 85.6826 333.077C85.9075 332.925 86.0744 332.722 86.1832 332.468H87.3367C87.1916 332.976 86.9014 333.4 86.4662 333.741C86.0381 334.082 85.5049 334.253 84.8665 334.253ZM84.8665 329.541C84.482 329.541 84.141 329.657 83.8435 329.889C83.5461 330.114 83.3647 330.455 83.2994 330.912H86.3465C86.3247 330.491 86.176 330.157 85.9003 329.911C85.6246 329.664 85.28 329.541 84.8665 329.541ZM88.4792 334.122V328.724H89.5021L89.5892 329.671C89.7561 329.338 89.9991 329.076 90.3183 328.888C90.6448 328.692 91.0184 328.594 91.4392 328.594C92.0921 328.594 92.6036 328.797 92.9736 329.203C93.3508 329.61 93.5394 330.215 93.5394 331.021V334.122H92.3968V331.14C92.3968 330.096 91.9688 329.573 91.1127 329.573C90.6847 329.573 90.3292 329.726 90.0462 330.03C89.7706 330.335 89.6327 330.77 89.6327 331.336V334.122H88.4792ZM97.2046 334.122V328.724H98.2384L98.3363 329.747C98.5249 329.392 98.7861 329.113 99.1198 328.909C99.4608 328.699 99.8707 328.594 100.35 328.594V329.802H100.034C99.7147 329.802 99.4282 329.856 99.1742 329.965C98.9276 330.067 98.7281 330.244 98.5757 330.498C98.4306 330.745 98.3581 331.09 98.3581 331.532V334.122H97.2046ZM101.774 327.702C101.556 327.702 101.375 327.636 101.23 327.506C101.092 327.368 101.023 327.197 101.023 326.994C101.023 326.791 101.092 326.624 101.23 326.494C101.375 326.356 101.556 326.287 101.774 326.287C101.991 326.287 102.169 326.356 102.307 326.494C102.452 326.624 102.525 326.791 102.525 326.994C102.525 327.197 102.452 327.368 102.307 327.506C102.169 327.636 101.991 327.702 101.774 327.702ZM101.197 334.122V328.724H102.351V334.122H101.197ZM106.115 334.253C105.593 334.253 105.132 334.129 104.733 333.883C104.334 333.636 104.022 333.299 103.797 332.871C103.572 332.443 103.46 331.957 103.46 331.412C103.46 330.868 103.572 330.386 103.797 329.965C104.022 329.537 104.334 329.203 104.733 328.964C105.139 328.717 105.604 328.594 106.126 328.594C106.554 328.594 106.928 328.677 107.247 328.844C107.573 329.011 107.827 329.247 108.009 329.552V326.287H109.162V334.122H108.128L108.009 333.284C107.834 333.538 107.595 333.763 107.29 333.959C106.986 334.155 106.594 334.253 106.115 334.253ZM106.322 333.251C106.815 333.251 107.218 333.081 107.53 332.74C107.849 332.399 108.009 331.96 108.009 331.423C108.009 330.879 107.849 330.44 107.53 330.107C107.218 329.766 106.815 329.595 106.322 329.595C105.829 329.595 105.422 329.766 105.103 330.107C104.784 330.44 104.624 330.879 104.624 331.423C104.624 331.779 104.697 332.094 104.842 332.37C104.987 332.646 105.186 332.863 105.44 333.023C105.702 333.175 105.995 333.251 106.322 333.251ZM112.924 334.253C112.394 334.253 111.922 334.137 111.509 333.904C111.103 333.665 110.783 333.335 110.551 332.914C110.319 332.493 110.203 332.004 110.203 331.445C110.203 330.879 110.315 330.382 110.54 329.954C110.772 329.526 111.092 329.192 111.498 328.953C111.911 328.714 112.39 328.594 112.934 328.594C113.464 328.594 113.925 328.714 114.316 328.953C114.708 329.185 115.013 329.497 115.231 329.889C115.448 330.281 115.557 330.712 115.557 331.184C115.557 331.256 115.553 331.336 115.546 331.423C115.546 331.503 115.543 331.594 115.535 331.695H111.335C111.371 332.218 111.541 332.617 111.846 332.892C112.158 333.161 112.517 333.295 112.924 333.295C113.25 333.295 113.522 333.222 113.74 333.077C113.965 332.925 114.131 332.722 114.24 332.468H115.394C115.249 332.976 114.959 333.4 114.523 333.741C114.095 334.082 113.562 334.253 112.924 334.253ZM112.924 329.541C112.539 329.541 112.198 329.657 111.901 329.889C111.603 330.114 111.422 330.455 111.356 330.912H114.404C114.382 330.491 114.233 330.157 113.957 329.911C113.682 329.664 113.337 329.541 112.924 329.541ZM119.713 327.702C119.496 327.702 119.314 327.636 119.169 327.506C119.031 327.368 118.962 327.197 118.962 326.994C118.962 326.791 119.031 326.624 119.169 326.494C119.314 326.356 119.496 326.287 119.713 326.287C119.931 326.287 120.109 326.356 120.247 326.494C120.392 326.624 120.464 326.791 120.464 326.994C120.464 327.197 120.392 327.368 120.247 327.506C120.109 327.636 119.931 327.702 119.713 327.702ZM119.137 334.122V328.724H120.29V334.122H119.137ZM121.595 334.122V328.724H122.618L122.705 329.671C122.872 329.338 123.115 329.076 123.434 328.888C123.761 328.692 124.134 328.594 124.555 328.594C125.208 328.594 125.72 328.797 126.09 329.203C126.467 329.61 126.655 330.215 126.655 331.021V334.122H125.513V331.14C125.513 330.096 125.085 329.573 124.229 329.573C123.801 329.573 123.445 329.726 123.162 330.03C122.887 330.335 122.749 330.77 122.749 331.336V334.122H121.595ZM130.06 334.122C129.53 334.122 129.11 333.995 128.798 333.741C128.486 333.48 128.33 333.019 128.33 332.359V329.693H127.405V328.724H128.33L128.471 327.353H129.483V328.724H131.007V329.693H129.483V332.359C129.483 332.657 129.545 332.863 129.668 332.979C129.799 333.088 130.02 333.143 130.332 333.143H130.952V334.122H130.06ZM134.365 334.253C133.85 334.253 133.386 334.137 132.972 333.904C132.566 333.665 132.243 333.335 132.004 332.914C131.764 332.486 131.644 331.989 131.644 331.423C131.644 330.857 131.764 330.364 132.004 329.943C132.25 329.515 132.58 329.185 132.994 328.953C133.407 328.714 133.868 328.594 134.376 328.594C134.891 328.594 135.352 328.714 135.758 328.953C136.171 329.185 136.498 329.515 136.737 329.943C136.984 330.364 137.107 330.857 137.107 331.423C137.107 331.989 136.984 332.486 136.737 332.914C136.498 333.335 136.171 333.665 135.758 333.904C135.344 334.137 134.88 334.253 134.365 334.253ZM134.365 333.262C134.641 333.262 134.895 333.193 135.127 333.056C135.366 332.918 135.558 332.715 135.703 332.446C135.849 332.171 135.921 331.83 135.921 331.423C135.921 331.017 135.849 330.68 135.703 330.411C135.566 330.136 135.377 329.929 135.138 329.791C134.905 329.653 134.652 329.584 134.376 329.584C134.1 329.584 133.843 329.653 133.603 329.791C133.371 329.929 133.182 330.136 133.037 330.411C132.892 330.68 132.82 331.017 132.82 331.423C132.82 331.83 132.892 332.171 133.037 332.446C133.182 332.715 133.371 332.918 133.603 333.056C133.835 333.193 134.089 333.262 134.365 333.262ZM142.925 334.122C142.395 334.122 141.974 333.995 141.662 333.741C141.35 333.48 141.195 333.019 141.195 332.359V329.693H140.27V328.724H141.195L141.336 327.353H142.348V328.724H143.872V329.693H142.348V332.359C142.348 332.657 142.41 332.863 142.533 332.979C142.664 333.088 142.885 333.143 143.197 333.143H143.817V334.122H142.925ZM144.843 334.122V326.287H145.997V329.595C146.178 329.283 146.428 329.04 146.748 328.866C147.074 328.685 147.433 328.594 147.825 328.594C148.471 328.594 148.979 328.797 149.349 329.203C149.719 329.61 149.904 330.215 149.904 331.021V334.122H148.761V331.14C148.761 330.096 148.344 329.573 147.509 329.573C147.074 329.573 146.711 329.726 146.421 330.03C146.138 330.335 145.997 330.77 145.997 331.336V334.122H144.843ZM153.569 334.253C153.04 334.253 152.568 334.137 152.154 333.904C151.748 333.665 151.429 333.335 151.197 332.914C150.965 332.493 150.849 332.004 150.849 331.445C150.849 330.879 150.961 330.382 151.186 329.954C151.418 329.526 151.737 329.192 152.144 328.953C152.557 328.714 153.036 328.594 153.58 328.594C154.11 328.594 154.57 328.714 154.962 328.953C155.354 329.185 155.659 329.497 155.876 329.889C156.094 330.281 156.203 330.712 156.203 331.184C156.203 331.256 156.199 331.336 156.192 331.423C156.192 331.503 156.188 331.594 156.181 331.695H151.98C152.017 332.218 152.187 332.617 152.492 332.892C152.804 333.161 153.163 333.295 153.569 333.295C153.896 333.295 154.168 333.222 154.385 333.077C154.61 332.925 154.777 332.722 154.886 332.468H156.039C155.894 332.976 155.604 333.4 155.169 333.741C154.741 334.082 154.208 334.253 153.569 334.253ZM153.569 329.541C153.185 329.541 152.844 329.657 152.546 329.889C152.249 330.114 152.067 330.455 152.002 330.912H155.049C155.027 330.491 154.879 330.157 154.603 329.911C154.327 329.664 153.983 329.541 153.569 329.541ZM161.306 334.133L159.249 326.504H160.49L162.002 332.816L163.743 326.504H165.017L166.703 332.816L168.216 326.504H169.457L167.367 334.122H166.018L164.353 328.148L162.633 334.122L161.306 334.133ZM172.215 334.253C171.686 334.253 171.214 334.137 170.801 333.904C170.394 333.665 170.075 333.335 169.843 332.914C169.611 332.493 169.495 332.004 169.495 331.445C169.495 330.879 169.607 330.382 169.832 329.954C170.064 329.526 170.383 329.192 170.79 328.953C171.203 328.714 171.682 328.594 172.226 328.594C172.756 328.594 173.216 328.714 173.608 328.953C174 329.185 174.305 329.497 174.522 329.889C174.74 330.281 174.849 330.712 174.849 331.184C174.849 331.256 174.845 331.336 174.838 331.423C174.838 331.503 174.834 331.594 174.827 331.695H170.626C170.663 332.218 170.833 332.617 171.138 332.892C171.45 333.161 171.809 333.295 172.215 333.295C172.542 333.295 172.814 333.222 173.031 333.077C173.256 332.925 173.423 332.722 173.532 332.468H174.685C174.54 332.976 174.25 333.4 173.815 333.741C173.387 334.082 172.854 334.253 172.215 334.253ZM172.215 329.541C171.831 329.541 171.49 329.657 171.192 329.889C170.895 330.114 170.713 330.455 170.648 330.912H173.695C173.673 330.491 173.525 330.157 173.249 329.911C172.973 329.664 172.629 329.541 172.215 329.541ZM178.864 334.253C178.443 334.253 178.07 334.169 177.743 334.002C177.424 333.836 177.17 333.6 176.981 333.295L176.862 334.122H175.828V326.287H176.981V329.562C177.156 329.308 177.395 329.084 177.7 328.888C178.004 328.692 178.396 328.594 178.875 328.594C179.397 328.594 179.858 328.717 180.257 328.964C180.656 329.211 180.968 329.548 181.193 329.976C181.425 330.404 181.541 330.89 181.541 331.434C181.541 331.978 181.425 332.464 181.193 332.892C180.968 333.313 180.656 333.647 180.257 333.894C179.858 334.133 179.394 334.253 178.864 334.253ZM178.668 333.251C179.162 333.251 179.568 333.085 179.887 332.751C180.206 332.41 180.366 331.967 180.366 331.423C180.366 331.068 180.293 330.752 180.148 330.477C180.003 330.201 179.804 329.987 179.55 329.834C179.296 329.675 179.002 329.595 178.668 329.595C178.175 329.595 177.769 329.766 177.449 330.107C177.137 330.447 176.981 330.886 176.981 331.423C176.981 331.967 177.137 332.41 177.449 332.751C177.769 333.085 178.175 333.251 178.668 333.251ZM185.052 334.253C184.559 334.253 184.109 334.166 183.703 333.991C183.304 333.81 182.985 333.538 182.745 333.175C182.506 332.813 182.379 332.359 182.364 331.815H183.507C183.521 332.221 183.659 332.566 183.921 332.849C184.189 333.125 184.566 333.262 185.052 333.262C185.517 333.262 185.872 333.135 186.119 332.881C186.365 332.62 186.489 332.297 186.489 331.913C186.489 331.449 186.322 331.104 185.988 330.879C185.662 330.654 185.259 330.542 184.78 330.542H184.214V329.584H184.791C185.219 329.584 185.564 329.483 185.825 329.279C186.093 329.076 186.228 328.79 186.228 328.42C186.228 328.108 186.122 327.854 185.912 327.658C185.709 327.462 185.419 327.364 185.041 327.364C184.65 327.364 184.341 327.48 184.116 327.712C183.891 327.937 183.768 328.22 183.746 328.561H182.604C182.618 328.119 182.727 327.734 182.93 327.408C183.141 327.081 183.427 326.827 183.79 326.646C184.153 326.465 184.57 326.374 185.041 326.374C185.549 326.374 185.974 326.465 186.315 326.646C186.663 326.82 186.924 327.059 187.098 327.364C187.279 327.662 187.37 327.988 187.37 328.344C187.37 328.75 187.258 329.105 187.033 329.41C186.808 329.715 186.507 329.918 186.13 330.019C186.565 330.114 186.924 330.328 187.207 330.662C187.49 330.988 187.631 331.412 187.631 331.935C187.631 332.356 187.533 332.744 187.338 333.099C187.142 333.447 186.851 333.727 186.467 333.937C186.082 334.147 185.611 334.253 185.052 334.253ZM191.59 334.122V329.693H190.817V328.724H191.59V327.941C191.59 327.353 191.735 326.933 192.025 326.679C192.322 326.417 192.74 326.287 193.277 326.287H193.842V327.266H193.451C193.197 327.266 193.015 327.321 192.907 327.429C192.798 327.531 192.743 327.705 192.743 327.952V328.724H193.984V329.693H192.743V334.122H191.59ZM196.854 334.253C196.201 334.253 195.686 334.05 195.308 333.643C194.938 333.237 194.753 332.631 194.753 331.826V328.724H195.907V331.706C195.907 332.751 196.335 333.273 197.191 333.273C197.619 333.273 197.971 333.121 198.246 332.816C198.522 332.511 198.66 332.076 198.66 331.51V328.724H199.814V334.122H198.791L198.704 333.175C198.537 333.509 198.29 333.774 197.964 333.97C197.644 334.158 197.274 334.253 196.854 334.253ZM203.327 334.122C202.797 334.122 202.376 333.995 202.064 333.741C201.752 333.48 201.597 333.019 201.597 332.359V329.693H200.672V328.724H201.597L201.738 327.353H202.75V328.724H204.274V329.693H202.75V332.359C202.75 332.657 202.812 332.863 202.935 332.979C203.066 333.088 203.287 333.143 203.599 333.143H204.219V334.122H203.327ZM207.237 334.253C206.584 334.253 206.069 334.05 205.691 333.643C205.321 333.237 205.136 332.631 205.136 331.826V328.724H206.29V331.706C206.29 332.751 206.718 333.273 207.574 333.273C208.002 333.273 208.354 333.121 208.63 332.816C208.905 332.511 209.043 332.076 209.043 331.51V328.724H210.197V334.122H209.174L209.087 333.175C208.92 333.509 208.673 333.774 208.347 333.97C208.028 334.158 207.658 334.253 207.237 334.253ZM211.446 334.122V328.724H212.48L212.578 329.747C212.767 329.392 213.028 329.113 213.362 328.909C213.703 328.699 214.113 328.594 214.591 328.594V329.802H214.276C213.957 329.802 213.67 329.856 213.416 329.965C213.169 330.067 212.97 330.244 212.818 330.498C212.673 330.745 212.6 331.09 212.6 331.532V334.122H211.446ZM217.739 334.253C217.209 334.253 216.738 334.137 216.324 333.904C215.918 333.665 215.599 333.335 215.366 332.914C215.134 332.493 215.018 332.004 215.018 331.445C215.018 330.879 215.131 330.382 215.355 329.954C215.588 329.526 215.907 329.192 216.313 328.953C216.727 328.714 217.205 328.594 217.75 328.594C218.279 328.594 218.74 328.714 219.132 328.953C219.523 329.185 219.828 329.497 220.046 329.889C220.263 330.281 220.372 330.712 220.372 331.184C220.372 331.256 220.369 331.336 220.361 331.423C220.361 331.503 220.358 331.594 220.35 331.695H216.15C216.186 332.218 216.357 332.617 216.661 332.892C216.973 333.161 217.332 333.295 217.739 333.295C218.065 333.295 218.337 333.222 218.555 333.077C218.78 332.925 218.947 332.722 219.055 332.468H220.209C220.064 332.976 219.774 333.4 219.338 333.741C218.91 334.082 218.377 334.253 217.739 334.253ZM217.739 329.541C217.354 329.541 217.013 329.657 216.716 329.889C216.418 330.114 216.237 330.455 216.172 330.912H219.219C219.197 330.491 219.048 330.157 218.773 329.911C218.497 329.664 218.152 329.541 217.739 329.541Z" fill="#CECECE"/>
<rect x="57.6313" y="361.886" width="222.406" height="34.007" rx="2.72056" fill="white"/>
</g>
<path d="M138.154 12.3584C141.297 12.3584 141.215 13.0064 141.866 13.7417C142.341 14.278 142.952 14.4488 144.155 14.4488H193.518C194.721 14.4488 195.331 14.278 195.805 13.7417C196.456 13.0064 196.376 12.3584 199.519 12.3584H138.154Z" fill="url(#paint9_linear_196_36231)"/>
<path d="M197.378 28.2445H140.293C133.607 28.2445 128.188 33.6737 128.188 40.371C128.188 47.0682 133.607 52.4974 140.293 52.4974H197.378C204.064 52.4974 209.484 47.0682 209.484 40.371C209.484 33.6737 204.064 28.2445 197.378 28.2445Z" fill="black"/>
<path d="M197.907 45.1865C200.562 45.1865 202.715 43.0303 202.715 40.3706C202.715 37.7108 200.562 35.5547 197.907 35.5547C195.252 35.5547 193.1 37.7108 193.1 40.3706C193.1 43.0303 195.252 45.1865 197.907 45.1865Z" fill="#0A0A0A"/>
<path d="M197.907 43.3409C199.545 43.3409 200.872 42.011 200.872 40.3704C200.872 38.7298 199.545 37.3999 197.907 37.3999C196.269 37.3999 194.941 38.7298 194.941 40.3704C194.941 42.011 196.269 43.3409 197.907 43.3409Z" fill="#0A0D13"/>
<path d="M197.908 42.6339C199.156 42.6339 200.167 41.6206 200.167 40.3706C200.167 39.1206 199.156 38.1073 197.908 38.1073C196.66 38.1073 195.648 39.1206 195.648 40.3706C195.648 41.6206 196.66 42.6339 197.908 42.6339Z" fill="#091427"/>
<g filter="url(#filter2_f_196_36231)">
<path fill-rule="evenodd" clip-rule="evenodd" d="M196.352 38.8564C196.084 38.8847 195.704 39.2943 195.675 40.0995C195.647 40.9047 196 41.3425 196.197 41.3425C196.395 41.3425 197.213 40.1701 196.352 38.8564Z" fill="#235A91" fill-opacity="0.556075"/>
</g>
<g filter="url(#filter3_f_196_36231)">
<path fill-rule="evenodd" clip-rule="evenodd" d="M198.275 38.5742C197.852 38.7044 197.771 39.3883 197.787 39.7791C197.803 40.1699 198.356 41.1957 199.022 40.9677C199.689 40.7398 199.803 39.8931 199.526 39.3232C199.25 38.7533 198.746 38.3462 198.275 38.5742Z" fill="#235A91" fill-opacity="0.556075"/>
</g>
</g>
<defs>
<filter id="filter0_d_196_36231" x="0.144795" y="-0.368449" width="337.381" height="630.988" filterUnits="userSpaceOnUse" color-interpolation-filters="sRGB">
<feFlood flood-opacity="0" result="BackgroundImageFix"/>
<feColorMatrix in="SourceAlpha" type="matrix" values="0 0 0 0 0 0 0 0 0 0 0 0 0 0 0 0 0 0 127 0" result="hardAlpha"/>
<feMorphology radius="7.11775" operator="erode" in="SourceAlpha" result="effect1_dropShadow_196_36231"/>
<feOffset dy="17.7944"/>
<feGaussianBlur stdDeviation="16.7267"/>
<feColorMatrix type="matrix" values="0 0 0 0 0.0625882 0 0 0 0 0.0926346 0 0 0 0 0.15702 0 0 0 0.38 0"/>
<feBlend mode="normal" in2="BackgroundImageFix" result="effect1_dropShadow_196_36231"/>
<feBlend mode="normal" in="SourceGraphic" in2="effect1_dropShadow_196_36231" result="shape"/>
</filter>
<filter id="filter2_f_196_36231" x="195.546" y="38.7285" width="1.32028" height="2.74191" filterUnits="userSpaceOnUse" color-interpolation-filters="sRGB">
<feFlood flood-opacity="0" result="BackgroundImageFix"/>
<feBlend mode="normal" in="SourceGraphic" in2="BackgroundImageFix" result="shape"/>
<feGaussianBlur stdDeviation="0.0639577" result="effect1_foregroundBlur_196_36231"/>
</filter>
<filter id="filter3_f_196_36231" x="197.657" y="38.3819" width="2.13718" height="2.74643" filterUnits="userSpaceOnUse" color-interpolation-filters="sRGB">
<feFlood flood-opacity="0" result="BackgroundImageFix"/>
<feBlend mode="normal" in="SourceGraphic" in2="BackgroundImageFix" result="shape"/>
<feGaussianBlur stdDeviation="0.0639577" result="effect1_foregroundBlur_196_36231"/>
</filter>
<linearGradient id="paint0_linear_196_36231" x1="30.4369" y1="141.265" x2="30.4369" y2="119.875" gradientUnits="userSpaceOnUse">
<stop stop-color="#7E7E7C"/>
<stop offset="0.066468" stop-color="#80807E"/>
<stop offset="0.0824877" stop-color="#E7E7E7"/>
<stop offset="0.306859" stop-color="#A1A19F"/>
<stop offset="0.343067" stop-color="#706F6B"/>
<stop offset="0.659198" stop-color="#2D2C29"/>
<stop offset="0.743629" stop-color="#63625D"/>
<stop offset="0.912967" stop-color="#76756E"/>
<stop offset="1" stop-color="#373631"/>
</linearGradient>
<linearGradient id="paint1_linear_196_36231" x1="27.2734" y1="130.57" x2="33.6003" y2="130.57" gradientUnits="userSpaceOnUse">
<stop stop-color="#474643"/>
<stop offset="1" stop-color="#5E5E5E"/>
</linearGradient>
<linearGradient id="paint2_linear_196_36231" x1="30.4369" y1="205.434" x2="30.4369" y2="161.862" gradientUnits="userSpaceOnUse">
<stop stop-color="#7E7E7C"/>
<stop offset="0.066468" stop-color="#80807E"/>
<stop offset="0.0824877" stop-color="#E7E7E7"/>
<stop offset="0.306859" stop-color="#A1A19F"/>
<stop offset="0.343067" stop-color="#706F6B"/>
<stop offset="0.659198" stop-color="#2D2C29"/>
<stop offset="0.743629" stop-color="#63625D"/>
<stop offset="0.912967" stop-color="#76756E"/>
<stop offset="1" stop-color="#373631"/>
</linearGradient>
<linearGradient id="paint3_linear_196_36231" x1="27.2734" y1="183.648" x2="33.6003" y2="183.648" gradientUnits="userSpaceOnUse">
<stop stop-color="#474643"/>
<stop offset="1" stop-color="#5E5E5E"/>
</linearGradient>
<linearGradient id="paint4_linear_196_36231" x1="30.4369" y1="261.682" x2="30.4369" y2="218.11" gradientUnits="userSpaceOnUse">
<stop stop-color="#7E7E7C"/>
<stop offset="0.066468" stop-color="#80807E"/>
<stop offset="0.0824877" stop-color="#E7E7E7"/>
<stop offset="0.306859" stop-color="#A1A19F"/>
<stop offset="0.343067" stop-color="#706F6B"/>
<stop offset="0.659198" stop-color="#2D2C29"/>
<stop offset="0.743629" stop-color="#63625D"/>
<stop offset="0.912967" stop-color="#76756E"/>
<stop offset="1" stop-color="#373631"/>
</linearGradient>
<linearGradient id="paint5_linear_196_36231" x1="27.2734" y1="239.896" x2="33.6003" y2="239.896" gradientUnits="userSpaceOnUse">
<stop stop-color="#474643"/>
<stop offset="1" stop-color="#5E5E5E"/>
</linearGradient>
<linearGradient id="paint6_linear_196_36231" x1="306.844" y1="260.097" x2="306.844" y2="192.759" gradientUnits="userSpaceOnUse">
<stop stop-color="#7E7E7C"/>
<stop offset="0.066468" stop-color="#80807E"/>
<stop offset="0.0824877" stop-color="#E7E7E7"/>
<stop offset="0.306859" stop-color="#A1A19F"/>
<stop offset="0.343067" stop-color="#706F6B"/>
<stop offset="0.659198" stop-color="#2D2C29"/>
<stop offset="0.743629" stop-color="#63625D"/>
<stop offset="0.912967" stop-color="#76756E"/>
<stop offset="1" stop-color="#373631"/>
</linearGradient>
<linearGradient id="paint7_linear_196_36231" x1="303.285" y1="226.428" x2="310.403" y2="226.428" gradientUnits="userSpaceOnUse">
<stop stop-color="#474643"/>
<stop offset="1" stop-color="#5E5E5E"/>
</linearGradient>
<radialGradient id="paint8_angular_196_36231" cx="0" cy="0" r="1" gradientUnits="userSpaceOnUse" gradientTransform="translate(164.654 297.331) rotate(90) scale(288.366 135.238)">
<stop offset="0.362857" stop-color="#E6EAED"/>
<stop offset="0.370506" stop-color="#FAFBFC"/>
<stop offset="0.865074" stop-color="#D7E0E7"/>
<stop offset="0.871776" stop-color="#F7F8F9"/>
</radialGradient>
<linearGradient id="paint9_linear_196_36231" x1="144.199" y1="12.3584" x2="144.199" y2="14.4488" gradientUnits="userSpaceOnUse">
<stop/>
<stop offset="1" stop-color="#212121"/>
</linearGradient>
<clipPath id="clip0_196_36231">
<rect x="41.3091" y="21.1943" width="255.053" height="552.274" rx="38.5545" fill="white"/>
</clipPath>
</defs>
</svg>
