<svg width="22" height="27" viewBox="0 0 22 27" fill="none" xmlns="http://www.w3.org/2000/svg">
<path fill-rule="evenodd" clip-rule="evenodd" d="M18.0309 17.9549C16.2003 17.6631 16.1433 17.1205 17.6297 14.1911C19.1023 11.2914 19.3075 9.11428 18.3728 6.33078C16.9936 2.21594 12.3203 -0.647353 8.25102 0.127742C5.8505 0.58596 4.18861 1.434 2.80712 2.91124C-2.94226 9.05273 1.3276 18.6639 9.82172 18.7049C12.9745 18.7209 13.5741 19.1244 13.0429 20.8684C11.4699 26.041 17.7163 29.2303 21.1016 24.9855C23.0074 22.5964 21.1997 18.4587 18.0309 17.9549ZM12.0216 14.0338C7.0861 16.4526 2.37626 11.4396 5.06401 6.62942C6.10811 4.76235 8.86881 3.6453 10.8955 4.2745C15.6053 5.73578 16.3188 11.9274 12.0216 14.0338Z" fill="#0024AA"/>
</svg>
