<svg width="41" height="37" viewBox="0 0 41 37" fill="none" xmlns="http://www.w3.org/2000/svg">
<rect x="0.571045" y="0.5" width="40" height="36" rx="18" fill="#FF8039"/>
<path d="M19.621 21.45L17.771 23.3C17.381 23.69 16.761 23.69 16.361 23.31C16.251 23.2 16.141 23.1 16.031 22.99C15.001 21.95 14.071 20.86 13.241 19.72C12.421 18.58 11.761 17.44 11.281 16.31C10.811 15.17 10.571 14.08 10.571 13.04C10.571 12.36 10.691 11.71 10.931 11.11C11.171 10.5 11.551 9.94 12.081 9.44C12.721 8.81 13.421 8.5 14.161 8.5C14.441 8.5 14.721 8.56 14.971 8.68C15.231 8.8 15.461 8.98 15.641 9.24L17.961 12.51C18.141 12.76 18.271 12.99 18.361 13.21C18.451 13.42 18.501 13.63 18.501 13.82C18.501 14.06 18.431 14.3 18.291 14.53C18.161 14.76 17.971 15 17.731 15.24L16.971 16.03C16.861 16.14 16.811 16.27 16.811 16.43C16.811 16.51 16.821 16.58 16.841 16.66C16.871 16.74 16.901 16.8 16.921 16.86C17.101 17.19 17.411 17.62 17.851 18.14C18.301 18.66 18.781 19.19 19.301 19.72C19.401 19.82 19.511 19.92 19.611 20.02C20.011 20.41 20.021 21.05 19.621 21.45Z" fill="white"/>
<path d="M30.5411 24.83C30.5411 25.11 30.4911 25.4 30.3911 25.68C30.3611 25.76 30.3311 25.84 30.2911 25.92C30.1211 26.28 29.9011 26.62 29.6111 26.94C29.1211 27.48 28.5811 27.87 27.9711 28.12C27.9611 28.12 27.9511 28.13 27.9411 28.13C27.3511 28.37 26.7111 28.5 26.0211 28.5C25.0011 28.5 23.9111 28.26 22.7611 27.77C21.6111 27.28 20.4611 26.62 19.3211 25.79C18.9311 25.5 18.5411 25.21 18.1711 24.9L21.4411 21.63C21.7211 21.84 21.9711 22 22.1811 22.11C22.2311 22.13 22.2911 22.16 22.3611 22.19C22.4411 22.22 22.5211 22.23 22.6111 22.23C22.7811 22.23 22.9111 22.17 23.0211 22.06L23.7811 21.31C24.0311 21.06 24.2711 20.87 24.5011 20.75C24.7311 20.61 24.9611 20.54 25.2111 20.54C25.4011 20.54 25.6011 20.58 25.8211 20.67C26.0411 20.76 26.2711 20.89 26.5211 21.06L29.8311 23.41C30.0911 23.59 30.2711 23.8 30.3811 24.05C30.4811 24.3 30.5411 24.55 30.5411 24.83Z" fill="white"/>
</svg>
