<svg width="33" height="33" viewBox="0 0 33 33" fill="none" xmlns="http://www.w3.org/2000/svg">
<g clip-path="url(#clip0_197_20827)">
<path d="M32.1323 3.42731C31.7414 2.94928 31.1559 2.6861 30.4836 2.6861C30.1181 2.6861 29.7309 2.763 29.3329 2.9151L2.24553 13.2552C0.808034 13.8038 0.61443 14.627 0.626881 15.0689C0.639332 15.5108 0.879323 16.3218 2.34563 16.7884C2.35442 16.7911 2.36321 16.7938 2.372 16.7962L7.99065 18.4041L11.0292 27.0931C11.4435 28.2776 12.3735 29.0135 13.4565 29.0135C14.1393 29.0135 14.811 28.7274 15.3989 28.1863L18.8742 24.9864L23.915 29.0452C23.9155 29.0457 23.9162 29.046 23.9167 29.0464L23.9645 29.085C23.9689 29.0884 23.9736 29.0921 23.978 29.0955C24.5383 29.5301 25.1498 29.7596 25.7472 29.7598H25.7475C26.9147 29.7598 27.8442 28.8958 28.1149 27.5589L32.5532 5.64386C32.7314 4.76422 32.582 3.97711 32.1323 3.42731ZM9.87029 18.0987L20.7104 12.5609L13.9606 19.733C13.85 19.8504 13.7717 19.9942 13.7331 20.1507L12.4316 25.4227L9.87029 18.0987ZM14.1286 26.8069C14.0837 26.8482 14.0385 26.8851 13.9933 26.919L15.2009 22.0284L17.3974 23.7972L14.1286 26.8069ZM30.7155 5.27155L26.2773 27.1868C26.2346 27.3965 26.0981 27.8846 25.7472 27.8846C25.5739 27.8846 25.3561 27.7901 25.1332 27.6185L19.4213 23.0193C19.4206 23.0186 19.4196 23.0179 19.4186 23.0174L16.0199 20.2806L25.7809 9.90875C26.0934 9.57672 26.1218 9.06818 25.8481 8.70343C25.5742 8.33868 25.0778 8.22394 24.6718 8.43146L8.6176 16.6331L2.92254 15.0037L30.0016 4.66681C30.2304 4.57941 30.3901 4.5611 30.4836 4.5611C30.5409 4.5611 30.643 4.56793 30.6808 4.61456C30.7306 4.67535 30.7941 4.88263 30.7155 5.27155Z" fill="#3D52A1"/>
</g>
<defs>
<clipPath id="clip0_197_20827">
<rect width="32" height="32" fill="white" transform="translate(0.626343 0.248535)"/>
</clipPath>
</defs>
</svg>
