<svg width="41" height="37" viewBox="0 0 41 37" fill="none" xmlns="http://www.w3.org/2000/svg">
<rect x="0.860352" y="0.799561" width="40" height="36" rx="18" fill="#FF8039"/>
<path d="M29.9205 18.6196L29.7605 18.3996C29.4805 18.0596 29.1505 17.7896 28.7705 17.5896C28.2605 17.2996 27.6805 17.1496 27.0805 17.1496H14.6305C14.0305 17.1496 13.4605 17.2996 12.9405 17.5896C12.5505 17.7996 12.2005 18.0896 11.9105 18.4496C11.3405 19.1796 11.0705 20.0796 11.1605 20.9796L11.5305 25.6496C11.6605 27.0596 11.8305 28.7996 15.0005 28.7996H26.7205C29.8905 28.7996 30.0505 27.0596 30.1905 25.6396L30.5605 20.9896C30.6505 20.1496 30.4305 19.3096 29.9205 18.6196ZM23.2505 24.1396H18.4605C18.0705 24.1396 17.7605 23.8196 17.7605 23.4396C17.7605 23.0596 18.0705 22.7396 18.4605 22.7396H23.2505C23.6405 22.7396 23.9505 23.0596 23.9505 23.4396C23.9505 23.8296 23.6405 24.1396 23.2505 24.1396Z" fill="white"/>
<path d="M29.4213 15.396C29.4589 15.7788 29.0436 16.0352 28.6788 15.913C28.1741 15.7441 27.6427 15.6596 27.0902 15.6596H14.6302C14.0734 15.6596 13.5251 15.7497 13.0136 15.9215C12.6532 16.0425 12.2402 15.7946 12.2402 15.4144V13.4596C12.2402 9.88956 13.3302 8.79956 16.9002 8.79956H18.0802C19.5102 8.79956 19.9602 9.25956 20.5402 10.0096L21.7402 11.6096C21.9902 11.9496 22.0002 11.9696 22.4402 11.9696H24.8202C27.9459 11.9696 29.1673 12.8068 29.4213 15.396Z" fill="white"/>
</svg>
