<svg width="68" height="68" viewBox="0 0 68 68" fill="none" xmlns="http://www.w3.org/2000/svg">
<g filter="url(#filter0_ddi_196_36019)">
<rect x="12" width="44" height="44" rx="22" fill="white"/>
<rect x="13" y="1" width="42" height="42" rx="21" stroke="white" stroke-width="2"/>
<path d="M42.99 19.71C42.65 19.57 42.2 19.5 41.64 19.5H36.36C34.62 19.5 34 20.12 34 21.88V29.62C34 30.2 34.07 30.65 34.22 31C34.53 31.72 35.19 32 36.36 32H41.64C43.38 32 44 31.37 44 29.62V21.88C44 20.69 43.72 20.02 42.99 19.71ZM40 29.75H38C37.98 29.75 37.95 29.75 37.93 29.74C37.78 29.73 37.65 29.68 37.54 29.58C37.36 29.45 37.25 29.24 37.25 29C37.25 28.59 37.59 28.25 38 28.25H40C40.41 28.25 40.75 28.59 40.75 29C40.75 29.41 40.41 29.75 40 29.75Z" fill="#FF8039"/>
<path d="M42.9898 16.19V17C42.9898 17.55 42.5398 18 41.9898 18H36.3598C33.7998 18 32.4998 19.31 32.4998 21.88V31C32.4998 31.55 32.0498 32 31.4998 32H29.5498C29.1498 32 28.8298 31.68 28.8298 31.29C28.8298 30.89 29.1498 30.58 29.5498 30.58H31.4998V26.75H27.9998C25.7798 26.64 24.0098 24.81 24.0098 22.56V16.19C24.0098 13.88 25.8898 12 28.2098 12H38.7998C41.1098 12 42.9898 13.88 42.9898 16.19Z" fill="#FF8039"/>
</g>
<defs>
<filter id="filter0_ddi_196_36019" x="0" y="-4" width="68" height="72" filterUnits="userSpaceOnUse" color-interpolation-filters="sRGB">
<feFlood flood-opacity="0" result="BackgroundImageFix"/>
<feColorMatrix in="SourceAlpha" type="matrix" values="0 0 0 0 0 0 0 0 0 0 0 0 0 0 0 0 0 0 127 0" result="hardAlpha"/>
<feMorphology radius="2" operator="erode" in="SourceAlpha" result="effect1_dropShadow_196_36019"/>
<feOffset dy="4"/>
<feGaussianBlur stdDeviation="3"/>
<feColorMatrix type="matrix" values="0 0 0 0 0.0627451 0 0 0 0 0.0941176 0 0 0 0 0.156863 0 0 0 0.03 0"/>
<feBlend mode="normal" in2="BackgroundImageFix" result="effect1_dropShadow_196_36019"/>
<feColorMatrix in="SourceAlpha" type="matrix" values="0 0 0 0 0 0 0 0 0 0 0 0 0 0 0 0 0 0 127 0" result="hardAlpha"/>
<feMorphology radius="4" operator="erode" in="SourceAlpha" result="effect2_dropShadow_196_36019"/>
<feOffset dy="12"/>
<feGaussianBlur stdDeviation="8"/>
<feColorMatrix type="matrix" values="0 0 0 0 0.0627451 0 0 0 0 0.0941176 0 0 0 0 0.156863 0 0 0 0.08 0"/>
<feBlend mode="normal" in2="effect1_dropShadow_196_36019" result="effect2_dropShadow_196_36019"/>
<feBlend mode="normal" in="SourceGraphic" in2="effect2_dropShadow_196_36019" result="shape"/>
<feColorMatrix in="SourceAlpha" type="matrix" values="0 0 0 0 0 0 0 0 0 0 0 0 0 0 0 0 0 0 127 0" result="hardAlpha"/>
<feOffset dy="-4"/>
<feGaussianBlur stdDeviation="4.45"/>
<feComposite in2="hardAlpha" operator="arithmetic" k2="-1" k3="1"/>
<feColorMatrix type="matrix" values="0 0 0 0 0 0 0 0 0 0 0 0 0 0 0 0 0 0 0.25 0"/>
<feBlend mode="normal" in2="shape" result="effect3_innerShadow_196_36019"/>
</filter>
</defs>
</svg>
